<svg width="122" height="50" viewBox="0 0 122 50" fill="none" xmlns="http://www.w3.org/2000/svg">
<path fill-rule="evenodd" clip-rule="evenodd" d="M25.2604 30.4647L20.2976 20.9294L16.2827 30.4647H25.2604ZM4.88867 40.223V40.8736L10.9667 41.0595L13.3459 35.7993L28.2158 35.855L30.4835 41.2268L36.45 40.8178L20.5392 9.88847L4.88867 40.223Z" fill="#435F74"/>
<path fill-rule="evenodd" clip-rule="evenodd" d="M97.5463 15.0929C94.5352 16.0223 92.8809 16.7472 91.1709 19.5539C86.5055 27.1933 93.011 38.3085 103.439 35.223C116.598 31.3011 110.52 11.0409 97.5463 15.0929Z" fill="white"/>
<path fill-rule="evenodd" clip-rule="evenodd" d="M40.9663 38.4015C47.286 43.9219 55.5574 40.4461 57.918 34.5167C59.4236 30.7435 58.9403 13.9405 58.6429 9.1078L56.0035 9.20074H53.4384V9.27509C53.3827 11.1338 53.4013 12.9926 53.4384 14.8327V30.0372C53.141 32.974 51.4868 35.4275 48.0295 35.539C45.7618 35.5019 44.5165 34.9442 43.8845 34.8327C43.0109 34.684 42.7507 36.0223 40.9663 38.4015Z" fill="#435F74"/>
<path fill-rule="evenodd" clip-rule="evenodd" d="M16.3569 30.316L25.1673 30.3717C24.0149 27.3792 22.3792 23.5316 20.1488 21.6729L16.3569 30.316Z" fill="white"/>
<path fill-rule="evenodd" clip-rule="evenodd" d="M42.918 38.513C42.2675 38.4573 41.5983 38.4201 40.9478 38.3643C41.747 37.026 42.5277 35.6691 43.3269 34.3309C44.5537 35.0929 45.1485 35.2788 46.5797 35.4833C46.3939 36.1896 46.208 36.8773 46.0221 37.5836C44.9998 37.881 43.9589 38.197 42.918 38.513Z" fill="#435F74"/>
<path fill-rule="evenodd" clip-rule="evenodd" d="M24.3494 19.461L25.2602 30.4647L20.2974 20.9294L24.3494 19.461Z" fill="#435F74"/>
<path fill-rule="evenodd" clip-rule="evenodd" d="M100.279 9.03346C109.182 9.03346 116.413 16.2454 116.413 25.1487C116.413 34.052 109.182 41.2639 100.279 41.2639C91.3755 41.2639 84.1636 34.052 84.1636 25.1487C84.1636 16.2454 91.3755 9.03346 100.279 9.03346ZM100.279 14.5353C106.134 14.5353 110.892 19.2937 110.892 25.1487C110.892 31.0037 106.152 35.7621 100.279 35.7621C94.4238 35.7621 89.6654 31.0037 89.6654 25.1487C89.6654 19.2937 94.4238 14.5353 100.279 14.5353Z" fill="#435F74"/>
<path d="M74.9072 9.1078H69.9072V41.2825H74.9072V9.1078Z" fill="#435F74"/>
</svg>
