<svg width="48" height="48" viewBox="0 0 48 48" fill="none" xmlns="http://www.w3.org/2000/svg">
<path fill-rule="evenodd" clip-rule="evenodd" d="M25.4031 25.96C24.6601 27.442 23.3881 28.396 22.0101 28.718C21.8021 28.718 21.4831 28.823 21.1641 28.823C18.8351 28.823 17.4581 27.021 17.4581 24.373C17.4581 20.979 19.4701 19.392 22.0101 18.647C23.3881 18.33 24.9801 18.223 26.5681 18.223V19.496C26.5681 21.933 26.6731 23.839 25.4031 25.96ZM26.5681 13.352C25.1911 13.457 23.5991 13.562 22.0101 13.77C19.5751 14.092 17.1401 14.516 15.1301 15.47C11.2101 17.06 8.56006 20.45 8.56006 25.429C8.56006 31.686 12.5841 34.862 17.6731 34.862C19.3661 34.862 20.7431 34.648 22.0101 34.334C24.0281 33.696 25.7191 32.53 27.7311 30.409C28.8971 31.999 29.2181 32.744 31.2281 34.439C31.7581 34.648 32.2881 34.648 32.7091 34.334C33.9821 33.272 36.2091 31.364 37.3721 30.304C37.9021 29.881 37.7981 29.244 37.4761 28.718C36.3131 27.233 35.1451 25.96 35.1451 23.099V13.561C35.1451 9.535 35.4671 5.825 32.5001 3.072C30.0651 0.85 26.2501 0 23.2831 0H22.0101C16.6121 0.313 10.8941 2.646 9.61806 9.323C9.40606 10.173 10.0441 10.489 10.4681 10.593L16.4001 11.336C17.0351 11.229 17.3541 10.698 17.4581 10.173C17.9861 7.841 19.8941 6.675 22.0101 6.46H22.4371C23.7091 6.46 25.0871 6.991 25.8261 8.053C26.6731 9.323 26.5681 11.02 26.5681 12.505V13.352Z" fill="black"/>
<path fill-rule="evenodd" clip-rule="evenodd" d="M47.994 35.946V35.944C47.972 35.444 47.867 35.063 47.659 34.746L47.636 34.716L47.611 34.684C47.399 34.453 47.196 34.365 46.976 34.269C46.318 34.015 45.361 33.879 44.21 33.877C43.383 33.877 42.471 33.956 41.554 34.157L41.551 34.094L40.628 34.402L40.611 34.41L40.089 34.58V34.602C39.4923 34.8496 38.927 35.1672 38.405 35.548C38.083 35.788 37.818 36.108 37.803 36.596C37.803 36.739 37.8343 36.8803 37.8948 37.0098C37.9553 37.1394 38.0434 37.2542 38.153 37.346C38.273 37.4416 38.4113 37.5116 38.5594 37.5515C38.7075 37.5914 38.8623 37.6004 39.014 37.578L39.059 37.576L39.093 37.57C39.545 37.474 40.203 37.409 40.973 37.302C41.633 37.228 42.333 37.175 42.94 37.175C43.369 37.172 43.755 37.203 44.02 37.259C44.1341 37.2797 44.2445 37.3168 44.348 37.369C44.3688 37.4561 44.3772 37.5456 44.373 37.635C44.379 38.143 44.165 39.086 43.868 40.007C43.58 40.927 43.23 41.85 42.999 42.463C42.9384 42.6109 42.9068 42.7691 42.906 42.929C42.9 43.175 43.002 43.474 43.216 43.672C43.426 43.869 43.696 43.948 43.922 43.948H43.933C44.272 43.945 44.56 43.81 44.808 43.615C47.151 41.509 47.966 38.143 48 36.248L47.994 35.946ZM41.049 38.866C40.802 38.8651 40.558 38.9197 40.335 39.026C40.078 39.128 39.815 39.247 39.567 39.352L39.203 39.504L38.729 39.694V39.699C33.579 41.789 28.169 43.014 23.162 43.121C22.978 43.127 22.792 43.127 22.614 43.127C14.74 43.132 8.31703 39.479 1.83703 35.879C1.62669 35.7642 1.39164 35.7021 1.15203 35.698C0.861031 35.698 0.562031 35.808 0.344031 36.011C0.235023 36.1148 0.148302 36.2397 0.0891582 36.3781C0.0300146 36.5165 -0.000311025 36.6655 3.144e-05 36.816C-0.00296856 37.208 0.209031 37.57 0.505031 37.804C6.58703 43.087 13.253 47.994 22.22 48C22.395 48 22.573 47.994 22.75 47.992C28.454 47.864 34.903 45.936 39.91 42.791L39.94 42.771C40.6117 42.3702 41.2558 41.9248 41.868 41.438C42.252 41.153 42.518 40.707 42.518 40.244C42.501 39.422 41.803 38.866 41.05 38.866H41.049Z" fill="#FF9A00"/>
</svg>
