<svg width="117" height="40" viewBox="0 0 117 40" fill="none" xmlns="http://www.w3.org/2000/svg">
<path fill-rule="evenodd" clip-rule="evenodd" d="M71.3233 32.1968C64.9375 36.9037 55.6815 39.4151 47.7123 39.4151C36.5381 39.4151 26.4786 35.2821 18.868 28.4084C18.2702 27.8677 18.8059 27.1311 19.5234 27.5521C27.7366 32.3308 37.8919 35.2056 48.382 35.2056C55.4567 35.2056 63.2393 33.7419 70.3954 30.7044C71.4764 30.2452 72.3805 31.4123 71.3233 32.1968Z" fill="#FF9900"/>
<path fill-rule="evenodd" clip-rule="evenodd" d="M73.9784 29.1593C73.1652 28.1165 68.5826 28.6666 66.5257 28.9105C65.8991 28.9871 65.8035 28.4417 66.3679 28.0495C70.0177 25.4809 76.0066 26.2223 76.7049 27.0833C77.4033 27.9491 76.5232 33.9523 73.0934 36.8176C72.5672 37.2577 72.0649 37.0233 72.2993 36.4397C73.0695 34.5168 74.7963 30.2069 73.9784 29.1593Z" fill="#FF9900"/>
<path fill-rule="evenodd" clip-rule="evenodd" d="M66.6692 9.9155V7.41858C66.6692 7.04066 66.9563 6.78715 67.3007 6.78715H78.4796C78.8384 6.78715 79.1254 7.04539 79.1254 7.41858V9.55671C79.1206 9.9155 78.8192 10.3843 78.2835 11.1257L72.4908 19.3963C74.6433 19.3437 76.9154 19.6642 78.867 20.7644C79.3072 21.0131 79.4267 21.3767 79.4602 21.7354V24.3998C79.4602 24.7633 79.0584 25.189 78.6375 24.969C75.1981 23.1657 70.63 22.9696 66.8272 24.9881C66.4397 25.1987 66.0331 24.7777 66.0331 24.4142V21.8837C66.0331 21.4771 66.0378 20.7835 66.4444 20.1665L73.1556 10.5422H67.3149C66.9563 10.5422 66.6692 10.2887 66.6692 9.9155ZM25.8904 25.4952H22.4894C22.1641 25.4713 21.9058 25.2274 21.8819 24.9164V7.46165C21.8819 7.11242 22.1736 6.83495 22.5372 6.83495H25.7086C26.0387 6.84924 26.3018 7.10286 26.3257 7.41847V9.70034H26.3879C27.2154 7.49517 28.77 6.46682 30.8652 6.46682C32.9937 6.46682 34.3236 7.49517 35.2803 9.70034C36.1031 7.49517 37.9734 6.46682 39.9777 6.46682C41.4031 6.46682 42.9625 7.05517 43.9144 8.37539C44.9907 9.84385 44.7707 11.9773 44.7707 13.8476L44.7658 24.8639C44.7658 25.2131 44.4741 25.4953 44.1106 25.4953H40.7143C40.3747 25.4714 40.102 25.1988 40.102 24.8639V15.6126C40.102 14.8759 40.169 13.039 40.0064 12.3408C39.7529 11.1688 38.9923 10.8387 38.0068 10.8387C37.1841 10.8387 36.3231 11.3888 35.9739 12.269C35.6247 13.1492 35.6583 14.6224 35.6583 15.6126V24.8637C35.6583 25.213 35.3664 25.4952 35.0029 25.4952H31.6066C31.2622 25.4713 30.9943 25.1987 30.9943 24.8637L30.9896 15.6126C30.9896 13.6657 31.31 10.8006 28.8944 10.8006C26.4501 10.8006 26.5457 13.594 26.5457 15.6126V24.8637C26.5457 25.213 26.254 25.4952 25.8904 25.4952ZM88.7497 6.46671C93.7962 6.46671 96.5276 10.8004 96.5276 16.311C96.5276 21.635 93.5092 25.8588 88.7496 25.8588C83.794 25.8588 81.0962 21.525 81.0962 16.1244C81.0962 10.6904 83.8275 6.46671 88.7497 6.46671ZM88.7784 10.0303C86.2718 10.0303 86.114 13.4457 86.114 15.5743C86.114 17.7078 86.0806 22.2615 88.7497 22.2615C91.3854 22.2615 91.5097 18.5879 91.5097 16.3492C91.5097 14.8759 91.4475 13.1156 91.0026 11.7189C90.62 10.5039 89.8595 10.0303 88.7785 10.0303M103.071 25.4952H99.6846C99.3451 25.4713 99.0723 25.1987 99.0723 24.8637L99.0676 7.40418C99.0962 7.08374 99.3786 6.83495 99.7229 6.83495H102.875C103.172 6.84924 103.416 7.05034 103.483 7.32286V9.99209H103.545C104.497 7.60517 105.831 6.46671 108.18 6.46671C109.706 6.46671 111.194 7.01671 112.15 8.52352C113.04 9.92023 113.04 12.269 113.04 13.9576V24.9451C113.002 25.2512 112.72 25.4952 112.385 25.4952H108.974C108.663 25.4713 108.405 25.2417 108.371 24.9451V15.4643C108.371 13.5557 108.591 10.7621 106.243 10.7621C105.415 10.7621 104.655 11.317 104.277 12.1589C103.798 13.2257 103.736 14.2876 103.736 15.4644V24.8637C103.731 25.213 103.435 25.4952 103.071 25.4952ZM57.7577 17.1577C57.7577 18.4826 57.7912 19.5877 57.1214 20.7643C56.581 21.7211 55.72 22.3093 54.768 22.3093C53.4622 22.3093 52.6968 21.3145 52.6968 19.8459C52.6968 16.9471 55.2943 16.421 57.7577 16.421V17.1577ZM61.1874 25.4474C60.9626 25.6482 60.6374 25.6626 60.3839 25.5287C59.255 24.5911 59.0492 24.1558 58.4322 23.2613C56.5666 25.1652 55.2417 25.7344 52.8259 25.7344C49.9607 25.7344 47.7364 23.9692 47.7364 20.4344C47.7364 17.6743 49.2288 15.7944 51.3622 14.8759C53.2087 14.0628 55.7869 13.9192 57.7578 13.6944V13.2544C57.7578 12.4459 57.8199 11.4892 57.3415 10.7909C56.9302 10.1643 56.1361 9.90594 55.433 9.90594C54.1366 9.90594 52.9839 10.5708 52.7017 11.9485C52.6442 12.2546 52.4193 12.5559 52.1085 12.5703L48.8126 12.2164C48.5353 12.1542 48.2243 11.9293 48.3056 11.5036C49.0614 7.50473 52.6777 6.29924 55.9114 6.29924C57.5665 6.29924 59.7286 6.73935 61.0345 7.99264C62.6895 9.5377 62.5317 11.5992 62.5317 13.8428V19.1428C62.5317 20.7357 63.1919 21.434 63.8136 22.2951C64.029 22.6012 64.0767 22.9696 63.7993 23.1991C63.1057 23.7779 61.8715 24.8542 61.1923 25.4569L61.1876 25.4474M13.1712 17.1577C13.1712 18.4826 13.2047 19.5877 12.535 20.7643C11.9945 21.7211 11.1383 22.3093 10.1816 22.3093C8.87573 22.3093 8.11507 21.3145 8.11507 19.8459C8.11507 16.9471 10.7125 16.421 13.1712 16.421V17.1577ZM16.6009 25.4474C16.3762 25.6482 16.0509 25.6626 15.7974 25.5287C14.6685 24.5911 14.4675 24.1558 13.8457 23.2613C11.9801 25.1652 10.66 25.7344 8.23946 25.7344C5.37902 25.7344 3.1499 23.9692 3.1499 20.4344C3.1499 17.6743 4.64715 15.7944 6.77573 14.8759C8.62221 14.0628 11.2005 13.9192 13.1712 13.6944V13.2544C13.1712 12.4459 13.2334 11.4892 12.7598 10.7909C12.3436 10.1643 11.5497 9.90594 10.8512 9.90594C9.55496 9.90594 8.39737 10.5708 8.11507 11.9485C8.0577 12.2546 7.83287 12.5559 7.52672 12.5703L4.22617 12.2164C3.94869 12.1542 3.64265 11.9293 3.71913 11.5036C4.47968 7.50473 8.09122 6.29924 11.3248 6.29924C12.9798 6.29924 15.142 6.73935 16.4479 7.99264C18.1029 9.5377 17.9451 11.5992 17.9451 13.8428V19.1428C17.9451 20.7357 18.6052 21.434 19.227 22.2951C19.4472 22.6012 19.495 22.9696 19.2175 23.1991C18.5239 23.7779 17.2898 24.8542 16.6106 25.4569L16.601 25.4474" fill="black"/>
</svg>
