<svg width="104" height="20" viewBox="0 0 104 20" fill="none" xmlns="http://www.w3.org/2000/svg">
<g clip-path="url(#clip0_48_143)">
<path d="M40.8442 2.03624C40.8442 1.56308 41.01 1.1093 41.3051 0.774731C41.6001 0.440159 42.0004 0.252197 42.4177 0.252197C42.8349 0.252197 43.2351 0.440159 43.5302 0.774731C43.8252 1.1093 43.991 1.56308 43.991 2.03624C43.9758 2.49787 43.8034 2.93486 43.51 3.25536C43.2166 3.57586 42.8251 3.75493 42.4177 3.75493C42.0102 3.75493 41.6187 3.57586 41.3253 3.25536C41.0319 2.93486 40.8594 2.49787 40.8442 2.03624Z" fill="#273B7D"/>
<path d="M65.6689 13.9344C65.6689 12.9442 66.3723 12.1441 67.239 12.1441C67.6575 12.1441 68.0588 12.3326 68.3547 12.6681C68.6506 13.0036 68.8168 13.4587 68.8168 13.9332C68.8168 14.4076 68.6506 14.8627 68.3547 15.1982C68.0588 15.5337 67.6575 15.7222 67.239 15.7222C66.3734 15.7222 65.6689 14.9208 65.6689 13.9332" fill="#499FDD"/>
<path d="M15.0226 13.1604C13.6684 13.1604 12.7261 11.9404 12.7261 10.1961C12.7261 8.45307 13.6684 7.23431 15.0237 7.23431C16.3856 7.23431 17.3378 8.45307 17.3378 10.1961C17.3378 11.9677 16.4065 13.1604 15.0226 13.1604ZM15.0226 4.62906C12.1564 4.62906 10.0757 6.97093 10.0757 10.1961C10.0757 13.4225 12.1575 15.7632 15.0226 15.7632C17.901 15.7632 19.9893 13.4225 19.9893 10.1974C19.9893 6.97093 17.9009 4.62906 15.0237 4.62906M37.7972 10.4756C37.6974 10.2569 37.5713 10.0549 37.4225 9.87558L37.3348 9.77247L37.4269 9.67308C37.5584 9.5153 37.6931 9.32894 37.8224 9.11277L40.3534 4.84896H37.2812L35.3801 8.18472C35.2728 8.36362 35.0559 8.45307 34.7305 8.45307H34.2976V2.14681C34.2976 0.885806 33.6041 0.714359 32.8558 0.714359H31.5738L31.5771 15.5992H34.2987V11.1341H34.554C34.8641 11.1341 35.0744 11.1751 35.172 11.3664L36.673 14.5792C37.0927 15.4513 37.5101 15.5992 38.2968 15.5992H40.3819L38.8282 12.6871L37.7983 10.4756M51.0088 4.60422C49.6239 4.60422 48.7407 5.30243 48.2455 5.89255L48.0812 6.08139L48.022 5.82422C47.8774 5.19186 47.3865 4.84523 46.6491 4.84523H45.4296L45.4373 15.5954H48.1403V10.6409C48.1403 10.1564 48.1951 9.73644 48.309 9.35255C48.6092 8.19093 49.4485 7.46912 50.4971 7.46912C51.3407 7.46912 51.6706 7.97476 51.6706 9.27925V13.9617C51.6706 15.0749 52.1252 15.5954 53.1081 15.5954H54.3944L54.39 8.75745C54.39 6.04164 53.221 4.60546 51.0088 4.60546M42.4505 4.84896H41.1696L41.1784 13.1616V15.5992H42.5447L42.5929 15.6017L43.2307 15.5992H43.8639V15.5954H43.8683L43.8738 6.48268C43.8738 5.38318 43.4103 4.8502 42.4516 4.8502M25.6385 13.1604C24.2843 13.1604 23.3409 11.9404 23.3409 10.1961C23.3409 8.45307 24.2843 7.23431 25.6397 7.23431C26.9983 7.23431 27.9537 8.45307 27.9537 10.1961C27.9537 11.9677 27.0224 13.1604 25.6397 13.1604H25.6385ZM25.6385 4.62906C22.7701 4.62906 20.6883 6.97093 20.6883 10.1961C20.6883 13.4225 22.7701 15.7632 25.6397 15.7632C28.5136 15.7632 30.6063 13.4225 30.6063 10.1974C30.6063 6.97093 28.5136 4.62906 25.6397 4.62906" fill="#273B7D"/>
<path d="M83.5722 13.1604C82.2179 13.1604 81.2734 11.9404 81.2734 10.1961C81.2734 8.45307 82.2179 7.2343 83.5722 7.2343C84.933 7.2343 85.8873 8.45307 85.8873 10.1961C85.8873 11.9677 84.956 13.1604 83.5722 13.1604ZM83.5722 4.62906C80.7037 4.62906 78.623 6.97092 78.623 10.1961C78.623 13.4225 80.7037 15.7632 83.5722 15.7632C86.4472 15.7632 88.5388 13.4225 88.5388 10.1974C88.5388 6.97092 86.4461 4.62906 83.5722 4.62906Z" fill="#499FDD"/>
<path d="M60.0887 12.6871C58.6106 12.6871 58.0847 11.226 58.0847 9.8557C58.0847 9.25191 58.2194 7.28524 59.9473 7.28524C60.8052 7.28524 61.948 7.56354 61.948 9.95634C61.948 12.2137 60.9367 12.6871 60.0887 12.6871ZM63.3515 4.82039C62.8388 4.82039 62.4444 5.05271 62.246 5.47636L62.1716 5.64035L62.0466 5.51611C61.6106 5.08874 60.8283 4.58061 59.5584 4.58061C57.0307 4.58061 55.3291 6.73363 55.3291 9.93522C55.3291 13.1356 57.0898 15.3718 59.6088 15.3718C60.4689 15.3718 61.1492 15.1432 61.6883 14.6811L61.8965 14.5034V14.8016C61.8965 16.2378 61.078 17.0304 59.5934 17.0304C58.8714 17.0304 58.2151 16.8316 57.7746 16.6502C57.2027 16.4539 56.8652 16.6167 56.634 17.2689L56.4193 17.8702L56.1157 18.7498L56.3031 18.8629C57.2542 19.4344 58.4912 19.776 59.6088 19.776C61.9097 19.776 64.5984 18.4405 64.5984 14.6811L64.6083 4.82039H63.3515Z" fill="#273B7D"/>
<path d="M4.95757 13.0374L2.75747 13.0349V10.0532C2.75747 9.41467 2.97551 9.0842 3.45651 9.00717H4.95757C6.02804 9.00717 6.72049 9.77247 6.72158 11.0111C6.72049 12.2833 6.04557 13.0362 4.95757 13.0362V13.0374ZM2.75747 4.99184V4.20666C2.75747 3.51963 3.01387 3.19289 3.57595 3.15065H4.70231C5.6676 3.15065 6.24611 3.80538 6.24611 4.90239C6.24611 5.73726 5.84946 6.71252 4.73735 6.71252H2.75747V4.99184ZM7.7669 7.96855L7.36913 7.71511L7.71647 7.37843C8.12077 6.9846 8.79683 6.09879 8.79683 4.57067C8.79683 2.23005 7.19714 0.719334 4.71983 0.719334H1.57085C1.21653 0.733982 0.880775 0.902647 0.633141 1.19038C0.385507 1.4781 0.24499 1.86283 0.240723 2.26484V15.5458H4.77567C7.52909 15.5458 9.30628 13.8462 9.30628 11.2136C9.30628 9.79607 8.73218 8.58477 7.7669 7.96855Z" fill="#273B7D"/>
<path d="M100.612 4.64025C100.054 4.64258 99.5032 4.78703 99.001 5.06291C98.4988 5.33881 98.0577 5.73909 97.7103 6.23421L97.5153 6.51498L97.3619 6.20066C96.86 5.16577 95.9989 4.64025 94.8013 4.64025C93.5446 4.64025 92.702 5.43536 92.3108 5.90746L92.0544 6.22178L91.9558 5.80808C91.8134 5.21174 91.3456 4.885 90.6378 4.885H89.5015L89.4905 15.5942H92.0709V10.867C92.0709 10.452 92.1169 10.0433 92.2078 9.61469C92.4544 8.47171 93.1314 7.24301 94.2698 7.366C94.9711 7.44303 95.3152 8.058 95.3152 9.24571V15.5942H97.9141V10.867C97.9141 10.3489 97.9568 9.96131 98.0598 9.57369C98.268 8.48289 98.9758 7.36476 100.074 7.36476C100.869 7.36476 101.163 7.87413 101.163 9.24571V14.0288C101.163 15.1097 101.588 15.5942 102.542 15.5942H103.756L103.758 8.75746C103.758 6.02549 102.698 4.64025 100.612 4.64025ZM77.127 11.8758C77.1193 11.887 76.0094 13.2138 74.5467 13.2138C73.2144 13.2138 71.8689 12.287 71.8689 10.2185C71.8689 8.43196 72.912 7.18338 74.4065 7.18338C74.8908 7.18338 75.443 7.37967 75.5296 7.71138L75.5416 7.76729C75.5968 7.99566 75.7169 8.19699 75.8833 8.34008C76.0497 8.48316 76.2531 8.56 76.4619 8.55868L77.8754 8.56116V7.15977C77.8754 5.31113 75.8013 4.64025 74.4065 4.64025C71.4219 4.64025 69.2568 6.99578 69.2568 10.2408C69.2568 13.4834 71.3978 15.8365 74.3517 15.8365C76.9134 15.8365 78.3071 13.927 78.3203 13.9083L78.3947 13.804L77.2749 11.6981L77.127 11.8758Z" fill="#499FDD"/>
</g>
<defs>
<clipPath id="clip0_48_143">
<rect width="104" height="20" fill="white"/>
</clipPath>
</defs>
</svg>
