<svg width="59" height="18" viewBox="0 0 59 18" fill="none" xmlns="http://www.w3.org/2000/svg">
<mask id="mask0_65_63" style="mask-type:alpha" maskUnits="userSpaceOnUse" x="2" y="5" width="9" height="10">
<path fill-rule="evenodd" clip-rule="evenodd" d="M2.53857 5.58099H10.8534V14.8197H2.53857V5.58099Z" fill="white"/>
</mask>
<g mask="url(#mask0_65_63)">
<path fill-rule="evenodd" clip-rule="evenodd" d="M10.8534 11.5677C10.7426 12.3807 10.4839 13.0459 10.0774 13.5633C9.37523 14.4132 8.48832 14.8567 7.2688 14.8197C5.7167 14.7828 4.86673 14.2284 3.86895 13.2676C3.01899 12.4546 2.53857 11.1612 2.53857 10.2004C2.53857 9.53517 2.72335 9.12867 3.01899 8.42652C3.35158 7.68742 3.72113 7.31787 4.20155 6.83746C5.12542 5.95054 6.23407 5.54404 7.37967 5.54404C8.30354 5.54404 9.07959 5.76577 9.70783 6.20923C10.1882 6.57878 10.4469 7.02223 10.4469 7.5396C10.4469 7.83524 10.3361 8.05697 10.1882 8.2787C10.0035 8.46348 9.78174 8.57434 9.52305 8.57434C9.26437 8.57434 9.04264 8.46348 8.85786 8.2787C8.67309 8.05697 8.56223 7.83524 8.56223 7.5396C8.56223 7.24396 8.71005 6.94832 9.00569 6.61573L9.07959 6.43096C9.07959 6.06141 8.52527 5.91359 7.41662 5.87663C6.27102 5.83968 5.56888 6.13532 5.12542 6.65269C4.60805 7.24396 4.53414 8.35261 4.53414 9.90472V10.9025C4.53414 12.0111 4.57109 12.8611 4.82978 13.4154C5.16237 14.1176 5.93843 14.5241 7.08403 14.5241C8.0079 14.5241 8.78396 14.2654 9.37523 13.748C9.96651 13.2307 10.3361 12.4916 10.5208 11.5677H10.8534Z" fill="#00ACA4"/>
</g>
<path fill-rule="evenodd" clip-rule="evenodd" d="M14.6969 8.09435C14.8077 7.57698 15.0295 7.13352 15.2882 6.72702C15.8425 5.95097 16.5077 5.54446 17.3207 5.54446C17.7641 5.54446 18.0967 5.65533 18.3554 5.87706C18.6141 6.09879 18.7619 6.39442 18.7619 6.76397C18.7619 7.05961 18.688 7.28134 18.5032 7.46612C18.3554 7.65089 18.1337 7.7248 17.875 7.7248C17.6163 7.7248 17.3946 7.65089 17.2098 7.46612C17.025 7.28134 16.9511 7.05961 16.9511 6.76397C16.9511 6.43138 17.1359 6.13574 17.4315 5.91401C17.4315 5.87706 16.3599 6.09878 15.8794 6.5792C15.6577 6.80093 15.436 7.05961 15.3251 7.28134C15.2142 7.50307 15.0664 7.83567 14.9186 8.31608C14.7708 8.75954 14.6969 9.42473 14.6969 10.3116V14.118H16.5816V14.4876H11.334V14.118H12.997V6.32052H11.334V5.95097H13.4774C14.0686 5.95097 14.4752 5.76619 14.7338 5.39664V8.09435H14.6969Z" fill="#00ACA4"/>
<path fill-rule="evenodd" clip-rule="evenodd" d="M23.2704 5.50751C24.2313 5.50751 25.1921 5.87706 26.116 6.65311C27.2246 7.61394 27.7789 8.75954 27.7789 10.1269C27.7789 11.3833 27.2985 12.455 26.3747 13.4159C25.4508 14.3397 24.3791 14.8201 23.1965 14.8201C21.9401 14.8201 20.8314 14.3397 19.9076 13.3789C19.4641 12.9354 19.0945 12.4181 18.8359 11.8638C18.5772 11.3094 18.4663 10.7182 18.4663 10.2008C18.4663 9.57255 18.6141 8.98127 18.9467 8.35304C19.2424 7.76176 19.6858 7.20743 20.2401 6.72702C21.164 5.91401 22.1988 5.50751 23.2704 5.50751ZM25.7834 11.7529V8.64867C25.7834 8.02044 25.7464 7.57698 25.6725 7.28134C25.5986 7.02266 25.4508 6.76397 25.266 6.54224C24.7856 6.06183 24.1204 5.80315 23.1965 5.80315C22.2357 5.80315 21.5336 6.02488 21.1271 6.50529C20.6466 6.94875 20.4249 7.65089 20.4249 8.61172V11.679C20.4249 12.7137 20.6466 13.4528 21.1271 13.8963C21.3118 14.081 21.6075 14.2289 21.977 14.3397C22.3835 14.4506 22.79 14.5245 23.2335 14.5245C23.7139 14.5245 24.1574 14.4506 24.5269 14.3028C24.9334 14.155 25.1921 13.9702 25.3769 13.7115C25.6356 13.305 25.7834 12.6398 25.7834 11.7529Z" fill="#00ACA4"/>
<path fill-rule="evenodd" clip-rule="evenodd" d="M31.1049 7.76176C31.3267 7.09657 31.7332 6.5792 32.3244 6.13574C32.9527 5.72924 33.6179 5.50751 34.3939 5.50751C35.3917 5.50751 36.1678 5.80315 36.6482 6.43138C36.9068 6.76398 37.0547 7.24439 37.1286 7.87262C37.3873 7.13352 37.7938 6.5792 38.385 6.13574C38.9394 5.72924 39.6415 5.50751 40.3806 5.50751C41.3414 5.50751 42.1175 5.80315 42.6349 6.39443C42.8566 6.65311 43.0414 6.9857 43.1153 7.28134C43.1892 7.61394 43.2261 8.13131 43.2261 8.87041V14.155H44.8891V14.5245H39.7893V14.155H41.4523V7.68785C41.4523 6.54224 40.9719 5.98792 40.0111 5.98792C39.1241 5.98792 38.3481 6.43138 37.7568 7.3183C37.3503 7.94653 37.1655 8.4639 37.1655 8.90736V14.2289H38.8285V14.5984H33.7657V14.2289H35.4656V7.35525C35.4656 6.91179 35.3547 6.54225 35.133 6.28356C34.9113 6.02488 34.5787 5.87706 34.1352 5.87706C33.507 5.87706 32.8788 6.13574 32.2875 6.61616C31.7332 7.13352 31.3267 7.7248 31.1419 8.50086V14.1919H32.7679V14.5615H27.742V14.1919H29.368V6.32052H27.7051V5.95097H29.7746C30.4767 5.95097 30.9202 5.76619 31.068 5.35969V7.76176H31.1049Z" fill="#00ACA4"/>
<mask id="mask1_65_63" style="mask-type:alpha" maskUnits="userSpaceOnUse" x="2" y="3" width="54" height="12">
<path fill-rule="evenodd" clip-rule="evenodd" d="M2.53857 14.931H55.0885V3.10544H2.53857V14.931Z" fill="white"/>
</mask>
<g mask="url(#mask1_65_63)">
<path fill-rule="evenodd" clip-rule="evenodd" d="M46.2932 4.02931H53.056V3.10544H46.2932V4.02931ZM51.393 9.57255V7.46612C51.393 6.9857 51.3191 6.61615 51.2082 6.39442C51.0604 6.17269 50.8017 6.02488 50.4322 5.91401C50.1365 5.8401 49.73 5.80315 49.2866 5.80315C48.5475 5.80315 47.9931 5.91401 47.5866 6.13574C47.2171 6.32052 46.9954 6.5792 46.9954 6.83788C46.9954 6.94875 47.0693 7.05961 47.2171 7.20743C47.5127 7.42916 47.6605 7.68785 47.6605 7.98349C47.6605 8.27913 47.5497 8.50086 47.4019 8.68563C47.2171 8.8704 46.9954 8.94431 46.7367 8.94431C46.441 8.94431 46.2193 8.83345 46.0345 8.64867C45.8498 8.4639 45.7389 8.20521 45.7389 7.87262C45.7389 7.20743 46.0715 6.65311 46.7367 6.17269C47.4019 5.69228 48.2149 5.47055 49.1387 5.47055C50.2104 5.47055 51.393 5.65533 52.243 6.20965C52.7234 6.50529 52.8712 6.76397 53.019 7.02266C53.1299 7.28134 53.1668 7.61394 53.1668 8.05739V11.8638C53.2038 12.9354 53.2777 13.6006 53.3147 13.7485C53.3886 14.118 53.6842 14.2658 53.9798 14.2658C54.3124 14.2289 54.4972 14.081 54.682 13.3789H55.0515C54.7189 14.5984 54.1646 14.7462 53.3516 14.7462C52.8342 14.7462 52.2799 14.5615 51.9843 14.3397C51.6886 14.081 51.5039 13.7485 51.4299 13.268C51.1343 13.7485 50.7278 14.118 50.1365 14.3397C49.5822 14.5984 49.0279 14.7093 48.2888 14.7093C47.2171 14.7093 46.441 14.4876 45.9237 14.0441C45.4433 13.6376 45.1846 13.1202 45.1846 12.5659C45.1846 12.0855 45.3693 11.642 45.7019 11.1616C46.0715 10.7181 46.478 10.3856 46.9954 10.1638C47.5497 9.9421 48.0671 9.79428 48.8801 9.64646C49.6561 9.53559 50.4322 9.46168 51.2082 9.46168H51.393V9.57255ZM51.393 9.90514H51.2821C49.4344 9.90514 48.2518 10.1269 47.6605 10.5703C47.254 10.866 47.0693 11.4203 47.0693 12.1963C47.0693 12.9354 47.1801 13.4898 47.4758 13.7854C47.7345 14.081 48.1779 14.2658 48.8431 14.2658C49.4344 14.2658 49.9518 14.118 50.4322 13.8593C50.9126 13.6006 51.2452 13.2311 51.4299 12.7876V9.90514H51.393Z" fill="#00ACA4"/>
</g>
<path fill-rule="evenodd" clip-rule="evenodd" d="M46.293 4.02931H53.0557V3.10544H46.293V4.02931Z" fill="#00ACA4"/>
</svg>
