<svg width="52" height="50" viewBox="0 0 52 50" fill="none" xmlns="http://www.w3.org/2000/svg">
<g clip-path="url(#clip0_65_46)">
<path d="M51.6219 8.66471C51.6007 8.59403 51.5794 8.52335 51.5512 8.45267C34.8068 8.45974 18.0694 8.45267 1.33203 8.45973C1.28962 8.50921 1.26135 8.55869 1.25428 8.6223C1.25428 21.6065 1.25428 34.5836 1.24707 47.5679C1.35309 48.2605 1.73477 48.8895 2.24382 49.3632C2.26503 49.3702 2.3145 49.3771 2.33571 49.3843C2.59723 49.6598 2.97184 49.7943 3.32525 49.9215C3.58677 49.9074 3.84122 50.0204 4.10274 49.9922H24.8831C25.081 49.9851 25.2858 50.0204 25.4767 49.9428C25.4839 49.9146 25.4908 49.865 25.4979 49.8367C25.5051 49.8014 25.512 49.7237 25.5192 49.6813C25.9645 47.1934 26.3955 44.6983 26.8693 42.2103L26.9117 41.8923C24.9892 41.8851 23.0595 41.8923 21.1371 41.8851C20.6705 41.871 20.19 41.8851 19.7234 41.8284C18.9248 41.7931 18.119 41.8214 17.3203 41.7437C16.3308 41.7437 15.3483 41.6517 14.3588 41.6517C13.5813 41.574 12.7967 41.6023 12.0121 41.567C11.5034 41.5035 10.9802 41.5317 10.4644 41.5104C9.62325 41.4186 8.76801 41.4822 7.9269 41.3903C7.03631 41.3975 6.14572 41.3196 5.25514 41.2983C5.2622 41.2913 5.26927 41.263 5.26927 41.2559C5.56613 41.263 5.85593 41.2419 6.15279 41.2348C6.81013 41.1499 7.47453 41.2065 8.13187 41.1146C8.81748 41.1146 9.49602 41.0227 10.1816 41.0227C10.7895 40.9379 11.4044 40.9874 12.0121 40.9025C12.7262 40.9025 13.4258 40.8107 14.1398 40.8036C14.7265 40.7258 15.3202 40.7682 15.9068 40.6905C16.5924 40.6975 17.271 40.5915 17.9566 40.5987C18.6281 40.5208 19.3135 40.5419 19.985 40.4712C19.9215 40.2099 19.8719 39.9483 19.8155 39.6867C19.766 39.5242 19.5681 39.5595 19.4409 39.5382C17.9071 39.319 16.3804 39.1001 14.8537 38.888C14.9526 38.8101 15.0869 38.8455 15.2 38.8314C16.3875 38.7394 17.5679 38.6334 18.7553 38.5487C19.0239 38.5346 19.2854 38.4851 19.554 38.478C19.4338 38.1105 19.3632 37.7076 19.2006 37.3684C16.6633 36.9796 14.1257 36.6333 11.5953 36.2162C12.2526 36.1102 12.917 36.0608 13.5743 35.9901L13.6309 35.9688C15.7301 35.7495 17.8364 35.5022 19.9357 35.2973C22.6002 35.2833 25.258 35.2901 27.9227 35.2973C28.0074 35.2833 28.1559 35.3255 28.1701 35.2054C28.3892 34.0604 28.6012 32.9154 28.8202 31.7702C29.1241 30.18 29.6048 28.6108 30.3469 27.1619C31.5132 24.8294 33.358 22.8503 35.6055 21.5357C37.7047 20.3058 40.1363 19.7121 42.5536 19.599C43.3382 19.5283 44.1298 19.5495 44.9073 19.6485C45.4162 19.7686 45.9393 19.91 46.3421 20.2564C46.6743 20.5249 46.8723 20.9208 47.0207 21.3166C47.346 22.2566 47.5296 23.232 47.6851 24.2145C47.6922 24.6103 47.7628 25.0556 47.5508 25.4161C47.3529 25.7695 46.9572 25.9392 46.5825 26.0452C45.2183 26.3986 43.7906 26.0663 42.4264 26.3986C41.3027 26.6389 40.2565 27.2608 39.5426 28.1586C38.7015 29.2046 38.2562 30.505 38.0088 31.8057C37.818 32.9649 37.5776 34.124 37.3868 35.2903C38.7297 35.2975 40.0798 35.2832 41.4298 35.2975C41.967 35.2975 42.5183 35.5943 42.7374 36.1031C43.0201 36.7534 42.9565 37.4886 42.8646 38.1741C42.7515 38.9446 42.5677 39.7079 42.2214 40.4147C41.9315 41.0155 41.451 41.5669 40.7936 41.7789C40.4544 41.9132 40.0868 41.8849 39.7264 41.8849C38.5388 41.8849 37.3513 41.899 36.164 41.8849C35.9732 42.7544 35.8459 43.6449 35.6763 44.5284C35.3655 46.2459 35.0614 47.9705 34.7504 49.6952C34.7433 49.7519 34.7362 49.8719 34.7362 49.9356C35.2946 49.9638 35.853 49.9356 36.4114 49.9496C40.5533 49.9496 44.7023 49.9424 48.8513 49.9496C49.2966 49.9638 49.749 49.8578 50.1377 49.6386C50.371 49.5539 50.5124 49.3488 50.7173 49.2358C50.9152 49.1227 50.9718 48.8896 51.1414 48.741C51.3252 48.4159 51.516 48.0768 51.5302 47.6949C51.5514 47.6949 51.6079 47.6878 51.6362 47.6808C51.6147 34.6755 51.636 21.6701 51.6219 8.66471Z" fill="url(#paint0_linear_65_46)" stroke="#FCD109" stroke-width="0.094"/>
<path d="M7.8416 0.112249C8.4424 -0.0785912 9.07146 0.0486356 9.68653 0.00622668C21.2288 0.0132948 32.7711 0.00622668 44.3133 0.00622668C44.9989 -0.022046 45.5997 0.366703 46.2358 0.564611C46.7447 0.769588 47.2748 0.932155 47.7837 1.15127C47.8897 1.19368 47.9675 1.28556 48.0451 1.36331C48.038 2.29631 48.0451 3.23637 48.0451 4.17644C48.0523 4.42382 48.0098 4.67828 48.0946 4.9186C48.2432 4.9398 48.3208 5.05289 48.4199 5.14478C48.8864 5.35682 49.282 5.70316 49.7061 5.98589C50.3423 6.43825 51.0209 6.83407 51.6428 7.30057C51.671 7.48434 51.6499 7.67518 51.5933 7.84481C51.5298 8.04272 51.5721 8.25477 51.5509 8.45267C34.8065 8.45974 18.0691 8.45267 1.3317 8.45974C1.29636 8.22649 1.35997 7.99324 1.26102 7.77413C1.24688 7.59036 1.18327 7.35004 1.35997 7.22282C2.06678 6.72804 2.81601 6.28275 3.50855 5.75971C3.93984 5.48405 4.35672 5.20132 4.77374 4.9186C4.85856 4.77723 4.83029 4.60053 4.83029 4.44503C4.83029 3.42015 4.83029 2.39526 4.83736 1.37038C5.07768 1.05938 5.49484 1.02404 5.8269 0.868542C6.49866 0.614088 7.1772 0.366703 7.8416 0.112249ZM7.88401 0.232408C6.97929 0.578747 6.0675 0.910951 5.16278 1.25729C5.04262 1.2785 4.97886 1.38452 4.91539 1.4764C4.92246 1.53295 4.92953 1.6319 4.92953 1.68845C4.92232 2.53663 4.92953 3.38481 4.92232 4.23299C4.92953 4.44503 4.90111 4.65707 4.97886 4.84791C4.88698 4.9398 4.78816 5.03169 4.67493 5.10237C3.65005 5.76678 2.66051 6.48773 1.63563 7.14507C1.45892 7.25109 1.26101 7.39245 1.31756 7.6257C1.28222 7.75293 1.34583 7.85895 1.48013 7.82361C3.69953 7.80947 5.91186 7.83774 8.1314 7.8024C11.4322 7.8024 14.726 7.80947 18.0268 7.8024L18.0763 7.7812C18.2247 7.81654 18.373 7.8024 18.5285 7.8024C24.5082 7.8024 30.4878 7.80947 36.4745 7.8024C38.3547 7.80947 40.2419 7.8024 42.129 7.8024C45.239 7.8024 48.3561 7.83068 51.4661 7.81654C51.558 7.79534 51.5862 7.73172 51.5509 7.61863C51.5437 7.50554 51.5862 7.35004 51.4661 7.27936C50.9713 7.04611 50.5472 6.68564 50.0737 6.40291C49.9042 6.26155 49.6849 6.1838 49.5577 5.99296C49.07 5.7173 48.6176 5.37803 48.1369 5.0741C48.045 5.01755 47.9743 4.92566 47.8967 4.84791C47.9391 4.69948 47.9532 4.53692 47.9532 4.38142C47.9461 3.48376 47.9532 2.5861 47.9461 1.68845C47.9674 1.54709 47.9602 1.38452 47.8329 1.29263C46.9847 0.988701 46.1438 0.663565 45.3025 0.352567C45.041 0.22534 44.7512 0.154658 44.4685 0.112249H8.34316C8.18794 0.119317 8.03951 0.197067 7.88401 0.232408Z" fill="#F8F3B5"/>
<path d="M7.8416 0.112249C8.4424 -0.0785912 9.07146 0.0486356 9.68653 0.00622668C21.2288 0.0132948 32.7711 0.00622668 44.3133 0.00622668C44.9989 -0.022046 45.5997 0.366703 46.2358 0.564611C46.7447 0.769588 47.2748 0.932155 47.7837 1.15127C47.8897 1.19368 47.9675 1.28556 48.0451 1.36331C48.038 2.29631 48.0451 3.23637 48.0451 4.17644C48.0523 4.42382 48.0098 4.67828 48.0946 4.9186C48.2432 4.9398 48.3208 5.05289 48.4199 5.14478C48.8864 5.35682 49.282 5.70316 49.7061 5.98589C50.3423 6.43825 51.0209 6.83407 51.6428 7.30057C51.671 7.48434 51.6499 7.67518 51.5933 7.84481C51.5298 8.04272 51.5721 8.25477 51.5509 8.45268C34.8065 8.45974 18.0691 8.45267 1.3317 8.45974C1.29636 8.22649 1.35997 7.99324 1.26102 7.77413C1.24688 7.59036 1.18327 7.35004 1.35997 7.22282C2.06678 6.72804 2.81601 6.28275 3.50855 5.75971C3.93984 5.48405 4.35672 5.20132 4.77374 4.9186C4.85856 4.77723 4.83029 4.60053 4.83029 4.44503C4.83029 3.42015 4.83029 2.39526 4.83736 1.37038C5.07768 1.05938 5.49484 1.02404 5.8269 0.868542C6.49866 0.614088 7.1772 0.366703 7.8416 0.112249M7.88401 0.232408C6.97929 0.578747 6.0675 0.910951 5.16278 1.25729C5.04262 1.2785 4.97886 1.38452 4.91539 1.4764C4.92246 1.53295 4.92953 1.6319 4.92953 1.68845C4.92232 2.53663 4.92953 3.38481 4.92232 4.23298C4.92953 4.44503 4.90111 4.65707 4.97886 4.84791C4.88698 4.9398 4.78816 5.03169 4.67493 5.10237C3.65005 5.76677 2.66051 6.48773 1.63563 7.14507C1.45892 7.25109 1.26101 7.39245 1.31756 7.6257C1.28222 7.75293 1.34583 7.85895 1.48013 7.82361C3.69953 7.80947 5.91186 7.83774 8.1314 7.8024C11.4322 7.8024 14.726 7.80947 18.0268 7.8024L18.0763 7.7812C18.2247 7.81654 18.373 7.8024 18.5285 7.8024C24.5082 7.8024 30.4878 7.80947 36.4745 7.8024C38.3547 7.80947 40.2419 7.8024 42.129 7.8024C45.239 7.8024 48.3561 7.83068 51.4661 7.81654C51.558 7.79534 51.5862 7.73172 51.5509 7.61863C51.5437 7.50554 51.5862 7.35004 51.4661 7.27936C50.9713 7.04611 50.5472 6.68564 50.0737 6.40291C49.9042 6.26155 49.6849 6.1838 49.5577 5.99296C49.07 5.7173 48.6176 5.37803 48.1369 5.0741C48.045 5.01755 47.9743 4.92566 47.8967 4.84791C47.9391 4.69948 47.9532 4.53692 47.9532 4.38142C47.9461 3.48376 47.9532 2.5861 47.9461 1.68845C47.9674 1.54709 47.9602 1.38452 47.8329 1.29263C46.9847 0.988701 46.1438 0.663565 45.3025 0.352566C45.041 0.22534 44.7512 0.154658 44.4685 0.112249H8.34316C8.18794 0.119317 8.03951 0.197067 7.88401 0.232408V0.232408Z" stroke="#F8F3B5" stroke-width="0.094"/>
<path d="M4.92957 1.68845C5.55157 1.94997 6.21583 2.0984 6.84504 2.35285C7.18431 2.48715 7.29033 2.85469 7.43876 3.15155C7.29019 3.29998 7.11349 3.42014 6.93679 3.53323C6.28652 3.97146 5.62211 4.39555 4.97891 4.84791C4.90116 4.65707 4.92957 4.44503 4.92236 4.23298C4.92957 3.3848 4.9225 2.53662 4.92957 1.68845ZM46.0307 2.35285C46.6598 2.10547 47.3171 1.93583 47.9463 1.68845C47.9534 2.5861 47.9463 3.48376 47.9534 4.38141C47.9534 4.53691 47.9392 4.69948 47.8968 4.84791C47.3455 4.46623 46.7871 4.10575 46.2358 3.73114C45.9672 3.53323 45.6704 3.3848 45.4301 3.14449C45.5785 2.84762 45.6916 2.48715 46.0307 2.35285Z" fill="#F7B402" stroke="#F7B402" stroke-width="0.094"/>
<path d="M15.7159 2.64264C16.4934 2.45887 17.3628 3.15155 17.2992 3.96438C17.3062 4.76309 16.465 5.41336 15.6947 5.22958C15.3837 5.12356 15.0867 4.96099 14.896 4.68534C14.6486 4.31072 14.5919 3.80888 14.79 3.39893C14.9313 3.00311 15.313 2.73452 15.7159 2.64264ZM35.8813 3.08793C36.2065 2.72746 36.7224 2.52248 37.2031 2.64971C37.5636 2.75573 37.917 2.98898 38.0725 3.34239C38.3835 3.95025 38.1431 4.77015 37.5353 5.08822C36.998 5.38508 36.3196 5.24372 35.9096 4.81256C35.4926 4.339 35.4642 3.5615 35.8813 3.08793Z" fill="#BDA727" stroke="#BDA727" stroke-width="0.094"/>
<path d="M6.93713 3.53323C7.11384 3.42014 7.29054 3.29998 7.43912 3.15155L7.48845 3.20103C7.53793 3.56858 7.50259 3.94319 7.51672 4.31073C7.49552 5.41337 7.53793 6.52307 7.48845 7.6257C5.43162 7.6257 3.37492 7.61156 1.31795 7.6257C1.2614 7.39245 1.45931 7.25109 1.63601 7.14507C2.6609 6.48773 3.65044 5.76677 4.67532 5.10237C4.78855 5.03168 4.88737 4.9398 4.97925 4.84791C5.62246 4.39555 6.28686 3.97146 6.93713 3.53323ZM45.3595 3.39187C45.3595 3.29999 45.3809 3.22224 45.4302 3.14449C45.6705 3.3848 45.9675 3.53323 46.236 3.73114C46.7873 4.10576 47.3457 4.46623 47.897 4.84791C47.9747 4.92566 48.0454 5.01755 48.1372 5.07409C48.6179 5.37802 49.0702 5.7173 49.558 5.99295C49.6852 6.1838 49.9043 6.26155 50.074 6.40291C50.5475 6.68563 50.9716 7.04611 51.4664 7.27936C51.5866 7.35004 51.5442 7.50554 51.5512 7.61863C49.4942 7.6257 47.4445 7.61156 45.3878 7.6257C45.3524 7.34297 45.3736 7.06025 45.3666 6.78459C45.3667 5.65368 45.3526 4.52278 45.3595 3.39187Z" fill="#F7E62D" stroke="#F7E62D" stroke-width="0.094"/>
<path d="M51.5514 7.61863C49.4944 7.62569 47.4446 7.61156 45.3879 7.62569C45.3526 7.34297 45.3738 7.06024 45.3667 6.78458C45.3667 5.65368 45.3526 4.52277 45.3595 3.39187C45.3595 3.29998 45.3809 3.22223 45.4302 3.14448C45.5788 2.84762 45.6917 2.48714 46.031 2.35285C46.6601 2.10546 47.3174 1.93583 47.9466 1.68844C47.9678 1.54708 47.9607 1.38451 47.8334 1.29263C46.9852 0.988695 46.1442 0.66356 45.303 0.352561C45.0415 0.225334 44.7517 0.154653 44.4689 0.112244H8.34362C8.18812 0.119312 8.03969 0.197062 7.88419 0.232402C6.97947 0.578742 6.06768 0.910946 5.16295 1.25729C5.0428 1.27849 4.97904 1.38451 4.91557 1.4764C4.92264 1.53294 4.9297 1.6319 4.9297 1.68844C5.5517 1.94996 6.21597 2.0984 6.84517 2.35285C7.18444 2.48714 7.29047 2.85469 7.4389 3.15155L7.48823 3.20103C7.53771 3.56857 7.50237 3.94318 7.51651 4.31073C7.4953 5.41336 7.53771 6.52306 7.48823 7.62569C5.4314 7.62569 3.37471 7.61156 1.31774 7.62569C1.2824 7.75292 1.34601 7.85894 1.48031 7.8236C3.69971 7.80946 5.91204 7.83774 8.13158 7.8024C11.4324 7.8024 14.7262 7.80946 18.027 7.8024L18.0765 7.78119C18.2249 7.81653 18.3732 7.8024 18.5287 7.8024C24.5083 7.8024 30.488 7.80946 36.4746 7.8024C38.3548 7.80946 40.242 7.8024 42.1292 7.8024C45.2392 7.8024 48.3563 7.83067 51.4663 7.81653C51.5584 7.79533 51.5867 7.73172 51.5514 7.61863ZM14.7899 3.39894C14.9313 3.00312 15.3128 2.73453 15.7158 2.64264C16.4933 2.45887 17.3627 3.15155 17.2991 3.96439C17.3062 4.76309 16.4649 5.41336 15.6946 5.22959C15.3836 5.12357 15.0866 4.961 14.8959 4.68534C14.6486 4.31073 14.592 3.80889 14.7899 3.39894ZM35.8813 3.08794C36.2064 2.72746 36.7224 2.52248 37.203 2.64971C37.5635 2.75573 37.9169 2.98898 38.0724 3.34239C38.3834 3.95025 38.1431 4.77016 37.5352 5.08823C36.9979 5.38509 36.3195 5.24372 35.9095 4.81257C35.4925 4.339 35.4641 3.5615 35.8813 3.08794Z" fill="url(#paint1_radial_65_46)" stroke="#FCD109" stroke-width="0.094"/>
<path d="M37.6831 10.7248C37.7819 10.746 37.168 10.1349 37.2881 10.1066C37.4012 10.1208 37.83 9.78791 38.3483 10.0595C38.8666 10.331 38.7381 10.9665 38.6793 11.2022C38.6093 11.4826 38.4308 11.6616 38.2894 11.803C38.2116 11.8666 38.0373 11.9655 37.9313 11.9585C37.9949 11.6121 37.79 11.5556 37.7758 11.2022L37.6831 10.7248Z" fill="url(#paint2_linear_65_46)" stroke="#FCD109" stroke-width="0.094"/>
<path d="M15.0881 11.108C15.074 11.4614 14.8689 11.5179 14.9326 11.8643C14.8266 11.8713 14.6521 11.7724 14.5745 11.7088C14.4331 11.5674 14.2548 11.3884 14.1847 11.108C14.1258 10.8724 13.9973 10.2369 14.5156 9.96526C15.0339 9.69363 15.4627 10.0265 15.5758 10.0124C15.696 10.0407 15.082 10.6518 15.1808 10.6306L15.0881 11.108Z" fill="url(#paint3_linear_65_46)" stroke="#FCD109" stroke-width="0.094"/>
<path d="M36.7572 15.2527C36.8635 15.1604 36.9342 15.1604 37.0755 15.1604C36.2273 16.9981 35.2378 18.8358 33.75 20.2666C33.5909 20.4086 33.4228 20.5403 33.2468 20.6609C33.0765 20.7855 32.9095 20.9024 32.7435 21.0215C32.5809 21.1344 32.4194 21.2479 32.262 21.3663C31.8591 21.5854 31.5057 21.8894 31.0604 22.0236C30.2476 22.4124 29.3713 22.6739 28.4878 22.8576C28.1414 22.9143 27.788 22.999 27.4346 23.0061C26.9964 23.1334 26.5299 23.0414 26.0846 23.0697C25.8372 23.1121 25.618 22.9707 25.3778 22.999C25.1693 22.9695 24.9613 22.9342 24.7545 22.8929C24.5447 22.85 24.3363 22.8006 24.1296 22.7446C20.8894 21.7337 17.7088 19.2599 16.7821 15.9142C16.7404 15.6889 16.7193 15.4602 16.7192 15.231C16.8181 15.4289 16.9207 15.6254 17.0268 15.8201C18.3449 18.6944 20.9601 20.9562 24.0498 21.6382C24.3005 21.7526 24.572 21.7125 24.8123 21.8115C25.0315 21.8115 25.2435 21.8044 25.4555 21.8751C26.1836 21.8892 26.9116 21.8822 27.6396 21.8822C27.7384 21.8892 27.8303 21.8398 27.9294 21.8186C29.1427 21.7774 30.3316 21.4465 31.4385 20.9446C31.66 20.8443 31.8782 20.7371 32.0925 20.624C32.2802 20.5252 32.4634 20.4182 32.6416 20.3032C32.8166 20.1904 32.9868 20.0702 33.1517 19.943C34.4603 18.9065 35.5912 17.5635 36.3592 16.0192C36.5053 15.7413 36.6391 15.4839 36.7572 15.2527Z" fill="#BDA727" stroke="#BDA727" stroke-width="0.094"/>
<path d="M35.6055 21.5358C37.7048 20.306 40.1363 19.7123 42.5537 19.5992C43.3382 19.5285 44.1299 19.5497 44.9073 19.6486C45.4163 19.7688 45.9393 19.9102 46.3422 20.2565C46.1372 20.2706 45.9393 20.1788 45.7343 20.1505C45.1547 20.0374 44.5539 20.0798 43.9673 20.0657C42.2637 20.0657 40.5463 20.2 38.8994 20.6665C38.0371 20.928 37.1748 21.2319 36.3902 21.6843C35.0331 22.4335 33.8103 23.423 32.8208 24.6105C31.0538 26.6391 30.0147 29.2118 29.5129 31.8342C29.2726 33.2406 28.9968 34.6401 28.7778 36.0537C28.4244 36.089 28.0639 36.0679 27.7105 36.0679C26.1555 36.0608 24.6005 36.0537 23.0455 36.0398C22.7133 36.0537 22.3881 35.9761 22.056 35.9972C19.2287 36.0113 16.4015 35.9901 13.5742 35.9901L13.6308 35.9689C15.73 35.7496 17.8363 35.5022 19.9356 35.2974C22.6001 35.2833 25.2579 35.2902 27.9226 35.2974C28.0072 35.2833 28.1558 35.3255 28.17 35.2054C28.3891 34.0605 28.6011 32.9155 28.8201 31.7703C29.1242 30.1802 29.6048 28.611 30.347 27.162C31.5132 24.8295 33.358 22.8504 35.6055 21.5358Z" fill="#0D69B3" stroke="#0D69B3" stroke-width="0.094"/>
<path d="M38.8994 20.6665C40.5462 20.2 42.2638 20.0657 43.9672 20.0657C44.5539 20.0798 45.1547 20.0374 45.7343 20.1505C45.9391 20.1788 46.137 20.2706 46.3421 20.2565C46.6743 20.5251 46.8722 20.9209 47.0207 21.3167C47.346 22.2568 47.5296 23.2322 47.6851 24.2147C47.6922 24.6105 47.7628 25.0558 47.5508 25.4163C47.3529 25.7697 46.9572 25.9393 46.5825 26.0453C45.2183 26.3987 43.7906 26.0665 42.4264 26.3987C41.3027 26.639 40.2565 27.261 39.5426 28.1587C38.7015 29.2047 38.2562 30.5051 38.0088 31.8059C37.818 32.9651 37.5776 34.1242 37.3868 35.2904C37.302 35.552 37.2526 35.8347 37.203 36.1105C38.5387 36.1317 39.8748 36.1105 41.2107 36.1245C41.7194 36.1105 42.2283 36.1386 42.7374 36.1032C43.0201 36.7536 42.9565 37.4887 42.8646 38.1743C42.7515 38.9447 42.5677 39.708 42.2214 40.4148C41.9315 41.0156 41.451 41.567 40.7936 41.779C40.4544 41.9133 40.0868 41.8851 39.7263 41.8851C38.5387 41.8851 37.3513 41.8991 36.164 41.8851C35.9732 42.7545 35.8459 43.645 35.6763 44.5286C35.3654 46.2461 35.0614 47.9707 34.7504 49.6954C34.7433 49.752 34.7362 49.8721 34.7362 49.9357V49.9428C31.6474 49.9428 28.5657 49.95 25.4769 49.9428C25.4841 49.9146 25.4911 49.865 25.4981 49.8368C25.5054 49.8014 25.5123 49.7237 25.5194 49.6813C25.5266 49.7379 25.5335 49.844 25.5407 49.8934C25.7315 49.9146 26.0779 50.0135 26.1274 49.7379C26.608 47.1368 27.0533 44.5216 27.5481 41.9204C27.3573 41.878 27.1593 41.878 26.9614 41.9133C26.9333 42.0123 26.9048 42.1112 26.8695 42.2101L26.9119 41.8921C24.9895 41.8849 23.0598 41.8921 21.1374 41.8849C20.6707 41.8709 20.1902 41.8849 19.7237 41.8284C18.925 41.793 18.1193 41.8213 17.3206 41.7435C16.331 41.7435 15.3486 41.6517 14.359 41.6517C13.5815 41.5739 12.797 41.6021 12.0124 41.5668C11.5036 41.5033 10.9804 41.5315 10.4646 41.5103C9.62349 41.4184 8.76824 41.4822 7.92713 41.3901C7.03655 41.3973 6.14596 41.3194 5.25537 41.2983C5.26244 41.2912 5.26951 41.2629 5.26951 41.2559C5.56637 41.2629 5.85616 41.2417 6.15303 41.2346C6.81037 41.1498 7.47477 41.2063 8.13211 41.1145C8.81772 41.1145 9.49626 41.0225 10.1819 41.0225C10.7897 40.9378 11.4047 40.9872 12.0124 40.9025C12.7264 40.9025 13.426 40.8105 14.14 40.8035C14.7267 40.7257 15.3204 40.7682 15.9071 40.6904C16.5927 40.6975 17.2712 40.5915 17.9568 40.5985C18.6283 40.5206 19.3138 40.5418 19.9853 40.4712C19.9218 40.2097 19.8722 39.9483 19.8158 39.6866C19.7663 39.524 19.5684 39.5593 19.4412 39.5382C17.9074 39.3189 16.3806 39.0999 14.8539 38.8878C14.9529 38.8099 15.0872 38.8453 15.2003 38.8313C16.3877 38.7392 17.5681 38.6332 18.7555 38.5486C19.0241 38.5344 19.2857 38.485 19.5542 38.4779C19.4341 38.1103 19.3634 37.7075 19.2008 37.3682C16.6635 36.9794 14.1259 36.6331 11.5955 36.2161C12.2528 36.1101 12.9173 36.0606 13.5746 35.9899C16.4019 35.9899 19.2291 36.0111 22.0564 35.9969C22.3884 35.9758 22.7137 36.0536 23.0459 36.0395C24.6009 36.0536 26.1559 36.0608 27.7109 36.0676C28.0643 36.0676 28.4248 36.0889 28.7782 36.0536C28.9973 34.6399 29.273 33.2404 29.5133 31.8339C30.0151 29.2115 31.0541 26.6388 32.8212 24.6103C33.8107 23.4228 35.0335 22.4333 36.3906 21.6841C37.1747 21.2319 38.0371 20.928 38.8994 20.6665Z" fill="#107BD4" stroke="#107BD4" stroke-width="0.094"/>
<path d="M37.3865 35.2904C38.7294 35.2976 40.0796 35.2833 41.4295 35.2976C41.9666 35.2976 42.518 35.5944 42.7371 36.1032C42.2282 36.1386 41.7193 36.1104 41.2104 36.1245C39.8745 36.1104 38.5384 36.1317 37.2027 36.1104C37.2522 35.8347 37.3015 35.552 37.3865 35.2904ZM26.9609 41.9133C27.1589 41.878 27.3569 41.878 27.5476 41.9204C27.0528 44.5215 26.6075 47.1368 26.1269 49.7379C26.0774 50.0134 25.731 49.9146 25.5402 49.8933C25.533 49.8439 25.5261 49.7379 25.519 49.6813C25.9643 47.1934 26.3954 44.6982 26.8691 42.2103C26.9044 42.1112 26.9327 42.0123 26.9609 41.9133Z" fill="#0D69B3" stroke="#0D69B3" stroke-width="0.094"/>
<path d="M38.005 10.9227C37.9484 10.8167 37.9414 10.6895 37.9414 10.5693L37.8848 10.5764C37.8001 10.2654 37.5386 9.96851 37.1993 9.95438C36.9448 9.93317 36.6267 9.94024 36.4784 10.1806C36.1957 10.5622 36.3298 11.0499 36.3158 11.4811C36.3158 11.5094 36.3229 11.5588 36.3229 11.5871C36.3229 11.8769 36.2876 12.1596 36.2381 12.4424C36.1957 12.5272 36.1745 12.6191 36.1745 12.718C36.0545 13.3824 35.814 14.0398 35.489 14.6406C35.4254 14.7254 35.3758 14.8173 35.3547 14.9162C35.1427 15.2838 34.8882 15.623 34.6267 15.9623C34.5842 15.9976 34.5489 16.0401 34.5135 16.0825C34.3297 16.3086 34.1319 16.4995 33.9268 16.6974C33.8774 16.7257 33.8421 16.761 33.7996 16.7893C33.5593 17.0225 33.2907 17.2416 33.0009 17.4183C32.9655 17.4395 32.9302 17.4678 32.8877 17.4961C31.0782 18.6906 28.8801 19.1854 26.7384 19.2066C24.922 19.2631 23.0912 18.8744 21.4514 18.0898C21.4232 18.0757 21.3526 18.0474 21.3242 18.0333C21.0486 17.8848 20.7658 17.7576 20.5113 17.5738C20.4548 17.5456 20.3982 17.5102 20.3346 17.482C20.0731 17.3265 19.8257 17.1568 19.5925 16.9589C19.5147 16.8882 19.4299 16.8317 19.3451 16.7681C19.0906 16.5631 18.8291 16.344 18.6101 16.0966C18.5536 16.033 18.4969 15.9764 18.4405 15.9199C17.6702 15.1212 17.0694 14.1458 16.7513 13.0856C16.4473 12.2445 16.4898 11.3256 16.4545 10.4421C16.1999 10.0533 15.6628 9.83422 15.2388 10.0745C15.0621 10.2018 15.0408 10.435 14.9066 10.5976C14.6874 12.9301 15.6841 15.2555 17.2744 16.9377C17.2744 16.9943 17.3027 17.0296 17.3523 17.0508C17.635 17.3123 17.9105 17.5809 18.1932 17.8354C18.2427 17.8848 18.2993 17.9343 18.3629 17.9767C18.6456 18.21 18.9495 18.422 19.2464 18.6411C19.3029 18.6835 19.3595 18.7189 19.4231 18.7542C19.8118 18.9804 20.1793 19.249 20.5964 19.4045C20.6247 19.4257 20.6742 19.461 20.7024 19.4752C22.0454 20.1184 23.4944 20.5566 24.9787 20.698C25.1412 20.698 25.3038 20.7121 25.4664 20.7474C26.1732 20.7899 26.88 20.7686 27.5868 20.7545C29.7707 20.5637 32.0256 20.0336 33.8492 18.7472L33.8704 18.7754C33.9269 18.726 33.9764 18.6835 34.033 18.6411C34.3229 18.4291 34.6056 18.2029 34.8884 17.9697C34.9518 17.9202 35.0225 17.8636 35.0863 17.8C35.3972 17.4608 35.7577 17.1498 36.0193 16.761L36.0617 16.7822C36.0829 16.7469 36.1182 16.6762 36.1396 16.6408C36.3797 16.3157 36.599 15.9764 36.811 15.6372C36.825 15.616 36.8604 15.5806 36.8745 15.5594L36.8464 15.5311C36.8676 15.5029 36.9171 15.4463 36.9383 15.4181C37.327 14.6264 37.6732 13.7994 37.7935 12.923C37.843 12.9018 37.8713 12.8594 37.8713 12.8099C37.8785 12.5272 37.9773 12.2586 37.9491 11.9759C38.012 11.6295 38.0191 11.2761 38.005 10.9227Z" fill="white" stroke="white" stroke-width="0.094"/>
<path d="M14.3633 10.6839C14.9362 10.8637 16.2525 10.4115 16.6251 10.8253M14.6932 12.4274C15.2422 12.2363 16.4195 11.784 16.9078 12.0504M15.2586 14.1709C15.524 14.2568 16.0472 13.7905 16.3071 13.6539C16.6937 13.4506 17.0904 13.2947 17.5204 13.2285M16.1068 16.0086C16.3805 15.6196 16.7082 15.2965 17.1037 15.0201C17.4957 14.7463 18.5681 14.0147 19.0283 14.2651M16.9078 17.328C17.2185 17.081 17.345 16.644 17.6713 16.3845C18.066 16.0705 18.6707 16.0142 19.0754 15.8201M18.239 18.3057C18.3319 17.6223 19.0258 16.7977 19.6879 16.8567M19.2638 19.26C19.6137 19.2249 19.9097 18.4417 20.1463 18.1763C20.5008 17.7787 20.8681 17.6565 21.3371 17.5164M21.29 20.1081C21.2674 19.6136 21.7783 18.1958 22.3738 18.2704M22.7979 20.5794C22.7731 19.995 23.0753 18.2372 23.7875 18.1762M24.3529 21.5218C24.2178 20.7045 24.2266 19.5223 24.8711 18.9301M26.2849 21.7103C26.213 21.029 25.5361 19.652 26.2849 19.1186M28.3581 21.239C28.035 20.8644 27.8471 19.3864 27.9811 18.9772M30.3372 20.9092C30.088 20.4566 29.7791 20.0316 29.6847 19.5062C29.6283 19.1922 29.7272 18.745 29.6775 18.506M31.9865 20.2024C31.4459 19.8487 31.2958 18.549 31.4681 17.9877M33.5886 19.4955C33.2041 18.6706 32.794 18.031 32.7875 17.0924M35.1436 17.9877C34.546 17.5857 33.7835 16.855 33.8713 16.0557M36.7929 16.7154C35.8849 16.5143 34.7954 15.7019 34.2483 14.9719M37.5467 15.1604C36.8918 15.02 34.7278 14.1757 34.8608 13.3227M38.2536 13.5112C37.3411 13.1767 36.0135 12.8759 35.2849 12.2389M38.7247 12.0033C38.1499 12.0525 37.3265 11.7742 36.7423 11.6734C36.0936 11.5615 35.4921 11.3429 34.8608 11.2022M38.1593 10.5426C37.0506 10.6089 36.0104 10.2296 35.0022 9.8829" stroke="#D1D1D1" stroke-width="2"/>
</g>
<defs>
<linearGradient id="paint0_linear_65_46" x1="26.4416" y1="8.4526" x2="26.4416" y2="49.9968" gradientUnits="userSpaceOnUse">
<stop stop-color="#F7E830"/>
<stop offset="1" stop-color="#FDCB06"/>
</linearGradient>
<radialGradient id="paint1_radial_65_46" cx="0" cy="0" r="1" gradientUnits="userSpaceOnUse" gradientTransform="translate(26.2251 27.4008) scale(33.7914 33.7914)">
<stop offset="0.596" stop-color="#F29405"/>
<stop offset="0.736" stop-color="#F7D01E"/>
<stop offset="1" stop-color="#FDCB06"/>
</radialGradient>
<linearGradient id="paint2_linear_65_46" x1="38.0019" y1="9.95196" x2="38.0137" y2="11.9192" gradientUnits="userSpaceOnUse">
<stop stop-color="#FADA1C"/>
<stop offset="1" stop-color="#FDCB06"/>
</linearGradient>
<linearGradient id="paint3_linear_65_46" x1="14.8619" y1="9.85775" x2="14.85" y2="11.825" gradientUnits="userSpaceOnUse">
<stop stop-color="#FADA1C"/>
<stop offset="1" stop-color="#FDCB06"/>
</linearGradient>
<clipPath id="clip0_65_46">
<rect width="52" height="50" fill="white"/>
</clipPath>
</defs>
</svg>
