<svg width="193" height="54" viewBox="0 0 193 54" fill="none" xmlns="http://www.w3.org/2000/svg">
<g clip-path="url(#clip0_70_18)">
<path d="M51.3946 12.4517C51.3764 12.3909 51.358 12.3301 51.3338 12.2693C36.9336 12.2754 22.5395 12.2693 8.14533 12.2754C8.10886 12.3179 8.08454 12.3605 8.07847 12.4152C8.07847 23.5816 8.07847 34.7419 8.07227 45.9084C8.16344 46.504 8.49169 47.045 8.92947 47.4523C8.94771 47.4584 8.99026 47.4643 9.00849 47.4705C9.2334 47.7074 9.55557 47.8231 9.8595 47.9325C10.0844 47.9204 10.3032 48.0176 10.5281 47.9933H28.3993C28.5695 47.9872 28.7456 48.0176 28.9097 47.9508C28.9159 47.9266 28.9219 47.8839 28.928 47.8596C28.9342 47.8292 28.9401 47.7623 28.9463 47.7259C29.3293 45.5863 29.7 43.4405 30.1073 41.3009L30.1438 41.0274C28.4905 41.0212 26.831 41.0274 25.1777 41.0212C24.7764 41.0091 24.3632 41.0212 23.9619 40.9725C23.2751 40.9421 22.5821 40.9664 21.8953 40.8996C21.0443 40.8996 20.1993 40.8205 19.3483 40.8205C18.6797 40.7536 18.005 40.778 17.3302 40.7476C16.8927 40.693 16.4428 40.7172 15.9991 40.6989C15.2758 40.62 14.5403 40.6747 13.8169 40.5956C13.051 40.6018 12.2851 40.5349 11.5192 40.5166C11.5253 40.5105 11.5314 40.4862 11.5314 40.4801C11.7867 40.4862 12.0359 40.468 12.2912 40.4619C12.8565 40.3889 13.4279 40.4376 13.9932 40.3585C14.5828 40.3585 15.1664 40.2796 15.756 40.2796C16.2788 40.2066 16.8076 40.2492 17.3302 40.1762C17.9443 40.1762 18.546 40.0972 19.16 40.0911C19.6645 40.0242 20.1751 40.0607 20.6797 39.9938C21.2693 39.9999 21.8528 39.9087 22.4425 39.9148C23.0199 39.8479 23.6094 39.866 24.1869 39.8052C24.1323 39.5805 24.0896 39.3556 24.0411 39.1305C23.9986 38.9908 23.8284 39.0212 23.719 39.0029C22.3999 38.8143 21.0869 38.6261 19.774 38.4437C19.8591 38.3767 19.9745 38.4071 20.0718 38.395C21.093 38.3159 22.1081 38.2247 23.1293 38.1519C23.3603 38.1398 23.5852 38.0972 23.8162 38.0911C23.7129 37.775 23.6521 37.4285 23.5123 37.1368C21.3302 36.8025 19.1479 36.5046 16.9717 36.1459C17.537 36.0547 18.1084 36.0123 18.6737 35.9515L18.7224 35.9332C20.5277 35.7446 22.3391 35.5319 24.1445 35.3557C26.436 35.3436 28.7217 35.3495 31.0133 35.3557C31.0861 35.3436 31.2139 35.3799 31.2261 35.2766C31.4145 34.2919 31.5968 33.3073 31.7852 32.3224C32.0465 30.9548 32.4599 29.6053 33.0981 28.3592C34.1011 26.3533 35.6876 24.6513 37.6205 23.5207C39.4259 22.463 41.517 21.9524 43.5959 21.8552C44.2706 21.7944 44.9514 21.8126 45.6201 21.8977C46.0577 22.001 46.5075 22.1226 46.854 22.4205C47.1397 22.6515 47.3099 22.9919 47.4376 23.3323C47.7173 24.1407 47.8752 24.9796 48.009 25.8245C48.015 26.1649 48.0758 26.5478 47.8935 26.8579C47.7233 27.1618 47.383 27.3077 47.0608 27.3988C45.8875 27.7028 44.6597 27.417 43.4865 27.7028C42.5201 27.9095 41.6204 28.4443 41.0064 29.2164C40.2831 30.1159 39.9001 31.2343 39.6874 32.3529C39.5233 33.3498 39.3166 34.3466 39.1524 35.3496C40.3074 35.3558 41.4684 35.3435 42.6294 35.3558C43.0914 35.3558 43.5655 35.6111 43.7539 36.0487C43.9971 36.608 43.9424 37.2402 43.8634 37.8298C43.7661 38.4923 43.6081 39.1488 43.3102 39.7566C43.0609 40.2733 42.6476 40.7475 42.0823 40.9299C41.7906 41.0453 41.4745 41.021 41.1645 41.021C40.1431 41.021 39.1219 41.0331 38.1008 41.021C37.9367 41.7688 37.8273 42.5346 37.6814 43.2944C37.4141 44.7715 37.1526 46.2547 36.8851 47.7379C36.879 47.7866 36.873 47.8899 36.873 47.9446C37.3532 47.9689 37.8334 47.9446 38.3136 47.9567C41.8757 47.9567 45.4438 47.9505 49.0119 47.9567C49.3949 47.9689 49.7839 47.8777 50.1182 47.6892C50.3188 47.6163 50.4404 47.44 50.6167 47.3428C50.7869 47.2455 50.8355 47.0451 50.9814 46.9173C51.1395 46.6377 51.3036 46.346 51.3157 46.0176C51.334 46.0176 51.3826 46.0115 51.4069 46.0055C51.3884 34.821 51.4068 23.6363 51.3946 12.4517Z" fill="url(#paint0_linear_70_18)" stroke="#FCD109" stroke-width="0.094"/>
<path d="M13.7438 5.09653C14.2605 4.93241 14.8015 5.04182 15.3304 5.00535C25.2568 5.01143 35.1832 5.00535 45.1094 5.00535C45.6991 4.98104 46.2157 5.31536 46.7628 5.48556C47.2005 5.66184 47.6564 5.80165 48.094 5.99009C48.1852 6.02656 48.2521 6.10558 48.3188 6.17245C48.3127 6.97483 48.3188 7.78328 48.3188 8.59174C48.325 8.80449 48.2884 9.02332 48.3614 9.22999C48.4891 9.24823 48.5559 9.34549 48.6411 9.42451C49.0423 9.60687 49.3826 9.90472 49.7473 10.1479C50.2944 10.5369 50.878 10.8773 51.4128 11.2785C51.4371 11.4365 51.4189 11.6007 51.3703 11.7465C51.3157 11.9167 51.352 12.0991 51.3338 12.2693C36.9336 12.2754 22.5394 12.2693 8.14528 12.2754C8.11489 12.0748 8.16959 11.8742 8.08449 11.6858C8.07234 11.5277 8.01763 11.321 8.16959 11.2116C8.77745 10.7861 9.42179 10.4032 10.0174 9.95335C10.3883 9.71628 10.7468 9.47314 11.1054 9.22999C11.1784 9.10842 11.1541 8.95645 11.1541 8.82272C11.1541 7.94132 11.1541 7.05993 11.1601 6.17853C11.3668 5.91107 11.7256 5.88067 12.0112 5.74694C12.5889 5.52811 13.1724 5.31536 13.7438 5.09653ZM13.7803 5.19987C13.0022 5.49772 12.2181 5.78342 11.44 6.08127C11.3367 6.0995 11.2818 6.19068 11.2273 6.26971C11.2333 6.31833 11.2394 6.40343 11.2394 6.45206C11.2332 7.1815 11.2394 7.91093 11.2332 8.64037C11.2394 8.82272 11.215 9.00508 11.2818 9.16921C11.2028 9.24823 11.1178 9.32725 11.0205 9.38804C10.1391 9.95943 9.28806 10.5794 8.40666 11.1448C8.25469 11.2359 8.08449 11.3575 8.13312 11.5581C8.10273 11.6675 8.15744 11.7587 8.27293 11.7283C10.1816 11.7161 12.0842 11.7405 13.993 11.7101C16.8317 11.7101 19.6644 11.7161 22.5031 11.7101L22.5456 11.6918C22.6733 11.7222 22.8008 11.7101 22.9345 11.7101C28.077 11.7101 33.2195 11.7161 38.3681 11.7101C39.985 11.7161 41.608 11.7101 43.231 11.7101C45.9055 11.7101 48.5863 11.7344 51.2609 11.7222C51.3399 11.704 51.3642 11.6493 51.3338 11.552C51.3276 11.4548 51.3642 11.321 51.2609 11.2602C50.8354 11.0597 50.4706 10.7496 50.0634 10.5065C49.9176 10.3849 49.729 10.3181 49.6196 10.1539C49.2002 9.91688 48.8112 9.6251 48.3978 9.36372C48.3187 9.31509 48.2579 9.23607 48.1912 9.16921C48.2276 9.04155 48.2398 8.90175 48.2398 8.76802C48.2337 7.99603 48.2398 7.22405 48.2337 6.45206C48.2519 6.33049 48.2458 6.19068 48.1363 6.11166C47.4069 5.85028 46.6837 5.57066 45.9602 5.30321C45.7353 5.19379 45.4861 5.133 45.2429 5.09653H14.1751C14.0417 5.10261 13.914 5.16948 13.7803 5.19987Z" fill="#F8F3B5"/>
<path d="M13.7438 5.09653C14.2605 4.93241 14.8015 5.04182 15.3304 5.00535C25.2568 5.01143 35.1832 5.00535 45.1094 5.00535C45.6991 4.98104 46.2157 5.31536 46.7628 5.48556C47.2005 5.66184 47.6564 5.80165 48.094 5.99009C48.1852 6.02656 48.2521 6.10558 48.3188 6.17245C48.3127 6.97482 48.3188 7.78328 48.3188 8.59174C48.325 8.80449 48.2884 9.02332 48.3614 9.22999C48.4891 9.24823 48.5559 9.34549 48.6411 9.42451C49.0423 9.60687 49.3826 9.90472 49.7473 10.1479C50.2944 10.5369 50.878 10.8773 51.4128 11.2785C51.4371 11.4365 51.4189 11.6007 51.3703 11.7465C51.3157 11.9167 51.352 12.0991 51.3338 12.2693C36.9336 12.2754 22.5394 12.2693 8.14528 12.2754C8.11489 12.0748 8.16959 11.8742 8.08449 11.6858C8.07234 11.5277 8.01763 11.321 8.16959 11.2116C8.77745 10.7861 9.42179 10.4032 10.0174 9.95335C10.3883 9.71628 10.7468 9.47314 11.1054 9.22999C11.1784 9.10842 11.1541 8.95645 11.1541 8.82272C11.1541 7.94132 11.1541 7.05993 11.1601 6.17853C11.3668 5.91107 11.7256 5.88067 12.0112 5.74694C12.5889 5.52811 13.1724 5.31536 13.7438 5.09653M13.7803 5.19987C13.0022 5.49772 12.2181 5.78342 11.44 6.08127C11.3367 6.0995 11.2818 6.19068 11.2273 6.26971C11.2333 6.31833 11.2394 6.40343 11.2394 6.45206C11.2332 7.1815 11.2394 7.91093 11.2332 8.64037C11.2394 8.82272 11.215 9.00508 11.2818 9.16921C11.2028 9.24823 11.1178 9.32725 11.0205 9.38804C10.1391 9.95943 9.28806 10.5794 8.40666 11.1448C8.25469 11.2359 8.08449 11.3575 8.13312 11.5581C8.10273 11.6675 8.15744 11.7587 8.27293 11.7283C10.1816 11.7161 12.0842 11.7405 13.993 11.7101C16.8317 11.7101 19.6644 11.7161 22.5031 11.7101L22.5456 11.6918C22.6733 11.7222 22.8008 11.7101 22.9345 11.7101C28.077 11.7101 33.2195 11.7161 38.3681 11.7101C39.985 11.7161 41.608 11.7101 43.231 11.7101C45.9055 11.7101 48.5863 11.7344 51.2609 11.7222C51.3399 11.704 51.3642 11.6493 51.3338 11.552C51.3276 11.4548 51.3642 11.321 51.2609 11.2602C50.8354 11.0597 50.4706 10.7496 50.0634 10.5065C49.9176 10.3849 49.729 10.3181 49.6196 10.1539C49.2002 9.91688 48.8112 9.6251 48.3978 9.36372C48.3187 9.31509 48.2579 9.23607 48.1912 9.16921C48.2276 9.04155 48.2398 8.90175 48.2398 8.76802C48.2337 7.99603 48.2398 7.22405 48.2337 6.45206C48.2519 6.33049 48.2458 6.19068 48.1363 6.11166C47.4069 5.85028 46.6837 5.57066 45.9602 5.30321C45.7353 5.19379 45.4861 5.133 45.2429 5.09653H14.1751C14.0417 5.10261 13.914 5.16948 13.7803 5.19987V5.19987Z" stroke="#F8F3B5" stroke-width="0.094"/>
<path d="M11.2396 6.45206C11.7745 6.67697 12.3458 6.80462 12.8869 7.02345C13.1787 7.13895 13.2699 7.45504 13.3975 7.71034C13.2697 7.83799 13.1178 7.94132 12.9658 8.03858C12.4066 8.41546 11.8352 8.78017 11.282 9.1692C11.2152 9.00508 11.2396 8.82272 11.2334 8.64036C11.2396 7.91093 11.2335 7.1815 11.2396 6.45206ZM46.5866 7.02345C47.1276 6.8107 47.6929 6.66482 48.234 6.45206C48.2401 7.22405 48.234 7.99603 48.2401 8.76802C48.2401 8.90174 48.2279 9.04155 48.1914 9.1692C47.7173 8.84096 47.2371 8.53095 46.763 8.20878C46.532 8.03858 46.2767 7.91093 46.07 7.70426C46.1976 7.44896 46.2949 7.13895 46.5866 7.02345Z" fill="#F7B402" stroke="#F7B402" stroke-width="0.094"/>
<path d="M20.5158 7.27267C21.1845 7.11463 21.9321 7.71033 21.8774 8.40937C21.8835 9.09625 21.16 9.65549 20.4976 9.49744C20.2301 9.40626 19.9747 9.26646 19.8107 9.02939C19.5979 8.70722 19.5492 8.27564 19.7195 7.92308C19.8411 7.58268 20.1693 7.35169 20.5158 7.27267ZM37.8581 7.65562C38.1377 7.34561 38.5814 7.16933 38.9948 7.27875C39.3048 7.36993 39.6087 7.57052 39.7425 7.87445C40.0099 8.39721 39.8032 9.10233 39.2805 9.37587C38.8184 9.63117 38.235 9.5096 37.8824 9.1388C37.5238 8.73154 37.4993 8.06289 37.8581 7.65562Z" fill="#BDA727" stroke="#BDA727" stroke-width="0.094"/>
<path d="M12.966 8.03858C13.1179 7.94132 13.2699 7.83799 13.3977 7.71034L13.4401 7.75289C13.4826 8.06898 13.4523 8.39114 13.4644 8.70723C13.4462 9.65549 13.4826 10.6098 13.4401 11.5581C11.6712 11.5581 9.90246 11.5459 8.13346 11.5581C8.08483 11.3575 8.25504 11.2359 8.407 11.1448C9.2884 10.5794 10.1394 9.95943 11.0208 9.38804C11.1182 9.32725 11.2032 9.24823 11.2822 9.1692C11.8353 8.78017 12.4067 8.41546 12.966 8.03858ZM46.0092 7.91701C46.0092 7.83799 46.0276 7.77112 46.07 7.70426C46.2767 7.91093 46.5321 8.03858 46.763 8.20878C47.2371 8.53095 47.7173 8.84096 48.1914 9.1692C48.2583 9.23607 48.3191 9.31509 48.398 9.36372C48.8114 9.6251 49.2004 9.91688 49.6199 10.1539C49.7293 10.3181 49.9177 10.3849 50.0636 10.5065C50.4709 10.7496 50.8356 11.0597 51.2611 11.2602C51.3645 11.321 51.328 11.4548 51.3341 11.552C49.5651 11.5581 47.8023 11.5459 46.0335 11.5581C46.0031 11.315 46.0214 11.0718 46.0153 10.8347C46.0154 9.86217 46.0032 8.88959 46.0092 7.91701Z" fill="#F7E62D" stroke="#F7E62D" stroke-width="0.094"/>
<path d="M51.3342 11.552C49.5652 11.5581 47.8024 11.5459 46.0336 11.5581C46.0032 11.315 46.0215 11.0718 46.0154 10.8347C46.0154 9.86217 46.0032 8.88959 46.0092 7.91701C46.0092 7.83799 46.0276 7.77112 46.07 7.70426C46.1978 7.44896 46.2949 7.13895 46.5867 7.02345C47.1277 6.8107 47.693 6.66481 48.2341 6.45206C48.2523 6.33049 48.2463 6.19068 48.1367 6.11166C47.4073 5.85028 46.6841 5.57066 45.9606 5.3032C45.7357 5.19379 45.4864 5.133 45.2433 5.09653H14.1755C14.0418 5.10261 13.9142 5.16947 13.7804 5.19987C13.0024 5.49772 12.2182 5.78341 11.4402 6.08127C11.3368 6.0995 11.282 6.19068 11.2274 6.2697C11.2335 6.31833 11.2396 6.40343 11.2396 6.45206C11.7745 6.67697 12.3458 6.80462 12.8869 7.02345C13.1786 7.13895 13.2698 7.45503 13.3975 7.71034L13.4399 7.75289C13.4825 8.06897 13.4521 8.39114 13.4642 8.70723C13.446 9.65549 13.4825 10.6098 13.4399 11.5581C11.671 11.5581 9.90228 11.5459 8.13329 11.5581C8.10289 11.6675 8.1576 11.7587 8.27309 11.7283C10.1818 11.7161 12.0844 11.7405 13.9932 11.7101C16.8319 11.7101 19.6645 11.7161 22.5032 11.7101L22.5458 11.6918C22.6734 11.7222 22.801 11.7101 22.9347 11.7101C28.0772 11.7101 33.2197 11.7161 38.3682 11.7101C39.9852 11.7161 41.6082 11.7101 43.2311 11.7101C45.9057 11.7101 48.5864 11.7344 51.261 11.7222C51.3403 11.704 51.3646 11.6493 51.3342 11.552ZM19.7194 7.92309C19.8409 7.58268 20.169 7.3517 20.5157 7.27268C21.1843 7.11463 21.932 7.71034 21.8773 8.40938C21.8833 9.09626 21.1599 9.65549 20.4974 9.49745C20.23 9.40627 19.9745 9.26646 19.8105 9.0294C19.5978 8.70723 19.5492 8.27565 19.7194 7.92309ZM37.8579 7.65563C38.1375 7.34562 38.5813 7.16934 38.9946 7.27875C39.3046 7.36993 39.6086 7.57053 39.7423 7.87446C40.0097 8.39722 39.8031 9.10234 39.2803 9.37588C38.8182 9.63118 38.2348 9.50961 37.8822 9.13881C37.5236 8.73154 37.4992 8.0629 37.8579 7.65563Z" fill="url(#paint1_radial_70_18)" stroke="#FCD109" stroke-width="0.094"/>
<path d="M39.4073 14.2233C39.4923 14.2416 38.9643 13.716 39.0677 13.6917C39.1649 13.7038 39.5337 13.4176 39.9795 13.6511C40.4251 13.8847 40.3146 14.4312 40.2641 14.6339C40.2039 14.8751 40.0503 15.029 39.9288 15.1506C39.8619 15.2053 39.712 15.2904 39.6208 15.2843C39.6755 14.9864 39.4992 14.9378 39.4871 14.6339L39.4073 14.2233Z" fill="url(#paint2_linear_70_18)" stroke="#FCD109" stroke-width="0.094"/>
<path d="M19.9759 14.5529C19.9638 14.8568 19.7874 14.9054 19.8422 15.2033C19.751 15.2094 19.601 15.1243 19.5342 15.0695C19.4126 14.948 19.2593 14.7941 19.199 14.5529C19.1484 14.3503 19.0378 13.8037 19.4836 13.5701C19.9293 13.3365 20.2981 13.6228 20.3954 13.6107C20.4987 13.635 19.9707 14.1605 20.0557 14.1423L19.9759 14.5529Z" fill="url(#paint3_linear_70_18)" stroke="#FCD109" stroke-width="0.094"/>
<path d="M38.611 18.1173C38.7025 18.0379 38.7632 18.0379 38.8848 18.0379C38.1554 19.6183 37.3044 21.1988 36.0249 22.4293C35.888 22.5514 35.7435 22.6647 35.5922 22.7683C35.4457 22.8755 35.3021 22.976 35.1593 23.0785C35.0195 23.1755 34.8805 23.2732 34.7452 23.375C34.3987 23.5634 34.0948 23.8249 33.7119 23.9403C33.0128 24.2746 32.2592 24.4995 31.4994 24.6576C31.2015 24.7063 30.8976 24.7791 30.5937 24.7852C30.2168 24.8947 29.8156 24.8156 29.4326 24.8399C29.2199 24.8764 29.0313 24.7548 28.8248 24.7791C28.6455 24.7538 28.4666 24.7234 28.2888 24.6879C28.1083 24.651 27.9291 24.6085 27.7514 24.5603C24.9648 23.691 22.2294 21.5635 21.4325 18.6862C21.3966 18.4924 21.3785 18.2958 21.3784 18.0987C21.4635 18.2689 21.5517 18.4379 21.6429 18.6053C22.7765 21.0772 25.0256 23.0224 27.6827 23.6089C27.8983 23.7072 28.1318 23.6728 28.3385 23.7579C28.5269 23.7579 28.7093 23.7518 28.8916 23.8126C29.5177 23.8247 30.1438 23.8187 30.7699 23.8187C30.8549 23.8247 30.9339 23.7822 31.0192 23.764C32.0626 23.7286 33.085 23.444 34.037 23.0124C34.2275 22.9261 34.4151 22.8339 34.5995 22.7366C34.7608 22.6517 34.9184 22.5596 35.0716 22.4608C35.2222 22.3637 35.3685 22.2604 35.5103 22.151C36.6357 21.2596 37.6083 20.1046 38.2687 18.7765C38.3945 18.5375 38.5095 18.3162 38.611 18.1173Z" fill="#BDA727" stroke="#BDA727" stroke-width="0.094"/>
<path d="M37.6207 23.5208C39.4261 22.4631 41.5173 21.9525 43.5961 21.8553C44.2709 21.7945 44.9517 21.8127 45.6203 21.8978C46.058 22.0012 46.5078 22.1227 46.8543 22.4206C46.678 22.4327 46.5078 22.3537 46.3315 22.3294C45.8331 22.2321 45.3164 22.2686 44.8119 22.2565C43.3468 22.2565 41.8698 22.372 40.4535 22.7731C39.7119 22.9981 38.9703 23.2594 38.2956 23.6485C37.1285 24.2928 36.0769 25.1438 35.2259 26.165C33.7062 27.9096 32.8127 30.1222 32.3811 32.3774C32.1744 33.5869 31.9372 34.7904 31.7489 36.0062C31.445 36.0366 31.135 36.0184 30.8311 36.0184C29.4938 36.0123 28.1565 36.0062 26.8192 35.9942C26.5335 36.0062 26.2537 35.9395 25.9682 35.9576C23.5367 35.9697 21.1053 35.9515 18.6738 35.9515L18.7225 35.9332C20.5278 35.7447 22.3392 35.5319 24.1446 35.3557C26.4361 35.3437 28.7218 35.3495 31.0134 35.3557C31.0862 35.3437 31.214 35.3799 31.2262 35.2767C31.4146 34.292 31.597 33.3073 31.7853 32.3225C32.0468 30.955 32.4601 29.6054 33.0984 28.3593C34.1013 26.3534 35.6879 24.6514 37.6207 23.5208Z" fill="#0D69B3" stroke="#0D69B3" stroke-width="0.094"/>
<path d="M40.4534 22.7731C41.8697 22.372 43.3468 22.2565 44.8117 22.2565C45.3162 22.2686 45.8329 22.2321 46.3314 22.3294C46.5075 22.3537 46.6777 22.4327 46.8541 22.4206C47.1398 22.6516 47.31 22.992 47.4377 23.3324C47.7174 24.1408 47.8753 24.9797 48.0091 25.8246C48.0151 26.165 48.0759 26.548 47.8936 26.858C47.7234 27.1619 47.3831 27.3078 47.0609 27.399C45.8876 27.7029 44.6598 27.4171 43.4866 27.7029C42.5202 27.9096 41.6205 28.4444 41.0065 29.2165C40.2832 30.1161 39.9002 31.2344 39.6875 32.353C39.5234 33.3499 39.3167 34.3468 39.1525 35.3497C39.0796 35.5747 39.0371 35.8179 38.9945 36.055C40.1432 36.0733 41.2922 36.055 42.4411 36.0671C42.8786 36.055 43.3163 36.0792 43.754 36.0488C43.9972 36.6081 43.9425 37.2403 43.8635 37.8299C43.7662 38.4925 43.6082 39.1489 43.3103 39.7567C43.061 40.2734 42.6477 40.7476 42.0824 40.93C41.7907 41.0455 41.4746 41.0212 41.1646 41.0212C40.1432 41.0212 39.122 41.0333 38.1009 41.0212C37.9368 41.7689 37.8274 42.5347 37.6815 43.2946C37.4142 44.7716 37.1527 46.2548 36.8852 47.738C36.8791 47.7867 36.8731 47.89 36.8731 47.9447V47.9508C34.2167 47.9508 31.5664 47.957 28.9101 47.9508C28.9162 47.9266 28.9222 47.8839 28.9283 47.8596C28.9345 47.8292 28.9405 47.7623 28.9466 47.7259C28.9527 47.7746 28.9587 47.8658 28.9649 47.9083C29.129 47.9266 29.4269 48.0116 29.4694 47.7746C29.8828 45.5376 30.2657 43.2885 30.6912 41.0515C30.5272 41.0151 30.3569 41.0151 30.1867 41.0455C30.1625 41.1306 30.1381 41.2156 30.1077 41.3007L30.1442 41.0272C28.4909 41.021 26.8313 41.0272 25.1781 41.021C24.7767 41.009 24.3635 41.021 23.9623 40.9724C23.2754 40.942 22.5825 40.9663 21.8956 40.8994C21.0446 40.8994 20.1997 40.8204 19.3487 40.8204C18.68 40.7536 18.0053 40.7778 17.3306 40.7474C16.893 40.6929 16.4431 40.717 15.9995 40.6989C15.2761 40.6198 14.5406 40.6747 13.8172 40.5955C13.0513 40.6017 12.2854 40.5347 11.5195 40.5165C11.5256 40.5104 11.5317 40.4861 11.5317 40.48C11.787 40.4861 12.0362 40.4678 12.2915 40.4617C12.8568 40.3889 13.4282 40.4374 13.9935 40.3585C14.5832 40.3585 15.1667 40.2794 15.7563 40.2794C16.2791 40.2065 16.8079 40.249 17.3306 40.1761C17.9446 40.1761 18.5463 40.097 19.1603 40.091C19.6649 40.0241 20.1755 40.0606 20.68 39.9937C21.2696 39.9998 21.8532 39.9086 22.4428 39.9147C23.0203 39.8477 23.6098 39.866 24.1872 39.8052C24.1327 39.5803 24.09 39.3555 24.0415 39.1305C23.9989 38.9906 23.8287 39.021 23.7193 39.0028C22.4002 38.8143 21.0873 38.6259 19.7743 38.4435C19.8594 38.3765 19.9749 38.4069 20.0721 38.395C21.0933 38.3157 22.1085 38.2246 23.1297 38.1518C23.3607 38.1396 23.5856 38.0971 23.8166 38.091C23.7132 37.7749 23.6524 37.4285 23.5126 37.1366C21.3305 36.8023 19.1482 36.5044 16.972 36.1459C17.5374 36.0547 18.1087 36.0121 18.6741 35.9513C21.1055 35.9513 23.5369 35.9696 25.9684 35.9574C26.254 35.9392 26.5337 36.0061 26.8194 35.994C28.1567 36.0061 29.494 36.0123 30.8313 36.0181C31.1352 36.0181 31.4452 36.0364 31.7491 36.0061C31.9376 34.7903 32.1747 33.5867 32.3813 32.3772C32.8129 30.1219 33.7065 27.9094 35.2261 26.1649C36.0771 25.1436 37.1287 24.2926 38.2958 23.6483C38.9702 23.2594 39.7118 22.9981 40.4534 22.7731Z" fill="#107BD4" stroke="#107BD4" stroke-width="0.094"/>
<path d="M39.1523 35.3497C40.3072 35.3559 41.4684 35.3437 42.6292 35.3559C43.0912 35.3559 43.5654 35.6112 43.7538 36.0488C43.3161 36.0792 42.8785 36.055 42.4408 36.0671C41.292 36.055 40.143 36.0733 38.9942 36.055C39.0368 35.8179 39.0792 35.5747 39.1523 35.3497ZM30.1863 41.0455C30.3565 41.0151 30.5269 41.0151 30.6909 41.0515C30.2653 43.2885 29.8824 45.5376 29.4691 47.7746C29.4265 48.0115 29.1286 47.9266 28.9645 47.9083C28.9583 47.8658 28.9524 47.7746 28.9463 47.7259C29.3292 45.5863 29.6999 43.4405 30.1073 41.3009C30.1377 41.2156 30.162 41.1306 30.1863 41.0455Z" fill="#0D69B3" stroke="#0D69B3" stroke-width="0.094"/>
<path d="M39.6845 14.3935C39.6358 14.3024 39.6298 14.1929 39.6298 14.0896L39.5811 14.0957C39.5083 13.8282 39.2834 13.5729 38.9916 13.5608C38.7727 13.5425 38.4991 13.5486 38.3716 13.7553C38.1285 14.0835 38.2438 14.5029 38.2317 14.8737C38.2317 14.8981 38.2379 14.9406 38.2379 14.9649C38.2379 15.2141 38.2075 15.4573 38.1649 15.7004C38.1285 15.7734 38.1103 15.8524 38.1103 15.9375C38.007 16.5089 37.8002 17.0742 37.5207 17.5909C37.466 17.6638 37.4234 17.7428 37.4052 17.8279C37.2229 18.144 37.004 18.4358 36.7791 18.7276C36.7426 18.758 36.7122 18.7944 36.6818 18.8309C36.5237 19.0254 36.3536 19.1896 36.1772 19.3598C36.1347 19.3841 36.1044 19.4145 36.0678 19.4388C35.8612 19.6394 35.6302 19.8278 35.3809 19.9798C35.3505 19.998 35.3202 20.0223 35.2836 20.0466C33.7274 21.0739 31.8371 21.4994 29.9952 21.5177C28.4331 21.5663 26.8586 21.232 25.4484 20.5572C25.4242 20.5451 25.3634 20.5208 25.339 20.5086C25.102 20.381 24.8588 20.2716 24.6399 20.1135C24.5913 20.0892 24.5427 20.0588 24.4879 20.0345C24.263 19.9008 24.0503 19.7549 23.8497 19.5847C23.7828 19.5239 23.7099 19.4753 23.6369 19.4205C23.4181 19.2443 23.1932 19.0558 23.0049 18.8431C22.9563 18.7884 22.9075 18.7397 22.859 18.6911C22.1966 18.0042 21.6799 17.1654 21.4063 16.2536C21.1448 15.5302 21.1814 14.74 21.151 13.9802C20.9321 13.6459 20.4702 13.4574 20.1055 13.6641C19.9536 13.7735 19.9353 13.9741 19.8198 14.1139C19.6314 16.1199 20.4885 18.1197 21.8562 19.5664C21.8562 19.6151 21.8805 19.6455 21.9231 19.6637C22.1663 19.8886 22.4032 20.1196 22.6464 20.3384C22.6889 20.381 22.7376 20.4235 22.7923 20.46C23.0354 20.6606 23.2968 20.8429 23.5521 21.0314C23.6007 21.0678 23.6493 21.0982 23.7041 21.1286C24.0384 21.3232 24.3543 21.5541 24.7131 21.6879C24.7374 21.7061 24.78 21.7365 24.8043 21.7487C25.9592 22.3018 27.2053 22.6787 28.4818 22.8003C28.6216 22.8003 28.7615 22.8124 28.9013 22.8428C29.5091 22.8793 30.117 22.861 30.7248 22.8489C32.603 22.6848 34.5422 22.2289 36.1105 21.1226L36.1287 21.1469C36.1774 21.1043 36.2199 21.0678 36.2685 21.0314C36.5179 20.849 36.761 20.6545 37.0042 20.4539C37.0588 20.4114 37.1195 20.3627 37.1744 20.308C37.4418 20.0162 37.7518 19.7488 37.9767 19.4145L38.0132 19.4327C38.0315 19.4023 38.0618 19.3415 38.0802 19.3111C38.2868 19.0315 38.4753 18.7397 38.6577 18.448C38.6697 18.4297 38.7001 18.3993 38.7123 18.3811L38.6881 18.3568C38.7063 18.3325 38.7489 18.2838 38.7671 18.2595C39.1014 17.5787 39.3991 16.8675 39.5026 16.1138C39.5451 16.0955 39.5695 16.0591 39.5695 16.0165C39.5757 15.7734 39.6607 15.5424 39.6364 15.2992C39.6905 15.0014 39.6966 14.6975 39.6845 14.3935Z" fill="white" stroke="white" stroke-width="0.094"/>
<path d="M19.3525 14.1882C19.8453 14.3428 20.9773 13.9539 21.2977 14.3098M19.6362 15.6875C20.1084 15.5232 21.1209 15.1342 21.5408 15.3634M20.1225 17.187C20.3508 17.2609 20.8007 16.8599 21.0242 16.7424C21.3567 16.5675 21.6978 16.4334 22.0677 16.3765M20.8519 18.7674C21.0874 18.4328 21.3692 18.155 21.7093 17.9173C22.0464 17.6818 22.9686 17.0526 23.3644 17.268M21.5408 19.9021C21.8081 19.6896 21.9169 19.3139 22.1974 19.0907C22.5369 18.8206 23.0569 18.7722 23.405 18.6053M22.6856 20.7429C22.7656 20.1552 23.3623 19.446 23.9317 19.4968M23.567 21.5636C23.8679 21.5334 24.1225 20.8599 24.3259 20.6316C24.6308 20.2897 24.9467 20.1846 25.35 20.0641M25.3095 22.293C25.2901 21.8677 25.7295 20.6484 26.2416 20.7126M26.6063 22.6983C26.585 22.1957 26.8448 20.684 27.4573 20.6315M27.9436 23.5087C27.8275 22.8059 27.835 21.7892 28.3893 21.2799M29.6051 23.6708C29.5433 23.085 28.9612 21.9007 29.6051 21.442M31.3881 23.2656C31.1102 22.9433 30.9486 21.6723 31.0639 21.3204M33.0901 22.9819C32.8758 22.5927 32.6102 22.2272 32.529 21.7753C32.4804 21.5053 32.5655 21.1207 32.5228 20.9152M34.5085 22.374C34.0436 22.0699 33.9145 20.9522 34.0627 20.4694M35.8863 21.7662C35.5556 21.0567 35.203 20.5067 35.1973 19.6994M37.2236 20.4694C36.7097 20.1237 36.0539 19.4953 36.1294 18.8079M38.642 19.3753C37.8612 19.2023 36.9242 18.5036 36.4537 17.8758M39.2903 18.038C38.7271 17.9172 36.866 17.1911 36.9804 16.4575M39.8982 16.6196C39.1134 16.3319 37.9717 16.0733 37.3452 15.5255M40.3034 15.3228C39.8091 15.3651 39.1009 15.1258 38.5985 15.0391C38.0406 14.9429 37.5233 14.7549 36.9804 14.6339M39.8171 14.0666C38.8637 14.1237 37.9691 13.7975 37.102 13.4993" stroke="#D1D1D1" stroke-width="2"/>
</g>
<path d="M91.3011 15.1144C92.3255 14.9598 93.5043 14.8632 94.3739 15.5009C94.9149 15.9066 95.1082 16.6409 95.0695 17.2981C95.1082 18.3802 94.6058 19.5398 93.6397 20.1003C92.7893 20.5641 91.7652 20.6025 90.8181 20.506C90.1804 20.4288 89.5427 20.081 89.2142 19.5012C88.4797 17.8199 89.388 15.4429 91.3011 15.1144ZM60.6516 16.3319C60.7095 15.7521 61.2313 15.2303 61.8303 15.2497C66.2946 15.2497 70.7393 15.269 75.1841 15.2497C75.6672 15.2111 76.1891 15.4236 76.4208 15.8487C76.7493 16.4285 76.4595 17.0662 76.4208 17.6654C76.2857 18.4769 76.3242 19.5592 75.3774 19.8683C72.1307 19.9649 68.8841 19.8683 65.6374 19.907C65.3282 21.9553 65.0384 23.9844 64.7291 26.0136C64.7291 26.0909 64.7485 26.265 64.7485 26.342C67.1254 26.3228 69.5024 26.342 71.8793 26.3228C72.5365 26.2841 73.232 26.8448 73.1741 27.5403C73.1162 28.2554 72.9615 28.951 72.865 29.6661C72.7875 30.1491 72.4011 30.5937 71.8986 30.6903C69.251 30.7482 66.5648 30.6323 63.9175 30.7482C63.4922 33.6663 62.9897 36.5843 62.5452 39.5025C62.4874 40.0823 62.0234 40.5847 61.4437 40.6039C60.3423 40.6233 59.2406 40.6233 58.1392 40.6039C57.4242 40.6233 56.8444 39.8308 57.0376 39.1545C58.2167 31.5407 59.4342 23.9461 60.6516 16.3319ZM80.2858 15.2882C81.2908 15.211 82.3149 15.269 83.3199 15.2497C83.9384 15.2111 84.5568 15.6941 84.6146 16.3319C84.6146 16.8342 84.4793 17.3368 84.4214 17.8392C83.6097 23.0184 82.7788 28.1976 81.967 33.3767C81.8511 34.2076 81.6385 35.0965 81.8898 35.9469C82.1797 36.7971 83.4743 36.4299 83.7836 37.3188C83.9768 38.0339 83.7641 38.7875 83.7062 39.522C83.6483 40.4882 82.5467 40.7006 81.7932 40.9135C80.1506 41.2226 78.1599 40.9907 76.9811 39.6378C76.1308 38.6524 76.0728 37.2608 76.2469 36.0242C77.2711 29.4537 78.2952 22.8832 79.3389 16.2932C79.3969 15.81 79.7834 15.3656 80.2858 15.2882ZM118.646 16.3319C118.704 15.7521 119.226 15.2497 119.806 15.2497H122.743C123.477 15.2303 124.077 16.0227 123.903 16.7183C123.226 21.0085 122.531 25.2988 121.854 29.5887C122.878 29.4342 124.038 29.241 124.753 28.41C125.951 27.0571 126.937 25.4921 127.671 23.8494C127.922 23.2116 128.057 22.2841 128.888 22.1681C129.99 22.1294 131.111 22.1487 132.212 22.1681C132.966 22.1487 133.526 22.999 133.275 23.6946C132.985 24.7191 132.502 25.6659 132 26.5742C130.879 28.3908 129.642 30.188 128.019 31.618C128.734 33.763 129.642 35.8502 130.435 37.9567C130.666 38.6524 131.227 39.4639 130.705 40.1405C130.106 40.9521 128.985 40.5461 128.154 40.6427C127.284 40.5461 126.028 40.9906 125.545 40.0051C124.637 37.8985 123.883 35.7343 122.956 33.6278C122.414 33.647 121.854 33.6665 121.313 33.6085C121.274 33.6858 121.197 33.8403 121.158 33.9177C120.868 35.8502 120.559 37.7828 120.25 39.7151C120.134 40.1789 119.767 40.5849 119.264 40.6235C118.24 40.6622 117.197 40.6427 116.153 40.6427C115.709 40.6427 115.303 40.3529 115.11 39.9664C114.916 39.5797 115.032 39.1355 115.09 38.7103C116.288 31.2508 117.467 23.7913 118.646 16.3319ZM172.35 18.4383C172.486 17.8971 173.007 17.53 173.549 17.5492C174.322 17.5687 175.114 17.53 175.906 17.5687C176.544 17.5879 177.046 18.2257 176.969 18.844C176.853 19.9456 176.583 21.0472 176.505 22.1486C177.259 22.1486 178.032 22.1293 178.786 22.1486C179.462 22.1486 180.023 22.8443 179.907 23.5013C179.81 24.1006 179.675 24.6804 179.578 25.2792C179.481 25.7818 179.056 26.1876 178.573 26.2648C177.646 26.3228 176.737 26.2262 175.829 26.3228C175.443 28.9122 175.017 31.5017 174.612 34.0916C174.553 34.6906 174.515 35.3669 174.863 35.8887C175.385 36.5265 176.293 36.2944 177.027 36.3719C177.607 36.5457 177.974 37.1836 177.877 37.7635C177.781 38.4203 177.761 39.0774 177.607 39.7151C177.375 40.43 176.544 40.5654 175.906 40.7392C174.148 41.2032 172.118 41.2032 170.553 40.1789C169.104 39.1932 168.872 37.2801 169.027 35.6567C169.432 32.526 170.07 29.4148 170.418 26.2648C169.877 26.284 169.22 26.3614 168.814 25.8782C168.35 25.3952 168.582 24.6801 168.659 24.0808C168.775 23.4432 168.756 22.6122 169.452 22.2643C170.012 22.0516 170.65 22.2064 171.249 22.129C171.616 20.8925 171.964 19.6558 172.35 18.4383ZM161.432 24.6995C162.649 23.482 164.118 22.4772 165.799 21.9748C166.534 21.6462 167.481 22.2647 167.461 23.0763C167.326 24.1392 167.075 25.1826 166.901 26.2262C166.823 26.748 166.379 27.1925 165.857 27.2505C163.963 27.5789 162.321 28.7189 161.007 30.0718C160.678 30.4778 160.195 30.8642 160.137 31.4246C159.731 34.1301 159.306 36.8356 158.881 39.5411C158.823 40.1208 158.32 40.6814 157.721 40.6427H154.784C154.108 40.6814 153.509 40.0051 153.586 39.3286C154.436 33.9755 155.287 28.6419 156.117 23.2887C156.156 22.7477 156.543 22.2259 157.103 22.1679C157.818 22.1293 158.533 22.1486 159.267 22.1486C159.847 22.1486 160.388 22.6703 160.388 23.2695C160.388 24.1004 160.311 24.9507 160.292 25.801C160.755 25.5113 161.045 25.0474 161.432 24.6995ZM89.1947 22.2452C90.2382 22.0328 91.3204 22.2067 92.364 22.1486C92.9631 22.0714 93.6008 22.4579 93.6974 23.057C93.7748 23.598 93.62 24.1199 93.562 24.6417C92.7698 29.6084 91.9773 34.5748 91.2044 39.5413C91.1464 40.102 90.6828 40.6623 90.0836 40.6428C89.0401 40.6428 87.9965 40.6623 86.9337 40.6237C86.2766 40.5462 85.7934 39.7927 85.9674 39.1548C86.7984 33.9952 87.5908 28.8546 88.4218 23.6947C88.4604 23.1343 88.615 22.4772 89.1947 22.2452ZM151.731 22.4967C148.851 21.9554 145.914 21.5689 142.996 21.8588C140.387 22.1874 137.759 23.3663 136.155 25.5113C133.932 28.3327 133.179 32.1205 133.681 35.6378C133.952 37.3189 134.686 39.0196 136.058 40.0631C137.333 41.0487 139.053 41.1839 140.599 40.9327C142.764 40.5075 144.6 39.1164 146.107 37.5702C146.184 38.2272 146.03 38.8843 146.068 39.5221C146.107 40.121 146.648 40.6814 147.247 40.6427H149.218C149.798 40.6427 150.281 40.1019 150.32 39.5412C151.151 34.3042 151.982 29.0863 152.794 23.8687C152.909 23.2115 152.388 22.5738 151.731 22.4967ZM146.3 31.5987C145.527 33.0481 144.445 34.3622 143.228 35.4828C142.532 36.0627 141.643 36.6618 140.696 36.4686C139.768 36.2754 139.324 35.3092 139.111 34.4781C138.628 32.3138 139.073 29.956 140.29 28.0816C140.831 27.2118 141.701 26.5548 142.706 26.2842C144.116 25.9363 145.605 26.1103 146.977 26.4967L147.054 26.5742C146.88 28.2554 146.552 29.9174 146.3 31.5987ZM113.796 28.7C113.776 26.7674 113.254 24.7383 111.902 23.2889C110.974 22.2647 109.583 21.7429 108.23 21.7621C105.988 21.685 103.882 22.7865 102.239 24.2551C101.872 24.5451 101.621 24.9702 101.215 25.2021C101.215 24.5642 101.273 23.9265 101.254 23.2696C101.273 22.6703 100.712 22.1486 100.133 22.1486H98.1615C97.5432 22.1486 97.0407 22.6898 97.002 23.2888C95.7845 31.0189 94.5479 38.7489 93.3303 46.479C93.1565 47.1939 93.775 47.9284 94.5093 47.909C95.5914 47.8897 96.693 47.9864 97.7558 47.8316C98.6062 47.5997 98.5868 46.6141 98.7221 45.8991C99.0312 44.1985 99.244 42.4979 99.4371 40.7779C103.244 41.5122 107.67 41.0099 110.51 38.1304C112.829 35.599 113.911 32.1011 113.796 28.7ZM108.385 30.6517C108.269 32.4296 107.631 34.2269 106.394 35.5215C104.79 37.0484 102.355 36.8356 100.384 36.3141C100.346 36.256 100.287 36.14 100.268 36.0822C100.577 34.4009 100.732 32.7002 101.118 31.0382C102.201 29.2605 103.515 27.463 105.389 26.4776C106.085 26.1491 107.032 26.2264 107.534 26.8641C108.385 27.927 108.462 29.357 108.385 30.6517Z" fill="#107BD4" stroke="#107BD4" stroke-width="0.101"/>
<defs>
<linearGradient id="paint0_linear_70_18" x1="29.7396" y1="12.2692" x2="29.7396" y2="47.9972" gradientUnits="userSpaceOnUse">
<stop stop-color="#F7E830"/>
<stop offset="1" stop-color="#FDCB06"/>
</linearGradient>
<radialGradient id="paint1_radial_70_18" cx="0" cy="0" r="1" gradientUnits="userSpaceOnUse" gradientTransform="translate(29.5536 28.5647) scale(29.0606 29.0606)">
<stop offset="0.596" stop-color="#F29405"/>
<stop offset="0.736" stop-color="#F7D01E"/>
<stop offset="1" stop-color="#FDCB06"/>
</radialGradient>
<linearGradient id="paint2_linear_70_18" x1="39.6815" y1="13.5587" x2="39.6917" y2="15.2506" gradientUnits="userSpaceOnUse">
<stop stop-color="#FADA1C"/>
<stop offset="1" stop-color="#FDCB06"/>
</linearGradient>
<linearGradient id="paint3_linear_70_18" x1="19.7814" y1="13.4777" x2="19.7712" y2="15.1695" gradientUnits="userSpaceOnUse">
<stop stop-color="#FADA1C"/>
<stop offset="1" stop-color="#FDCB06"/>
</linearGradient>
<clipPath id="clip0_70_18">
<rect width="44.72" height="43" fill="white" transform="translate(7 5)"/>
</clipPath>
</defs>
</svg>
