<svg width="134" height="32" viewBox="0 0 134 32" fill="none" xmlns="http://www.w3.org/2000/svg">
<path d="M14.2038 13.3178C14.2024 13.0171 14.1568 12.7203 14.0688 12.4271C14.0312 12.2771 13.9771 12.1307 13.9055 11.9882C13.8345 11.8454 13.7475 11.7082 13.6449 11.5771C13.5418 11.4457 13.4252 11.3224 13.2939 11.2063C13.1631 11.0905 13.0196 10.984 12.8639 10.8871C12.7081 10.7902 12.5425 10.7039 12.367 10.6288C12.1915 10.5536 12.009 10.4905 11.8189 10.4396C11.6293 10.3883 11.435 10.3505 11.2359 10.3249C11.0374 10.2996 10.837 10.2875 10.6361 10.2882C8.32168 10.2882 6.49898 11.8945 6.49898 14.7057C6.49898 17.0203 8.00316 18.824 10.6361 18.824C10.8266 18.8254 11.0162 18.8144 11.2049 18.7919C11.3926 18.7695 11.5775 18.7353 11.7591 18.6897C11.9403 18.6441 12.1148 18.5881 12.2833 18.5208C12.4522 18.4535 12.6126 18.3762 12.7646 18.2889C12.9166 18.202 13.0582 18.1054 13.189 18.0007C13.3202 17.8959 13.4393 17.7837 13.5461 17.664C13.6534 17.5443 13.7465 17.4189 13.8256 17.2878C13.9055 17.1564 13.9705 17.021 14.0203 16.8817C14.1488 16.4709 14.21 16.0552 14.2038 15.633V13.3178ZM20.7513 6.99465C20.6449 7.99501 20.5683 9.30209 20.5683 11.6167V20.2547C20.5683 23.2408 19.7774 25.6797 17.4536 27.2347C15.1298 28.7901 12.1595 29.126 9.17046 29.126C7.89447 29.151 6.63166 29.0644 5.38249 28.867C4.13332 28.6697 2.93026 28.3669 1.77424 27.9575L3.03753 24.307C3.94935 24.6825 4.90776 24.9675 5.91274 25.1627C6.91819 25.358 7.93964 25.4574 8.97756 25.4606C11.9864 25.4606 14.3003 24.2408 14.3003 21.3715V20.3637H14.2038C13.8844 20.6872 13.5188 20.9772 13.1066 21.2333C12.6945 21.4894 12.2475 21.7046 11.7662 21.8792C11.2849 22.0537 10.7833 22.1816 10.2611 22.2636C9.73929 22.3455 9.21139 22.379 8.67832 22.3644C3.62565 22.3644 0 19.2322 0 14.8436C0 9.82756 4.26223 6.6954 9.28573 6.6954C9.84092 6.66904 10.3905 6.69896 10.9344 6.78518C11.4783 6.87139 11.9977 7.01068 12.4917 7.20377C12.9862 7.3965 13.4374 7.63555 13.8458 7.92091C14.2542 8.20662 14.6052 8.52796 14.8983 8.88563H14.9853L15.1971 7.0089L20.7513 6.99465Z" fill="#EF6923"/>
<path d="M29.4196 14.778C29.4196 17.4211 30.8956 19.4367 33.6146 19.4367C36.0932 19.4367 37.6642 17.5529 37.6642 14.7488C37.6642 12.4635 36.4978 10.1051 33.624 10.1051C30.5869 10.0905 29.4196 12.4563 29.4196 14.778ZM44.2314 14.5956C44.2314 20.2397 38.9378 22.861 33.4702 22.861C27.501 22.861 22.8628 19.882 22.8628 14.8293C22.8628 9.77662 27.1928 6.59315 33.7788 6.59315C40.0656 6.62985 44.2314 9.91555 44.2314 14.5956Z" fill="#EF6923"/>
<path d="M46.5271 22.5109V6.9947H52.9103V22.5105H46.5271V22.5109ZM53.0938 2.68691C53.0957 2.84366 53.0774 2.99935 53.0388 3.15396C53.0007 3.30822 52.9423 3.4582 52.8652 3.60355C52.7875 3.74925 52.6925 3.88748 52.5791 4.01929C52.4657 4.15075 52.3363 4.27223 52.1914 4.38445C52.0465 4.49667 51.8884 4.59678 51.7176 4.68548C51.5464 4.77419 51.3657 4.849 51.1752 4.91099C50.9846 4.97262 50.7879 5.01965 50.5852 5.05206C50.3824 5.08448 50.1772 5.10158 49.9697 5.10372H49.6611C49.4578 5.1137 49.2551 5.10871 49.0532 5.0884C48.8504 5.0681 48.6528 5.03318 48.4599 4.98366C48.267 4.93415 48.0816 4.87073 47.9052 4.79378C47.7288 4.71683 47.5631 4.62706 47.4102 4.52588C47.2569 4.42399 47.1176 4.31213 46.9934 4.18994C46.8687 4.06739 46.761 3.93735 46.6701 3.79913C46.5798 3.6609 46.5074 3.51698 46.4542 3.36807C46.401 3.21915 46.3671 3.06775 46.353 2.91385V2.72396C46.353 2.55617 46.3747 2.39016 46.418 2.22557C46.4612 2.06098 46.5252 1.90102 46.6099 1.74641C46.6946 1.59108 46.7986 1.44395 46.9219 1.30466C47.0447 1.16501 47.1849 1.03605 47.3415 0.917414C47.4982 0.798782 47.669 0.692976 47.853 0.599638C48.0374 0.5063 48.2322 0.427925 48.4364 0.363443C48.6415 0.298962 48.8523 0.250868 49.0697 0.218093C49.287 0.185318 49.5068 0.16893 49.7279 0.16893C49.949 0.16893 50.1692 0.185318 50.3861 0.218093C50.604 0.250868 50.8148 0.299318 51.0194 0.363443C51.2246 0.427568 51.4189 0.5063 51.6028 0.599638C51.7873 0.692976 51.9576 0.798782 52.1143 0.917414C52.2709 1.03605 52.4112 1.16501 52.5344 1.30466C52.6577 1.44395 52.7612 1.59144 52.8459 1.74641C52.9311 1.90138 52.9946 2.06098 53.0379 2.22557C53.0816 2.39016 53.1033 2.55617 53.1033 2.72396L53.0938 2.68691Z" fill="#2767A7"/>
<path d="M62.7457 15.9394C62.7358 16.2276 62.7748 16.5122 62.8614 16.7933C62.9085 16.954 62.9725 17.1111 63.0539 17.2632C63.1357 17.4161 63.2336 17.5621 63.3484 17.7018C63.4627 17.8421 63.5921 17.9739 63.7356 18.0972C63.8796 18.2205 64.0363 18.3341 64.2056 18.4374C64.3745 18.5407 64.5538 18.633 64.7444 18.7132C64.934 18.7937 65.1311 18.8614 65.3362 18.9162C65.5414 18.9714 65.7507 19.0131 65.9648 19.0416C66.1789 19.0701 66.3949 19.0844 66.6122 19.0854C69.3025 19.0854 70.9996 17.4862 70.9996 14.7043C70.9996 12.2875 69.5726 10.4111 66.6122 10.4111C66.392 10.415 66.1733 10.4328 65.9568 10.4645C65.7404 10.4966 65.5291 10.5418 65.3226 10.6006C65.1165 10.6597 64.918 10.7314 64.7274 10.8158C64.5369 10.9002 64.3576 10.996 64.1887 11.1033C64.0198 11.2109 63.8641 11.3281 63.722 11.4556C63.5789 11.5832 63.4514 11.7185 63.3394 11.8625C63.227 12.006 63.1315 12.156 63.0529 12.312C62.9743 12.4681 62.9132 12.628 62.8704 12.7916C62.7847 13.0876 62.7433 13.3868 62.7447 13.6897V15.9394H62.7457ZM56.1982 22.5108C56.2947 21.4809 56.3714 19.6412 56.3714 17.8817V0H62.7457V8.8418H62.8228C63.1781 8.48056 63.5855 8.1578 64.0461 7.8728C64.5068 7.58815 65.0064 7.35017 65.5451 7.15922C66.0834 6.96827 66.6447 6.82969 67.2281 6.74348C67.812 6.65762 68.4006 6.62698 68.9944 6.65157C73.9609 6.65157 77.4995 9.7253 77.4511 14.4859C77.4511 20.0723 72.7748 22.8681 68.0783 22.8681C67.7734 22.8792 67.4685 22.8749 67.1641 22.8542C66.8602 22.8339 66.5591 22.7983 66.2608 22.7466C65.9629 22.6953 65.6708 22.6294 65.3852 22.5478C65.0991 22.4666 64.822 22.3711 64.5524 22.2611C64.2837 22.151 64.0254 22.0281 63.7789 21.892C63.5319 21.7555 63.298 21.6073 63.0779 21.447C62.8577 21.2867 62.653 21.1154 62.4629 20.9344C62.2738 20.7531 62.1011 20.5625 61.9454 20.3633H61.8682L61.5883 22.5539L56.1982 22.5108Z" fill="#2767A7"/>
<path d="M79.7558 22.5108V6.99464H86.14V22.5104H79.7558V22.5108ZM86.3225 2.68685C86.3225 2.85465 86.3009 3.02102 86.2581 3.1856C86.2148 3.34984 86.1503 3.50979 86.0661 3.66476C85.9809 3.82009 85.8779 3.96722 85.7537 4.10651C85.6309 4.24616 85.4912 4.37513 85.3345 4.49376C85.1773 4.61239 85.0075 4.7182 84.8226 4.81153C84.6377 4.90452 84.4438 4.98325 84.2396 5.04773C84.0354 5.11221 83.8232 5.1603 83.6059 5.19308C83.3885 5.22585 83.1693 5.24224 82.9477 5.24224C82.7261 5.24224 82.5068 5.22621 82.2899 5.19308C82.0725 5.1603 81.8608 5.11185 81.6561 5.04773C81.4515 4.9836 81.2567 4.90487 81.0732 4.81153C80.8883 4.7182 80.7184 4.61203 80.5613 4.49376C80.4046 4.37513 80.2649 4.24581 80.1416 4.10651C80.0183 3.96722 79.9148 3.81973 79.8297 3.66476C79.745 3.50979 79.681 3.34984 79.6377 3.1856C79.5944 3.02102 79.5732 2.85465 79.5732 2.68685C79.5732 2.51906 79.5949 2.35304 79.6386 2.18917C79.6824 2.02458 79.7464 1.86498 79.8316 1.71001C79.9158 1.5554 80.0202 1.40827 80.143 1.26897C80.2668 1.12968 80.407 1.00072 80.5632 0.88244C80.7194 0.763808 80.8902 0.658358 81.0741 0.56502C81.259 0.471682 81.4529 0.393307 81.6571 0.329182C81.8622 0.265057 82.0735 0.216607 82.2904 0.184188C82.5073 0.151413 82.7265 0.135025 82.9477 0.135025C83.1697 0.135025 83.389 0.151413 83.6054 0.184188C83.8228 0.216607 84.0336 0.265057 84.2382 0.329182C84.4434 0.393307 84.6372 0.471682 84.8216 0.56502C85.0056 0.658002 85.1764 0.763808 85.3326 0.88244C85.4893 1.00072 85.629 1.12968 85.7528 1.26897C85.8756 1.40827 85.98 1.5554 86.0642 1.71001C86.1494 1.86498 86.2134 2.02458 86.2571 2.18917C86.3009 2.3534 86.3225 2.51906 86.3225 2.68685Z" fill="#2767A7"/>
<path d="M95.9756 15.9394C95.9662 16.2276 96.0053 16.5122 96.0909 16.7933C96.1384 16.954 96.2024 17.1111 96.2843 17.2632C96.3657 17.4161 96.464 17.5621 96.5784 17.7018C96.6932 17.8421 96.8225 17.9739 96.9656 18.0972C97.1095 18.2205 97.2662 18.3341 97.4356 18.4374C97.604 18.5407 97.7838 18.633 97.9743 18.7132C98.1635 18.7937 98.3611 18.8614 98.5667 18.9162C98.7713 18.9714 98.9807 19.0131 99.1953 19.0416C99.4093 19.0701 99.6253 19.0844 99.8427 19.0854C102.542 19.0854 104.23 17.4862 104.23 14.7043C104.23 12.2875 102.812 10.3819 99.8427 10.3819C99.622 10.3861 99.4032 10.4043 99.1868 10.4367C98.9699 10.4688 98.7586 10.5148 98.5516 10.5739C98.3455 10.6334 98.1475 10.7053 97.9569 10.7898C97.7664 10.8742 97.5866 10.9708 97.4177 11.0783C97.2493 11.1863 97.094 11.3038 96.9515 11.4314C96.8089 11.5589 96.6819 11.6947 96.5694 11.8389C96.4574 11.9829 96.3619 12.1332 96.2829 12.2892C96.2043 12.4453 96.1441 12.6052 96.1013 12.7695C96.0199 13.0634 95.9789 13.3601 95.9752 13.6601V15.9394H95.9756ZM89.4277 22.5108C89.5242 21.4809 89.6018 19.6412 89.6018 17.8817V0H95.9756V8.8418H96.0632C96.4179 8.4802 96.8263 8.15673 97.2879 7.87173C97.7494 7.58672 98.25 7.34839 98.7892 7.15744C99.3284 6.96613 99.8907 6.82791 100.475 6.74241C101.059 6.65655 101.649 6.62663 102.244 6.65157C107.21 6.65157 110.749 9.73278 110.701 14.4859C110.701 20.0723 106.025 22.8681 101.328 22.8681C101.024 22.8788 100.719 22.8738 100.415 22.8535C100.111 22.8325 99.8102 22.7969 99.5128 22.7452C99.2155 22.6939 98.9243 22.6273 98.6387 22.5461C98.3531 22.4645 98.0759 22.369 97.8073 22.2593C97.5391 22.1492 97.2817 22.0267 97.0352 21.8902C96.7882 21.7541 96.5548 21.6056 96.3356 21.4456C96.1154 21.2853 95.9112 21.1146 95.7216 20.9333C95.532 20.752 95.3598 20.5621 95.2045 20.363H95.108L94.8474 22.5535L89.4277 22.5108Z" fill="#2767A7"/>
<path d="M118.521 14.778C118.521 17.4211 119.996 19.4367 122.706 19.4367C125.194 19.4367 126.766 17.5529 126.766 14.7488C126.766 12.4635 125.599 10.1051 122.716 10.1051C119.678 10.0905 118.521 12.4563 118.521 14.778ZM133.332 14.5956C133.332 20.2397 128.029 22.861 122.571 22.861C116.602 22.861 111.964 19.882 111.964 14.8293C111.964 9.77662 116.312 6.62985 122.909 6.62985C129.167 6.62985 133.332 9.91556 133.332 14.5956Z" fill="#2767A7"/>
<path d="M100.536 30.104C100.538 30.0313 100.548 29.9593 100.568 29.8885C100.588 29.8176 100.617 29.7484 100.655 29.6818C100.692 29.6152 100.739 29.5518 100.793 29.4916C100.847 29.4317 100.909 29.3765 100.977 29.3256C101.046 29.2746 101.12 29.2294 101.201 29.1895C101.281 29.1499 101.367 29.1165 101.455 29.0894C101.544 29.0623 101.636 29.0416 101.73 29.0285C101.824 29.0149 101.919 29.0082 102.015 29.0089C102.111 29.0096 102.206 29.0171 102.3 29.0317C102.394 29.0466 102.485 29.0684 102.573 29.0965C102.662 29.125 102.746 29.1596 102.825 29.2002C102.905 29.2408 102.978 29.2875 103.045 29.3395C103.113 29.3911 103.172 29.4474 103.226 29.508C103.279 29.5685 103.323 29.6327 103.359 29.7C103.396 29.767 103.423 29.8364 103.441 29.9077C103.459 29.9789 103.468 30.0509 103.468 30.1236C103.468 30.1963 103.458 30.2682 103.439 30.3395C103.42 30.4104 103.391 30.4798 103.354 30.5468C103.317 30.6138 103.272 30.6775 103.219 30.7378C103.165 30.798 103.104 30.8535 103.036 30.9052C102.968 30.9565 102.894 31.0021 102.814 31.0427C102.734 31.0826 102.65 31.1168 102.561 31.1442C102.473 31.1724 102.381 31.193 102.287 31.2073C102.193 31.2212 102.098 31.2287 102.002 31.2287C101.909 31.2312 101.816 31.2265 101.725 31.2151C101.633 31.2041 101.543 31.1859 101.456 31.1613C101.369 31.1368 101.286 31.1058 101.207 31.0684C101.128 31.031 101.054 30.9886 100.985 30.9405C100.917 30.8924 100.856 30.8396 100.802 30.7826C100.747 30.7253 100.701 30.6644 100.663 30.6002C100.624 30.5358 100.594 30.4695 100.573 30.4007C100.552 30.332 100.54 30.2622 100.536 30.1923V30.104V30.104Z" fill="#040404"/>
<path d="M110.893 30.9511C110.177 31.1516 109.438 31.2418 108.676 31.2211C108.538 31.2304 108.4 31.2343 108.263 31.2325C108.125 31.2304 107.987 31.2229 107.85 31.2101C107.714 31.1972 107.578 31.1784 107.444 31.1545C107.31 31.1306 107.178 31.1014 107.048 31.0661C106.918 31.0316 106.79 30.9917 106.667 30.9464C106.541 30.9015 106.421 30.8513 106.304 30.7965C106.187 30.7419 106.074 30.6828 105.965 30.6183C105.856 30.5538 105.752 30.4858 105.653 30.4135C105.553 30.3412 105.46 30.2649 105.371 30.1844C105.283 30.1043 105.2 30.0205 105.124 29.934C105.048 29.8474 104.977 29.7576 104.914 29.665C104.849 29.5724 104.793 29.4776 104.743 29.3804C104.692 29.2835 104.649 29.1844 104.612 29.0836C104.576 28.9831 104.547 28.8816 104.525 28.7783C104.502 28.6753 104.487 28.5717 104.481 28.4673C104.473 28.3633 104.473 28.2589 104.481 28.1548C104.481 26.395 106.071 24.9639 109.022 24.9639C109.664 24.9571 110.287 25.0348 110.893 25.1976L110.517 26.5849C110.076 26.4438 109.616 26.3807 109.138 26.395C108.986 26.3875 108.834 26.3918 108.683 26.4074C108.532 26.4238 108.385 26.4513 108.242 26.4897C108.098 26.5286 107.961 26.5781 107.831 26.6383C107.701 26.6985 107.581 26.768 107.469 26.8467C107.357 26.9258 107.258 27.0124 107.17 27.1064C107.082 27.2008 107.008 27.3009 106.948 27.4071C106.886 27.5125 106.841 27.6223 106.81 27.7352C106.779 27.8481 106.763 27.9625 106.763 28.0779C106.763 28.1933 106.779 28.3077 106.81 28.4206C106.841 28.5335 106.886 28.6433 106.948 28.7487C107.008 28.8549 107.082 28.955 107.17 29.0498C107.258 29.1442 107.357 29.2307 107.469 29.3095C107.58 29.3885 107.701 29.458 107.831 29.5179C107.961 29.5781 108.098 29.6279 108.242 29.6668C108.385 29.7053 108.532 29.733 108.683 29.7487C108.834 29.7644 108.986 29.7687 109.138 29.7612C109.626 29.7676 110.099 29.7042 110.555 29.5713L110.893 30.9511Z" fill="#040404"/>
<path d="M114.104 28.0961C114.104 29.1257 114.673 29.8994 115.763 29.8994C116.852 29.8994 117.334 29.1695 117.334 28.0815C117.334 27.198 116.871 26.2927 115.763 26.2927C114.654 26.2927 114.152 27.2055 114.152 28.0964H114.104V28.0961ZM119.889 28.0302C119.906 28.2283 119.898 28.4253 119.864 28.6223C119.829 28.8186 119.769 29.0109 119.685 29.1983C119.6 29.3861 119.491 29.5656 119.36 29.7373C119.228 29.9087 119.076 30.069 118.903 30.2176C118.73 30.3658 118.538 30.5001 118.329 30.6205C118.121 30.7405 117.899 30.8439 117.664 30.9304C117.428 31.0173 117.183 31.0861 116.931 31.1356C116.676 31.1859 116.42 31.2172 116.157 31.2286H115.723C115.587 31.2347 115.45 31.2354 115.315 31.23C115.178 31.2254 115.042 31.2151 114.907 31.1997C114.772 31.1841 114.639 31.1631 114.507 31.137C114.374 31.111 114.244 31.0797 114.116 31.0434C113.989 31.0063 113.863 30.965 113.741 30.9187C113.619 30.8724 113.5 30.8218 113.385 30.7658C113.27 30.7099 113.159 30.6497 113.053 30.5852C112.945 30.5207 112.844 30.4523 112.746 30.3797C112.649 30.3073 112.556 30.2311 112.47 30.1513C112.383 30.0715 112.302 29.9885 112.226 29.9023C112.151 29.8164 112.081 29.727 112.019 29.6354C111.955 29.5435 111.899 29.4498 111.849 29.3537C111.798 29.2571 111.755 29.1595 111.718 29.0597C111.682 28.9604 111.652 28.8592 111.629 28.7573C111.606 28.6554 111.59 28.5528 111.581 28.4495C111.573 28.3465 111.572 28.2432 111.577 28.1399C111.561 27.9425 111.57 27.7466 111.605 27.5514C111.64 27.3562 111.699 27.1648 111.784 26.9785C111.868 26.7922 111.976 26.6137 112.107 26.4431C112.238 26.2724 112.39 26.1132 112.562 25.9657C112.735 25.8175 112.925 25.6839 113.132 25.5646C113.339 25.4449 113.56 25.3419 113.794 25.2553C114.028 25.1688 114.271 25.1004 114.523 25.0501C114.774 24.9999 115.031 24.9686 115.291 24.9564H115.821C116.073 24.9475 116.324 24.9564 116.574 24.9842C116.824 25.0124 117.068 25.0583 117.306 25.1225C117.544 25.1869 117.771 25.2682 117.987 25.3661C118.204 25.4641 118.406 25.5774 118.593 25.7053C118.781 25.8328 118.95 25.9739 119.101 26.1274C119.252 26.2806 119.382 26.4434 119.491 26.6159C119.6 26.7883 119.685 26.9675 119.748 27.1524C119.81 27.338 119.848 27.5257 119.861 27.7167C119.88 27.8203 119.889 27.9251 119.889 28.0302Z" fill="#040404"/>
<path d="M121.404 27.0156C121.404 26.2853 121.404 25.628 121.336 25.0951H123.419L123.525 25.9052H123.583C123.711 25.7548 123.863 25.6187 124.037 25.498C124.212 25.3772 124.404 25.275 124.614 25.192C124.823 25.1093 125.043 25.0477 125.274 25.0071C125.505 24.9672 125.738 24.9504 125.975 24.9558C126.204 24.9472 126.43 24.9643 126.652 25.0078C126.874 25.0516 127.083 25.1193 127.277 25.2112C127.472 25.3031 127.644 25.4153 127.794 25.5471C127.943 25.6793 128.064 25.825 128.154 25.985C128.43 25.6861 128.774 25.4428 129.185 25.2547C129.648 25.0427 130.15 24.9433 130.69 24.9551C132.203 24.9551 133.351 25.773 133.351 27.5617V31.0737H130.959V27.8314C130.959 26.97 130.593 26.4588 129.783 26.4588C129.657 26.4606 129.536 26.4766 129.417 26.5072C129.299 26.5379 129.189 26.581 129.088 26.6373C128.987 26.6932 128.9 26.7598 128.825 26.8368C128.751 26.9134 128.695 26.9967 128.655 27.0865C128.597 27.2422 128.568 27.4 128.568 27.5614V31.0733H126.167V27.7288C126.167 26.9989 125.81 26.4805 125.029 26.4805C124.899 26.483 124.772 26.5008 124.649 26.5329C124.525 26.5657 124.412 26.612 124.309 26.6715C124.205 26.731 124.116 26.8015 124.041 26.8824C123.966 26.9632 123.91 27.0509 123.871 27.1446C123.805 27.2992 123.773 27.457 123.775 27.6191V31.073H121.374L121.404 27.0156Z" fill="#040404"/>
</svg>
