<svg width="120" height="32" viewBox="0 0 120 32" fill="none" xmlns="http://www.w3.org/2000/svg">
<path d="M115.773 11.3681C115.678 11.3681 115.584 11.2855 115.584 11.2029V10.2277L115.111 11.302C115.093 11.3351 115.055 11.3681 115.017 11.3681C114.979 11.3681 114.941 11.3351 114.922 11.302L114.45 10.2277V11.2029C114.45 11.2855 114.374 11.3681 114.261 11.3681C114.148 11.3681 114.072 11.2855 114.072 11.2029V10.0459C114.072 9.89712 114.204 9.78143 114.374 9.78143C114.507 9.78143 114.62 9.84754 114.658 9.96324L115.017 10.7731L115.376 9.96324C115.414 9.86407 115.527 9.78143 115.659 9.78143C115.83 9.78143 115.962 9.89712 115.962 10.0459V11.2029C115.962 11.2855 115.867 11.3681 115.773 11.3681ZM113.033 11.3681C112.919 11.3681 112.844 11.2855 112.844 11.2029V10.0789H112.485C112.39 10.0789 112.314 10.0128 112.314 9.93018C112.314 9.84754 112.39 9.78143 112.485 9.78143H113.581C113.675 9.78143 113.751 9.84754 113.751 9.93018C113.751 10.0128 113.675 10.0789 113.581 10.0789H113.222V11.2029C113.222 11.2855 113.146 11.3681 113.033 11.3681Z" fill="#EC2C45"/>
<path d="M15.9696 9.3021C15.9696 8.74014 16.1586 8.22776 16.4988 7.79802C15.4972 8.06247 14.7412 8.87236 14.7412 9.83101V11.5334L15.9507 11.583V9.3021H15.9696Z" fill="#EC2C45"/>
<path d="M14.7603 21.0373C14.7603 22.0124 15.4973 22.8223 16.5178 23.0702C16.1776 22.6405 15.9887 22.1281 15.9887 21.5662V18.3597H14.7792V21.0373H14.7603Z" fill="#EC2C45"/>
<path d="M17.8028 18.3762H16.5933V21.5827C16.5933 22.5579 17.3303 23.3678 18.3508 23.6157C18.0107 23.186 17.8217 22.6736 17.8217 22.1116V18.3762H17.8028Z" fill="#EC2C45"/>
<path d="M17.8026 8.77321C17.8026 8.21124 18.0105 7.69886 18.3318 7.26913C17.3302 7.53358 16.5742 8.34347 16.5742 9.30211V11.6161L17.7837 11.6657V8.77321H17.8026Z" fill="#EC2C45"/>
<path d="M4.0633 8.09559C3.17507 8.55838 2.57031 9.40132 2.57031 10.3765V20.5084C2.57031 21.4835 3.17507 22.3265 4.0633 22.7893C3.89321 22.4091 3.77982 22.0124 3.77982 21.5662V9.30215C3.77982 8.87242 3.87431 8.45921 4.0633 8.09559Z" fill="#EC2C45"/>
<path d="M5.61331 8.24429C5.61331 7.81455 5.70781 7.40135 5.89679 7.02119C5.00856 7.48399 4.40381 8.32693 4.40381 9.3021V21.5661C4.40381 22.7066 5.23534 23.6818 6.38815 24.0619C5.89679 23.5165 5.61331 22.8388 5.61331 22.1116V8.24429Z" fill="#EC2C45"/>
<path d="M20.8454 6.64109C19.5036 6.64109 18.4075 7.59974 18.4075 8.77325V12.2442L12.3221 11.9632V8.22781C12.3221 6.75679 10.9614 5.56675 9.27948 5.56675C7.59751 5.56675 6.23682 6.75679 6.23682 8.22781V22.0951C6.23682 23.5661 7.59751 24.7561 9.27948 24.7561C10.9614 24.7561 12.3221 23.5661 12.3221 22.0951V17.8308H18.4264V22.0951C18.4264 23.2686 19.5225 24.2272 20.8643 24.2272C22.2061 24.2272 23.3022 23.2686 23.3022 22.0951V8.77325C23.2833 7.59974 22.1872 6.64109 20.8454 6.64109Z" fill="#EC2C45"/>
<path d="M41.8981 19.6158V15.6656H35.3214V19.6158C35.3214 20.0456 34.9245 20.3927 34.4521 20.3927C33.9607 20.3927 33.5449 20.029 33.5449 19.6158V10.6079C33.5449 10.1947 33.9607 9.83105 34.4332 9.83105C34.9245 9.83105 35.3214 10.1947 35.3214 10.6079V14.2772H41.8981V10.6079C41.8981 10.1947 42.2949 9.83105 42.7863 9.83105C43.2777 9.83105 43.6745 10.1947 43.6745 10.6079V19.6158C43.6745 20.0456 43.2777 20.3927 42.7863 20.3927C42.2949 20.4092 41.8981 20.0456 41.8981 19.6158Z" fill="#EC2C45"/>
<path d="M51.9712 16.5416C51.9712 15.1201 51.0262 13.8474 49.2876 13.8474C47.5678 13.8474 46.604 15.1201 46.604 16.5416C46.604 17.9795 47.5678 19.2522 49.2876 19.2522C51.0262 19.2687 51.9712 17.9795 51.9712 16.5416ZM44.9409 16.5416C44.9409 14.3763 46.6229 12.5913 49.2876 12.5913C51.9901 12.5913 53.6342 14.3763 53.6342 16.5416C53.6342 18.7233 51.9712 20.5084 49.2876 20.5084C46.6229 20.5084 44.9409 18.7398 44.9409 16.5416Z" fill="#EC2C45"/>
<path d="M60.3431 15.9961H65.6158C65.578 15.0044 64.8032 13.7482 62.9889 13.7482C61.2502 13.7647 60.4376 14.9713 60.3431 15.9961ZM62.9889 12.6078C65.578 12.6078 67.1844 14.3763 67.1844 16.3597C67.1844 16.7894 66.8442 17.0374 66.2394 17.0374H60.362C60.4943 18.31 61.5526 19.3844 63.2913 19.3844C64.0283 19.3844 64.7843 19.186 65.4268 18.7728C65.5213 18.7067 65.6347 18.6902 65.7859 18.6902C66.1449 18.6902 66.4284 18.9381 66.4284 19.2522C66.4284 19.4505 66.315 19.6158 66.1449 19.7149C65.2945 20.2604 64.274 20.5248 63.1212 20.5248C60.551 20.5248 58.6611 18.9381 58.6611 16.558C58.6611 14.3598 60.4754 12.6078 62.9889 12.6078Z" fill="#EC2C45"/>
<path d="M68.2051 19.6984V10.5417C68.2051 10.1616 68.5641 9.84754 68.9988 9.84754C69.4335 9.84754 69.8115 10.1616 69.8115 10.5417V19.6984C69.8115 20.0951 69.4335 20.4091 68.9988 20.4091C68.5641 20.4091 68.2051 20.0951 68.2051 19.6984Z" fill="#EC2C45"/>
<path d="M70.8511 19.1696C70.8511 18.8225 71.1534 18.558 71.5503 18.558C71.7015 18.558 71.8338 18.6076 71.9472 18.6737C72.6086 19.1034 73.4591 19.3844 74.3662 19.3844C75.5757 19.3844 76.2183 18.9547 76.2183 18.3101C76.2183 17.5663 75.2355 17.3184 74.1394 17.087C72.6842 16.7895 70.9645 16.4424 70.9645 14.8226C70.9645 13.616 72.1362 12.5913 74.2528 12.5913C75.4434 12.5913 76.3883 12.9053 77.1254 13.3681C77.2766 13.4838 77.4089 13.6326 77.4089 13.8309C77.4089 14.1449 77.1065 14.4094 76.7474 14.4094C76.6151 14.4094 76.4828 14.3598 76.3883 14.2937C75.8403 13.9301 75.0843 13.7152 74.2717 13.7152C73.1756 13.7152 72.4952 14.0954 72.4952 14.6904C72.4952 15.3515 73.4213 15.5664 74.4985 15.7812C75.9915 16.0788 77.7868 16.4424 77.7868 18.1613C77.7868 19.4505 76.5773 20.4753 74.3095 20.4753C73.1189 20.4753 72.0417 20.2108 71.1723 19.6323C70.9645 19.5662 70.8511 19.3679 70.8511 19.1696Z" fill="#EC2C45"/>
<path d="M79.8655 18.5415C80.4703 18.5415 80.9805 18.9877 80.9805 19.5167C80.9805 20.0456 80.4703 20.4918 79.8655 20.4918C79.2607 20.4918 78.7505 20.0456 78.7505 19.5167C78.7694 18.9877 79.2607 18.5415 79.8655 18.5415Z" fill="#EC2C45"/>
<path d="M96.3638 16.5416C96.3638 15.1201 95.4188 13.8474 93.6802 13.8474C91.9604 13.8474 90.9966 15.1201 90.9966 16.5416C90.9966 17.9795 91.9604 19.2522 93.6802 19.2522C95.4188 19.2687 96.3638 17.9795 96.3638 16.5416ZM89.3335 16.5416C89.3335 14.3763 91.0155 12.5913 93.6802 12.5913C96.3826 12.5913 98.0268 14.3763 98.0268 16.5416C98.0268 18.7233 96.3637 20.5084 93.6802 20.5084C91.0155 20.5084 89.3335 18.7398 89.3335 16.5416Z" fill="#EC2C45"/>
<path d="M111.331 14.8722V19.6985C111.331 20.0786 110.953 20.3927 110.519 20.3927C110.084 20.3927 109.725 20.0786 109.725 19.6985V15.3019C109.725 14.4259 109.271 14.0127 108.232 14.0127C107.363 14.0127 106.493 14.8722 106.096 15.4176V19.715C106.096 20.0951 105.737 20.4092 105.284 20.4092C104.849 20.4092 104.471 20.0951 104.471 19.715V15.3185C104.471 14.4425 104.037 14.0292 102.959 14.0292C102.128 14.0292 101.277 14.9383 100.843 15.4837V19.715C100.843 20.0951 100.465 20.4092 100.049 20.4092C99.5954 20.4092 99.2363 20.0951 99.2363 19.715V13.4177C99.2363 13.021 99.5954 12.707 100.011 12.707C100.465 12.707 100.824 13.021 100.824 13.4177V13.8474C101.183 13.3846 102.317 12.5913 103.602 12.5913C104.906 12.5913 105.681 13.1863 105.945 13.9962C106.437 13.2855 107.608 12.5913 108.875 12.5913C110.5 12.6078 111.331 13.3681 111.331 14.8722Z" fill="#EC2C45"/>
<path d="M85.8186 12.6078C87.047 12.6078 87.8974 12.9549 88.5589 13.4838C88.6912 13.5995 88.8046 13.7813 88.8046 13.9466C88.8046 14.3102 88.4833 14.5912 88.0864 14.5912C87.8974 14.5912 87.7273 14.5251 87.5951 14.4424C87.1037 14.0292 86.5367 13.8639 85.8564 13.8639C84.1555 13.8639 83.0783 15.0044 83.0783 16.558C83.0783 18.1117 84.1744 19.2191 85.8564 19.2687C87.0092 19.3017 88.1431 18.5745 89.0691 17.3018C89.1825 17.1365 89.3526 16.8555 89.4849 16.6903C89.7495 16.3928 89.9385 16.5415 90.0897 16.6737C90.3731 16.9382 90.3731 17.5497 90.1842 17.8472C89.655 18.6902 89.2203 19.0869 88.729 19.5166C88.0297 20.1116 87.0092 20.5083 85.7619 20.5083C83.1539 20.5083 81.3774 18.8059 81.3774 16.5415C81.4152 14.2937 83.2106 12.6078 85.8186 12.6078Z" fill="#EC2C45"/>
<path d="M59.8141 19.1695C59.8141 19.434 58.9447 20.029 58.3211 20.2934C57.962 20.4422 57.6029 20.5083 57.0927 20.5083C55.732 20.5083 55.0327 19.8307 55.0327 18.6571V14.0292H54.2201C53.8421 14.0292 53.502 13.7482 53.502 13.4011C53.502 13.0706 53.8421 12.7896 54.2201 12.7896H55.0327V11.3516C55.0327 10.9549 55.3918 10.6409 55.8454 10.6409C56.28 10.6409 56.6391 10.9549 56.6391 11.3516V12.7896H57.773C58.1699 12.7896 58.4912 13.0706 58.4912 13.4011C58.4912 13.7482 58.1699 14.0292 57.773 14.0292H56.6391V18.3431C56.6391 18.872 56.9226 19.2687 57.4706 19.2687C58.4534 19.2687 59.2282 17.9299 59.6629 17.9299C60.0786 17.9299 59.8141 18.8224 59.8141 19.1695Z" fill="#EC2C45"/>
</svg>
