<svg width="149" height="40" viewBox="0 0 149 40" fill="none" xmlns="http://www.w3.org/2000/svg">
<path d="M20.5 14.8241C22.8235 14.8536 24.7647 15.6477 26.3824 17.2359C28 18.8241 28.7941 20.7065 28.7941 22.9712L28.7353 33.5006C28.7353 34.7653 27.6765 35.7653 26.3529 35.7653C25.0588 35.7653 24 34.7359 24.0294 33.4712L24.0882 22.9418C24.1176 22.0006 23.7353 21.0889 23.0294 20.4418C22.3529 19.7653 21.5 19.4124 20.4706 19.4124C19.4706 19.383 18.5 19.7947 17.8235 20.5006C17.1471 21.1771 16.8235 22.0889 16.8235 23.03L16.7647 33.4124C16.7647 34.6771 15.6765 35.7065 14.3529 35.7065C13.0294 35.7065 11.9706 34.6477 11.9706 33.383L12.0294 22.9418C12.0588 22.03 11.7059 21.1183 11.0588 20.4712C10.3529 19.7359 9.47059 19.383 8.41177 19.3536C7.44118 19.3241 6.52941 19.6771 5.85294 20.3536C5.14706 21.03 4.79412 21.8536 4.79412 22.8241L4.73529 33.3241C4.73529 34.5889 3.67647 35.6183 2.35294 35.5889C1.05882 35.5889 0 34.5594 0 33.2947L0.0588238 22.8241C0.0588238 20.8536 0.794118 18.9712 2.11765 17.53C3.85294 15.6771 5.97059 14.7359 8.44118 14.7653C10.7941 14.7947 12.8235 15.6183 14.4412 17.2653C16.1471 15.6183 18.1471 14.8241 20.5 14.8241ZM50.2647 26.5006L36.7647 26.4124C36.8824 28.03 37.4118 29.3241 38.3824 30.2947C39.3529 31.2359 40.5882 31.7359 42.0588 31.7359C43.2353 31.7359 44.2059 31.4712 44.9706 30.9418C45.4118 30.6183 45.9118 30.1477 46.4412 29.4712C47.1176 28.6183 48.3235 28.383 49.2941 28.883L49.4412 28.9712C50.6471 29.6183 50.9118 31.1771 50.0294 32.2065C49.8824 32.383 49.7353 32.5594 49.5588 32.7065C48.9118 33.383 48.1765 34.0006 47.3529 34.4712C46.5588 34.9418 45.7059 35.2653 44.8235 35.4712C43.9118 35.6771 42.9412 35.7947 41.8529 35.7947C38.8235 35.7653 36.3824 34.8241 34.5294 32.9124C32.7059 31.0006 31.7941 28.4712 31.8235 25.3241C31.8529 22.2065 32.7647 19.6771 34.5588 17.7653C36.3824 15.883 38.7647 14.9418 41.7353 14.9712C44.7353 15.0006 47.1176 15.9418 48.8235 17.7947C50.5294 19.6477 51.3824 22.2065 51.3824 25.4418C51.3824 26.03 50.8529 26.5006 50.2647 26.5006ZM46.5588 22.7359C45.9118 20.2947 44.3529 19.0889 41.8235 19.0594C41.2647 19.0594 40.7353 19.1183 40.2059 19.2947C39.7059 19.4418 39.2353 19.7065 38.8235 20.03C38.4118 20.3536 38.0588 20.7359 37.7647 21.1771C37.4412 21.6477 37.2353 22.1477 37.0882 22.7065L46.5588 22.7359ZM72.7353 26.5006L59.2353 26.4124C59.3529 28.03 59.8824 29.3241 60.8529 30.2947C61.8235 31.2359 63.0588 31.7359 64.5294 31.7359C65.7059 31.7359 66.6765 31.4712 67.4412 30.9418C67.9118 30.6183 68.3824 30.1477 68.9118 29.4712C69.5882 28.6183 70.7941 28.383 71.7647 28.883L71.9118 28.9712C73.1176 29.6183 73.3824 31.1771 72.5 32.2065C72.3529 32.383 72.2059 32.5594 72.0294 32.7065C71.3824 33.383 70.6471 34.0006 69.8235 34.4712C69.0294 34.9418 68.1765 35.2653 67.2941 35.4712C66.3824 35.6771 65.4118 35.7947 64.3235 35.7947C61.2941 35.7653 58.8235 34.8241 57 32.9124C55.1765 31.0006 54.2647 28.4712 54.2941 25.3241C54.3235 22.2065 55.2353 19.6771 57.0294 17.7653C58.8529 15.883 61.2353 14.9418 64.2059 14.9712C67.2059 15.0006 69.5882 15.9418 71.2941 17.7947C73 19.6477 73.8529 22.2065 73.8529 25.4418C73.8529 26.03 73.3529 26.5006 72.7353 26.5006ZM69.0294 22.7359C68.3824 20.2947 66.8235 19.0889 64.2941 19.0594C63.7353 19.0594 63.2059 19.1183 62.6765 19.2947C61.6765 19.6183 60.8235 20.2653 60.2353 21.1477C59.9118 21.6183 59.7059 22.1183 59.5588 22.6771L69.0294 22.7359ZM98.7353 4.00061C100.059 4.00061 101.118 5.05944 101.118 6.35356L101.029 16.6771C102.765 15.2065 104.647 14.8536 106.735 14.883C108.794 14.883 110.971 15.7947 112.382 17.2653C113.588 18.5594 114.147 20.6183 114.147 23.4418L114.088 33.4712C114.088 34.7653 113 35.7947 111.676 35.7947C110.353 35.7947 109.265 34.7359 109.294 33.4418L109.353 23.8536C109.353 22.2359 109.088 21.0594 108.5 20.3536C107.912 19.6183 106.971 19.2653 105.647 19.2653C103.971 19.2653 102.765 19.7653 102.088 20.7359C101.412 21.7653 101.059 23.5006 101.029 26.0006L100.971 33.4418C100.971 34.7359 99.8824 35.7653 98.5294 35.7359C97.2059 35.7359 96.1471 34.6771 96.1471 33.383L96.3529 6.38297C96.3235 5.00062 97.4118 3.9712 98.7353 4.00061ZM117 25.4124C117.029 22.6183 118.059 20.2653 120.147 18.3241C122.206 16.383 124.735 15.4124 127.706 15.4418C130.676 15.4712 133.206 16.4712 135.265 18.4418C137.294 20.4124 138.294 22.8536 138.294 25.7065C138.265 28.6183 137.235 31.0006 135.147 32.9712C133.059 34.9124 130.5 35.8536 127.5 35.8241C124.5 35.7947 122 34.7947 120 32.7947C117.971 30.8536 116.971 28.383 117 25.4124ZM121.706 25.53C121.706 27.4712 122.206 28.9712 123.265 30.1183C124.353 31.2653 125.794 31.8536 127.588 31.8536C129.382 31.8536 130.824 31.3241 131.912 30.2065C133 29.0888 133.559 27.5889 133.559 25.7359C133.559 23.8536 133.059 22.3536 131.971 21.2359C130.882 20.0889 129.441 19.5006 127.647 19.5006C125.882 19.5006 124.471 20.0594 123.353 21.1771C122.294 22.2653 121.735 23.7359 121.706 25.53ZM90.8235 25.1183C92.2647 26.1771 93 27.5594 93.0294 29.2359V29.2947C93.0294 31.3536 92.2353 33.03 90.7059 34.1771C89.3235 35.2359 87.4118 35.7947 85.1765 35.7947C82.7941 35.7947 80.2941 35.1183 78.1177 33.9124C76.9706 33.2947 76.6177 31.8536 77.3529 30.7653C77.7941 30.1477 78.5 29.7653 79.2647 29.7653C79.6765 29.7653 80.0588 29.8536 80.3824 30.0594C82.0294 30.9712 83.7353 31.4712 85.2941 31.4712C87.7353 31.4712 88 30.2947 88 29.7653V29.7065C88 28.6771 86.5882 28.1771 84.2941 27.5006C84.1471 27.4418 83.9706 27.4124 83.8235 27.3536C82.2941 26.9418 80.7059 26.4124 79.4706 25.53C78 24.4712 77.2941 23.0889 77.2941 21.2653V21.2065C77.2941 17.5006 80.4118 14.9124 84.8235 14.9124C86.6765 14.9124 88.7353 15.3536 90.5882 16.2065C91.1471 16.4712 91.6177 16.9418 91.8235 17.53C92.0294 18.1183 91.9412 18.7653 91.6471 19.2947C91.2353 20.0006 90.4706 20.4418 89.6471 20.4418C89.3235 20.4418 88.9706 20.383 88.6765 20.2359C87.2353 19.5889 85.8824 19.2359 84.7353 19.2359C83.2941 19.2359 82.3529 19.8241 82.3529 20.7359V20.7947C82.3529 21.8536 84.2059 22.4418 86.2059 23.0594L86.5882 23.1771C88 23.6477 89.5588 24.2065 90.8235 25.1183Z" fill="#F43397"/>
</svg>
