<svg width="114" height="106" viewBox="0 0 114 106" fill="none" xmlns="http://www.w3.org/2000/svg">
<g clip-path="url(#clip0_305_26)">
<path d="M86.3284 101C92.3112 100.924 97.9825 98.6618 102.1 94.5897C106.296 90.5176 108.626 85.0127 108.626 79.281V26.8696C108.626 21.0631 106.295 15.5576 102.178 11.4103C97.9825 7.33762 92.3106 5 86.3284 5H32.0223C26.04 5.0756 20.3681 7.33762 16.2508 11.4103C12.0549 15.5579 9.72461 21.0635 9.72461 26.8696V79.3566C9.80187 91.2718 19.7469 100.924 32.0223 101" fill="#CF381E"/>
<path d="M70.9463 55.9789C68.8484 62.7659 72.2666 69.5527 79.4919 66.8384C77.394 71.7403 73.8979 79.0547 73.8979 86.6716C73.8979 86.6716 73.8979 91.7997 77.7822 93.0819C77.7822 93.0819 83.2211 94.3641 82.0565 89.6884C81.2017 86.7472 80.9692 83.7311 81.3574 80.7149C82.6771 74.4552 84.6984 68.3467 87.3397 62.4648C87.3397 62.4648 95.6528 45.6475 100.469 37.8049C100.469 37.8049 102.489 33.8082 98.3713 33.8082C97.1283 33.8082 95.9625 34.4114 95.1861 35.3914L83.4554 55.6771C81.6677 58.8447 79.9592 59.8254 78.6377 59.8254C75.6861 59.8254 76.3073 55.2251 76.7734 53.5654C78.0937 47.9095 80.1916 42.4808 82.9887 37.2764C85.0866 32.8273 80.8907 32.4505 80.8907 32.4505C78.2489 31.7717 76.2301 35.9952 76.2301 35.9952L71.5682 45.1952C68.5381 50.3234 65.1971 55.2251 61.6238 59.9763C61.6238 59.9763 61.0013 60.73 60.5358 60.4289C60.0692 60.0515 60.3022 59.2977 60.3022 59.2977C61.0792 53.038 62.4001 46.8543 64.1865 40.7458C64.2644 40.3684 64.3423 40.0672 64.3423 39.6902C64.4208 38.8605 64.1865 38.0311 63.6432 37.4272C63.0992 36.7487 62.3229 36.3716 61.468 36.3716C59.3701 36.1458 58.36 37.1261 56.4964 39.3125C52.3784 44.2149 47.5614 51.6048 45.2304 54.9233C44.998 55.3001 44.5313 55.2248 44.5313 54.6968C44.5313 53.1883 49.9702 36.8993 49.9702 36.8993C49.9702 36.8993 50.5908 34.6373 48.7272 33.8831C48.7272 33.8831 45.8529 32.1487 43.5213 35.5419L32.3338 50.3234C31.4796 51.4546 31.0135 51.0778 31.0135 51.0778V50.0972L32.8005 40.4446C34.1987 33.0544 31.5575 32.677 29.8477 32.3755C28.6047 32.3755 27.2844 32.7523 26.1965 33.4315C22.7003 35.0902 20.0591 41.8023 20.0591 41.8023C20.0591 41.8023 19.2821 44.2152 20.9906 45.1952C21.5352 45.4966 22.1564 45.7231 22.7782 45.6478C25.2643 45.4969 25.7304 41.0475 27.5174 41.0475C27.8283 41.0475 27.8283 41.4249 27.8283 41.5005L22.0791 64.9539C21.6903 66.311 22.3122 67.7437 23.478 68.4979C24.2543 68.9509 25.1092 69.0259 25.9634 68.8747C26.7404 68.6491 27.4395 68.1211 27.9056 67.4426L30.0029 64.2751C33.0336 59.0712 38.6276 51.6054 39.1709 51.6054C39.404 51.6054 39.4825 51.6054 39.4825 51.8313L37.3839 65.6324C37.1509 66.839 37.8506 68.1205 39.0158 68.6485C40.1031 69.0253 41.2689 68.9497 42.2782 68.4223C43.444 67.5176 44.4541 66.386 45.1538 65.1038C46.3183 63.2942 51.9124 56.8839 55.33 51.0019C55.5643 50.6245 55.7967 51.0019 55.7194 51.2284C55.0203 54.3201 54.4751 62.5397 54.3985 64.5759C54.2427 68.5729 57.4279 69.0253 57.5064 69.0253C59.6043 69.1759 61.6238 68.2711 62.7895 66.6122" fill="white"/>
</g>
<defs>
<clipPath id="clip0_305_26">
<rect width="114" height="106" fill="white"/>
</clipPath>
</defs>
</svg>
