<svg width="501" height="160" viewBox="0 0 501 160" fill="none" xmlns="http://www.w3.org/2000/svg">
<g clip-path="url(#clip0_1328_612)">
<path d="M329.318 159.048C338.92 158.923 348.022 155.182 354.63 148.449C361.364 141.716 365.104 132.614 365.104 123.137V36.4783C365.104 26.8777 361.363 17.7746 354.755 10.9173C348.022 4.18346 338.919 0.318359 329.318 0.318359H242.161C232.56 0.443359 223.457 4.18346 216.849 10.9173C210.115 17.7751 206.375 26.8783 206.375 36.4783V123.262C206.499 142.963 222.46 158.923 242.161 159.048" fill="#CF381E"/>
<path d="M304.63 84.6086C301.263 95.8305 306.749 107.052 318.345 102.564C314.978 110.669 309.367 122.763 309.367 135.357C309.367 135.357 309.367 143.836 315.601 145.956C315.601 145.956 324.33 148.076 322.461 140.345C321.089 135.482 320.716 130.495 321.339 125.508C323.457 115.158 326.701 105.058 330.94 95.3326C330.94 95.3326 344.282 67.5263 352.012 54.5591C352.012 54.5591 355.253 47.9508 348.645 47.9508C346.65 47.9508 344.779 48.9482 343.533 50.5685L324.706 84.1096C321.837 89.3471 319.095 90.9685 316.974 90.9685C312.237 90.9685 313.234 83.3622 313.982 80.618C316.101 71.2664 319.468 62.2904 323.957 53.6852C327.324 46.3289 320.59 45.706 320.59 45.706C316.35 44.5836 313.11 51.5669 313.11 51.5669L305.628 66.7784C300.765 75.2576 295.403 83.3622 289.668 91.218C289.668 91.218 288.669 92.4643 287.922 91.9664C287.173 91.3424 287.547 90.0961 287.547 90.0961C288.794 79.7461 290.914 69.5216 293.781 59.4216C293.906 58.7977 294.031 58.2997 294.031 57.6763C294.157 56.3044 293.781 54.9331 292.909 53.9346C292.036 52.8128 290.79 52.1893 289.418 52.1893C286.051 51.8159 284.43 53.4367 281.439 57.0518C274.83 65.1576 267.099 77.3763 263.358 82.8633C262.985 83.4862 262.236 83.3617 262.236 82.4888C262.236 79.9945 270.965 53.0617 270.965 53.0617C270.965 53.0617 271.961 49.3216 268.97 48.0747C268.97 48.0747 264.357 45.207 260.615 50.8174L242.66 75.2576C241.289 77.1279 240.541 76.5049 240.541 76.5049V74.8836L243.409 58.9237C245.653 46.7044 241.414 46.0805 238.67 45.582C236.675 45.582 234.556 46.2049 232.81 47.3279C227.199 50.0706 222.96 61.1685 222.96 61.1685C222.96 61.1685 221.713 65.1581 224.455 66.7784C225.329 67.2768 226.326 67.6513 227.324 67.5268C231.314 67.2773 232.062 59.9206 234.93 59.9206C235.429 59.9206 235.429 60.5445 235.429 60.6695L226.202 99.4482C225.578 101.692 226.576 104.061 228.447 105.308C229.693 106.057 231.065 106.181 232.436 105.931C233.683 105.558 234.805 104.685 235.553 103.563L238.919 98.3258C243.783 89.7216 252.761 77.3773 253.633 77.3773C254.007 77.3773 254.133 77.3773 254.133 77.7508L250.765 100.57C250.391 102.565 251.514 104.684 253.384 105.557C255.129 106.18 257 106.055 258.62 105.183C260.491 103.687 262.112 101.816 263.235 99.6961C265.104 96.7039 274.082 86.1049 279.567 76.3794C279.943 75.7555 280.316 76.3794 280.192 76.7539C279.07 81.8659 278.195 95.4565 278.072 98.8232C277.822 105.432 282.934 106.18 283.06 106.18C286.427 106.429 289.668 104.933 291.539 102.19" fill="white"/>
<path d="M36.2991 99.6958H26.3236V77.3766C26.4486 74.8828 25.9491 72.3885 24.8278 70.2693C23.7054 68.6479 21.7106 67.6505 19.7153 67.9C17.9694 67.9 16.3486 68.2745 14.9773 69.1474C13.4804 70.1448 12.234 71.5156 11.3616 73.0125V99.6953H1.38611V59.1729H6.99652L10.7377 64.6583C11.7351 63.7854 12.7325 63.037 13.7299 62.2896C14.7273 61.6656 15.7247 61.1677 16.847 60.6682C17.9689 60.1693 19.0918 59.7953 20.2137 59.5464C21.3356 59.2969 22.583 59.1729 23.8299 59.1729C25.2012 59.1729 26.5726 59.2964 27.8194 59.6708C28.8168 60.0453 29.8142 60.4188 30.8116 61.0417C31.5606 61.6656 32.308 62.4141 32.9314 63.1625C33.6799 64.1589 34.1788 65.0318 34.6778 66.0302C35.4257 65.2813 36.2986 64.4089 37.296 63.6609C38.2934 62.9125 39.4153 62.1641 40.6622 61.5411C41.7845 60.7932 43.0319 60.1693 44.4033 59.6708C45.8997 59.2964 47.3955 59.0469 49.0163 59.0469C51.0111 59.0469 52.8819 59.5464 54.6273 60.4188C56.2481 61.4167 57.62 62.6635 58.4929 64.1594C59.4903 66.0307 60.2382 67.901 60.6121 70.0203C61.1111 72.3891 61.3606 74.7594 61.3606 77.2526V99.6964H51.2616V77.3771C51.5111 74.8833 51.0121 72.3891 49.7658 70.2698C48.6434 68.6484 46.7726 67.651 44.7778 67.9005C43.1569 67.9005 41.5356 68.275 40.0392 69.1479C38.5434 70.1453 37.1715 71.3927 36.2991 73.013" fill="#174880"/>
<path d="M93.9054 81.2414H85.0528C83.182 81.1169 81.4366 81.6164 79.8153 82.6138C78.8179 83.6112 78.1945 84.9831 78.1945 86.4789C78.1945 87.8508 78.6934 89.0977 79.6908 90.0951C80.8127 90.968 82.309 91.4659 83.8054 91.3414C84.9273 91.3414 86.0502 91.2175 87.1721 90.843C88.1695 90.5935 89.1669 90.219 90.0398 89.7211C90.9127 89.0982 91.6606 88.4737 92.2846 87.8508C93.033 87.1018 93.5314 86.3539 94.0304 85.606M93.9054 95.2076C92.5335 96.5784 90.7887 97.7008 89.0424 98.4498C86.6736 99.3227 84.1793 99.8206 81.6856 99.6961C79.9403 99.8206 78.07 99.4472 76.4486 98.8232C74.9523 98.2003 73.5809 97.3279 72.334 96.2055C71.2116 94.9581 70.3392 93.5867 69.7158 92.0909C69.0924 90.4695 68.8429 88.7242 68.8429 86.9789C68.8429 79.4977 74.7033 74.6341 84.0554 74.6341H94.0299V72.3893C94.0299 70.8935 93.157 69.6472 91.9106 69.0232C89.9153 68.1498 87.671 67.6513 85.4267 67.7758C82.933 67.7758 80.4392 68.1498 78.07 68.6487C76.1997 69.1482 74.3288 69.7711 72.459 70.5201L71.3372 62.1649C71.9606 61.7914 72.8335 61.5419 73.9554 61.1685C74.9528 60.794 76.2002 60.5446 77.3226 60.1701C78.4439 59.9206 79.9408 59.6716 81.4366 59.4216C82.933 59.1732 84.5538 59.1732 86.1752 59.1732C90.7887 58.7972 95.5267 60.2951 99.0179 63.2862C102.135 66.5294 103.631 70.8925 103.382 75.257V99.6956H96.2747L93.9054 95.2076Z" fill="#174880"/>
<path d="M150.14 58.5486L134.055 78.7486L152.385 99.571H139.916L122.958 78.998V99.571H113.107V44.084H122.958V78.998L138.045 58.5486H150.14Z" fill="#174880"/>
<path d="M172.21 68.1485C170.963 68.1485 169.716 68.274 168.594 68.6475C167.597 68.8969 166.599 69.3964 165.851 70.0193C164.978 70.5188 164.354 71.2657 163.855 72.1391C163.357 73.012 162.983 73.8844 162.734 74.8824H180.315C180.315 74.0094 180.19 73.1365 179.816 72.2641C179.566 71.5152 178.943 70.7678 178.319 70.1449C177.572 69.5209 176.699 69.0225 175.826 68.648C174.579 68.2745 173.332 68.0245 172.21 68.1485ZM174.08 90.9678C175.576 90.9678 177.197 90.8428 178.693 90.4683C180.065 90.2188 181.437 89.8454 182.684 89.3464C183.806 88.9725 184.928 88.4735 185.926 87.8506C186.425 87.6011 186.923 87.2266 187.422 86.8532L189.292 95.7053C187.173 96.8277 184.928 97.8251 182.559 98.573C179.815 99.3219 176.948 99.6954 174.08 99.6954C170.963 99.6954 167.845 99.1969 164.853 98.1995C162.484 97.3272 160.115 95.9548 158.244 94.085C156.374 92.3386 155.002 90.0954 154.13 87.7261C153.008 85.2318 152.509 82.4886 152.384 79.6209C152.384 77.0021 152.758 74.3829 153.631 71.8897C154.504 69.3964 155.751 67.2761 157.497 65.2813C159.117 63.412 161.237 61.9141 163.606 60.9178C168.967 58.7969 175.077 58.7969 180.439 60.9178C182.684 61.7907 184.553 63.286 186.175 65.0313C187.671 66.7777 188.793 68.7725 189.541 70.8923C190.164 73.137 190.539 75.5048 190.539 77.8756C190.539 78.4985 190.539 79.2464 190.539 79.9938C190.414 80.7428 190.29 81.4907 190.164 82.1136H162.608C162.733 83.4855 163.107 84.7324 163.73 85.8553C164.229 86.9771 165.102 87.9745 166.1 88.723C167.097 89.5954 168.219 90.2183 169.591 90.4683C170.963 90.9678 172.459 91.2173 174.079 91.2173V90.9678H174.08Z" fill="#174880"/>
<path d="M374.829 64.9077L388.047 48.9473H391.04V59.0467H402.387V67.7754H391.04V84.4837C391.04 85.3566 391.164 86.354 391.414 87.3514C391.663 87.9754 392.037 88.5988 392.536 89.2217C393.035 89.5962 393.658 89.9707 394.281 90.0957C394.904 90.3447 395.529 90.4691 396.276 90.4691C397.398 90.4691 398.521 90.3447 399.519 89.9712C400.516 89.8462 401.389 89.4717 402.262 89.0983V97.9504C401.265 98.4499 400.143 98.8233 398.894 99.0728C395.404 99.8207 391.787 99.6957 388.42 98.6983C386.801 98.1999 385.429 97.3275 384.181 96.2051C383.185 95.0827 382.312 93.7108 381.813 92.2155C381.313 90.5941 380.94 88.7238 381.064 86.978V68.0249H374.581" fill="#174880"/>
<path d="M419.344 67.5258C420.84 65.0315 422.709 62.9128 425.08 61.2909C427.075 59.795 429.569 59.0461 432.187 59.1727C432.936 59.0466 433.683 59.0466 434.432 59.1727L435.804 59.4211C435.804 59.4211 435.554 61.6659 434.057 68.6482C433.31 68.5247 432.561 68.3987 431.814 68.5247C430.067 68.3987 428.447 68.7732 426.826 69.3971C425.33 70.0201 424.082 71.0174 423.086 72.2648C422.087 73.5112 421.214 75.0081 420.715 76.6284C420.218 78.6232 419.968 80.618 419.968 82.6143V99.6961H409.993V59.1727H416.227" fill="#174880"/>
<path d="M480.567 68.0249C479.444 67.9004 478.322 68.1488 477.324 68.5243C476.327 68.8978 475.454 69.3967 474.579 70.0197C473.833 70.5191 473.21 71.266 472.585 72.015C472.087 72.7639 471.588 73.5103 471.338 74.3832V85.8556C471.712 86.6035 472.211 87.2264 472.834 87.8504C473.459 88.4733 474.082 88.9723 474.829 89.4707C475.702 89.9702 476.574 90.3436 477.449 90.5931C479.941 91.2165 482.561 91.0921 484.929 90.2181C486.051 89.5952 487.174 88.8473 487.923 87.8499C488.795 86.8525 489.418 85.6051 489.792 84.3582C490.165 82.8624 490.415 81.241 490.541 79.6202C490.541 78.1238 490.291 76.5035 489.792 74.8816C489.418 73.5092 488.795 72.2634 487.923 71.141C487.048 70.1436 486.051 69.2697 484.805 68.7712C483.557 68.1478 482.311 67.8988 480.939 67.8988M483.309 59.1728C486.053 59.0467 488.671 59.6707 491.041 60.7931C493.16 61.9139 494.905 63.4118 496.401 65.4066C497.773 67.4014 498.895 69.6462 499.518 72.015C500.143 74.5087 500.516 77.1269 500.516 79.6212C500.516 82.2389 500.143 84.8587 499.394 87.3514C498.772 89.7212 497.649 91.8405 496.153 93.7108C494.655 95.5811 492.91 97.078 490.791 98.0754C488.547 99.1973 485.927 99.6957 483.435 99.6957C480.94 99.6957 478.572 99.3223 476.327 98.4493C474.456 97.5754 472.711 96.4535 471.339 94.8332V115.906H461.364V59.1728H467.225L471.089 64.0353C472.585 62.5384 474.456 61.291 476.575 60.2947C478.696 59.5457 480.94 59.0467 483.185 59.1728H483.309Z" fill="#174880"/>
<path d="M446.028 42.5878C443.16 42.5878 440.916 44.8326 440.916 47.6998C440.916 50.567 443.161 52.9378 446.028 52.9378C448.895 52.9378 451.14 50.5675 451.14 47.6998C451.263 46.3279 450.64 45.0821 449.642 44.0842C448.769 43.0868 447.399 42.4639 446.028 42.4639M450.89 99.6956H440.916V59.1727H450.89V99.6956Z" fill="#174880"/>
</g>
<defs>
<clipPath id="clip0_1328_612">
<rect width="500" height="158.854" fill="white" transform="translate(0.951172 0.255859)"/>
</clipPath>
</defs>
</svg>
