<svg width="63" height="50" viewBox="0 0 63 50" fill="none" xmlns="http://www.w3.org/2000/svg">
<path fill-rule="evenodd" clip-rule="evenodd" d="M31.8898 43.704C31.8635 43.7092 31.8378 43.7169 31.8131 43.727C31.8398 43.724 31.8658 43.7162 31.8898 43.704ZM30.3637 43.75C30.3529 43.7511 30.342 43.7484 30.333 43.7423C30.342 43.7484 30.3529 43.7511 30.3637 43.75ZM31.6444 43.7653C31.5907 43.773 31.5217 43.7883 31.4756 43.796C31.5217 43.7883 31.583 43.773 31.6444 43.7653ZM31.3376 43.8037C31.2919 43.8099 31.2457 43.8124 31.1996 43.8114C31.2455 43.8201 31.2929 43.8175 31.3376 43.8037Z" fill="#F37320"/>
<path fill-rule="evenodd" clip-rule="evenodd" d="M31.4603 43.7883C31.4143 43.7883 31.3683 43.796 31.3376 43.796C31.3787 43.7968 31.4197 43.7943 31.4603 43.7883ZM30.3407 43.75C30.2684 43.7383 30.1967 43.723 30.126 43.704C30.195 43.7117 30.264 43.7347 30.3407 43.75ZM31.8208 43.7193C31.7606 43.7391 31.6991 43.7545 31.6367 43.7653C31.6991 43.7545 31.7606 43.7391 31.8208 43.7193ZM30.9389 43.819C30.7479 43.815 30.5578 43.7918 30.3714 43.75C30.557 43.796 30.7476 43.8192 30.9389 43.819ZM31.1919 43.8113C31.1382 43.8113 31.0692 43.819 31.0002 43.819C31.0642 43.8206 31.1283 43.818 31.1919 43.8113ZM43.4235 11.9479H43.4159C43.3082 11.9071 43.1934 11.8889 43.0784 11.8942C43.2305 11.9069 43.3802 11.9405 43.5232 11.9939C43.4886 11.9817 43.4552 11.9663 43.4235 11.9479Z" fill="#F15E22"/>
<path fill-rule="evenodd" clip-rule="evenodd" d="M42.6564 11.9479H42.6487C42.613 11.9691 42.5742 11.9846 42.5337 11.9939C42.7112 11.9322 42.8979 11.9011 43.0858 11.9018C42.9411 11.8807 42.7934 11.8965 42.6564 11.9479Z" fill="#EC008B"/>
<path fill-rule="evenodd" clip-rule="evenodd" d="M47.0355 13.1825C46.9251 13.1423 46.8079 13.1241 46.6904 13.1288C46.8436 13.1342 46.9944 13.168 47.1352 13.2285C47.1037 13.2098 47.0703 13.1943 47.0355 13.1825Z" fill="#F15E22"/>
<path fill-rule="evenodd" clip-rule="evenodd" d="M46.2609 13.1748C46.2238 13.2004 46.1821 13.2187 46.1382 13.2285C46.3117 13.1611 46.4965 13.1273 46.6827 13.1288C46.5404 13.1128 46.3964 13.1286 46.2609 13.1748Z" fill="#EC008B"/>
<path fill-rule="evenodd" clip-rule="evenodd" d="M47.1888 13.2592C47.0779 13.2214 46.9607 13.2058 46.8438 13.2132C46.9964 13.2164 47.1472 13.2476 47.2885 13.3052C47.2502 13.2899 47.2272 13.2745 47.1888 13.2592Z" fill="#F15E22"/>
<path fill-rule="evenodd" clip-rule="evenodd" d="M46.422 13.2515C46.3837 13.2745 46.3453 13.2822 46.2993 13.3052C46.4727 13.2371 46.6576 13.2033 46.8438 13.2055C46.7016 13.1962 46.5589 13.2118 46.422 13.2515Z" fill="#EC008B"/>
<path fill-rule="evenodd" clip-rule="evenodd" d="M18.3004 5.54448H18.3081C18.3388 5.53681 18.3848 5.52147 18.4231 5.5138C15.3787 5.97392 8.63019 16.8328 5.00289 26.7945C1.14552 37.4003 2.07344 42.5153 5.10258 43.6273H5.11025C8.13939 44.7239 12.1348 41.4034 15.9998 30.7899C17.0428 27.9294 17.9323 24.8313 18.6379 21.8252C16.759 13.7423 16.3449 6.28067 18.3004 5.54448Z" fill="#F13AB1"/>
<path fill-rule="evenodd" clip-rule="evenodd" d="M29.8881 43.6273C26.8436 42.5077 25.931 37.385 29.7884 26.7945C30.1718 25.7439 30.5782 24.6779 31.0307 23.6273C27.066 14.1564 20.954 4.977 18.4233 5.50614C18.606 5.48116 18.7919 5.49687 18.9678 5.55215H18.9755V5.55982C20.9356 6.28835 20.5169 13.7423 18.635 21.8328C19.3275 24.8704 20.2086 27.8619 21.273 30.7899C24.3175 39.1488 27.4463 42.9755 30.1151 43.6887C30.0371 43.6735 29.9602 43.653 29.885 43.6273" fill="#FD913C"/>
<path fill-rule="evenodd" clip-rule="evenodd" d="M18.968 5.55981H18.9603C18.7921 5.50561 18.6139 5.48988 18.4389 5.5138C18.3852 5.52147 18.3622 5.53681 18.3162 5.54448H18.3085C16.353 6.28067 16.7671 13.7423 18.6382 21.8252C20.5017 13.7423 20.9235 6.29601 18.968 5.55981Z" fill="#F05524"/>
<path fill-rule="evenodd" clip-rule="evenodd" d="M42.8637 5.59816C40.0263 6.62577 34.6582 15.0153 31.0386 23.6196C31.4834 24.6702 31.8975 25.7362 32.2809 26.7868C36.1383 37.385 35.218 42.5077 32.1812 43.612V43.6196C32.0892 43.6426 31.9895 43.6733 31.9128 43.6963C34.5892 43.0061 37.7487 39.1871 40.7855 30.7822C41.8245 27.9321 42.6851 25.02 43.3622 22.0629C41.4834 14.0491 41.0079 6.57209 42.8637 5.59816Z" fill="#FD913C"/>
<path fill-rule="evenodd" clip-rule="evenodd" d="M32.1655 43.6196H32.1732C35.2024 42.5153 36.1226 37.3773 32.2729 26.7868C31.8741 25.7362 31.4677 24.6702 31.0152 23.6196C30.5705 24.6702 30.1563 25.7362 29.7729 26.7868C25.9155 37.385 26.8435 42.5153 29.8726 43.6196C29.9493 43.6503 30.0336 43.6656 30.1103 43.6886C30.1799 43.7137 30.2519 43.7317 30.3251 43.7423H30.3557C30.5447 43.7857 30.7372 43.8114 30.9309 43.819H31.1763C31.2229 43.8157 31.2691 43.808 31.3143 43.796C31.368 43.796 31.4063 43.7883 31.46 43.7883C31.5137 43.7883 31.5597 43.7653 31.6211 43.7577C31.6835 43.7556 31.7454 43.7453 31.8051 43.727C31.8358 43.727 31.8588 43.7193 31.8818 43.7193C31.9815 43.681 32.0735 43.658 32.1655 43.6196Z" fill="#F05524"/>
<path fill-rule="evenodd" clip-rule="evenodd" d="M43.8299 5.59049C45.7088 6.52608 45.241 14.0107 43.3545 22.0782C44.034 25.0288 44.8919 27.9355 45.9235 30.7822C49.7885 41.388 53.7839 44.7163 56.8284 43.6196H56.8361C59.8576 42.5 60.7855 37.3926 56.9281 26.7868C53.4235 17.1626 47.0094 6.71012 43.8299 5.59049Z" fill="#F13AB1"/>
<path fill-rule="evenodd" clip-rule="evenodd" d="M43.8299 5.59049C43.6865 5.53833 43.5371 5.50482 43.3851 5.4908C43.1986 5.49959 43.0148 5.53843 42.8407 5.60583C41.0002 6.57976 41.4603 14.0414 43.3468 22.0782C45.2486 14.0184 45.7088 6.53374 43.8299 5.59049Z" fill="#F05524"/>
</svg>
