<svg width="92" height="25" viewBox="0 0 92 25" fill="none" xmlns="http://www.w3.org/2000/svg">
<path fill-rule="evenodd" clip-rule="evenodd" d="M15.9449 21.852C15.9318 21.8546 15.9189 21.8584 15.9065 21.8635C15.9199 21.862 15.9329 21.8581 15.9449 21.852ZM15.1818 21.875C15.1764 21.8756 15.171 21.8742 15.1665 21.8712C15.171 21.8742 15.1764 21.8756 15.1818 21.875ZM15.8222 21.8827C15.7953 21.8865 15.7608 21.8942 15.7378 21.898C15.7608 21.8942 15.7915 21.8865 15.8222 21.8827ZM15.6688 21.9018C15.6459 21.9049 15.6229 21.9062 15.5998 21.9057C15.6228 21.9101 15.6465 21.9087 15.6688 21.9018Z" fill="#F37320"/>
<path fill-rule="evenodd" clip-rule="evenodd" d="M15.7302 21.8942C15.7072 21.8942 15.6842 21.898 15.6688 21.898C15.6893 21.8984 15.7099 21.8971 15.7302 21.8942ZM15.1704 21.875C15.1342 21.8692 15.0984 21.8615 15.063 21.852C15.0975 21.8558 15.132 21.8673 15.1704 21.875ZM15.9104 21.8597C15.8803 21.8696 15.8496 21.8773 15.8184 21.8827C15.8496 21.8773 15.8803 21.8696 15.9104 21.8597ZM15.4694 21.9095C15.3739 21.9075 15.2789 21.8959 15.1857 21.875C15.2785 21.898 15.3738 21.9096 15.4694 21.9095ZM15.596 21.9057C15.5691 21.9057 15.5346 21.9095 15.5001 21.9095C15.5321 21.9103 15.5641 21.909 15.596 21.9057ZM21.7118 5.97393H21.7079C21.6541 5.95356 21.5967 5.94443 21.5392 5.94709C21.6153 5.95347 21.6901 5.97024 21.7616 5.99693C21.7443 5.99086 21.7276 5.98316 21.7118 5.97393Z" fill="#F15E22"/>
<path fill-rule="evenodd" clip-rule="evenodd" d="M21.3284 5.97392H21.3246C21.3067 5.98454 21.2873 5.9923 21.2671 5.99693C21.3559 5.96611 21.4492 5.95055 21.5432 5.95092C21.4708 5.94034 21.3969 5.94825 21.3284 5.97392Z" fill="#EC008B"/>
<path fill-rule="evenodd" clip-rule="evenodd" d="M23.5178 6.59126C23.4625 6.57116 23.4039 6.56204 23.3452 6.56442C23.4218 6.56708 23.4972 6.58398 23.5676 6.61426C23.5518 6.60488 23.5351 6.59717 23.5178 6.59126Z" fill="#F15E22"/>
<path fill-rule="evenodd" clip-rule="evenodd" d="M23.1302 6.58743C23.1117 6.60022 23.0908 6.60933 23.0688 6.61427C23.1556 6.58056 23.248 6.56364 23.3411 6.56442C23.27 6.55642 23.1979 6.56428 23.1302 6.58743Z" fill="#EC008B"/>
<path fill-rule="evenodd" clip-rule="evenodd" d="M23.5944 6.6296C23.539 6.6107 23.4803 6.60288 23.4219 6.6066C23.4982 6.60819 23.5736 6.62378 23.6443 6.65261C23.6251 6.64494 23.6136 6.63727 23.5944 6.6296Z" fill="#F15E22"/>
<path fill-rule="evenodd" clip-rule="evenodd" d="M23.2108 6.62577C23.1916 6.63727 23.1724 6.64111 23.1494 6.65261C23.2361 6.61858 23.3285 6.60165 23.4217 6.60276C23.3506 6.59813 23.2792 6.60591 23.2108 6.62577Z" fill="#EC008B"/>
<path fill-rule="evenodd" clip-rule="evenodd" d="M9.15022 2.77224H9.15405C9.16939 2.7684 9.1924 2.76074 9.21157 2.7569C7.68933 2.98696 4.31509 8.41641 2.50144 13.3972C0.572762 18.7001 1.03672 21.2577 2.55129 21.8136H2.55512C4.0697 22.362 6.06739 20.7017 7.99991 15.3949C8.52138 13.9647 8.96617 12.4156 9.31893 10.9126C8.37951 6.87116 8.17246 3.14034 9.15022 2.77224Z" fill="#F13AB1"/>
<path fill-rule="evenodd" clip-rule="evenodd" d="M14.9438 21.8136C13.4216 21.2538 12.9653 18.6925 14.8939 13.3972C15.0857 12.8719 15.2889 12.339 15.5151 11.8136C13.5327 7.07822 10.4768 2.48849 9.21143 2.75307C9.30276 2.74058 9.39572 2.74843 9.48366 2.77607H9.4875V2.77991C10.4676 3.14417 10.2582 6.87116 9.31725 10.9164C9.66351 12.4352 10.104 13.9309 10.6363 15.3949C12.1585 19.5744 13.7229 21.4877 15.0573 21.8443C15.0183 21.8367 14.9799 21.8265 14.9423 21.8136" fill="#FD913C"/>
<path fill-rule="evenodd" clip-rule="evenodd" d="M9.48375 2.77991H9.47992C9.39583 2.75281 9.30672 2.74494 9.21918 2.7569C9.19234 2.76074 9.18084 2.76841 9.15783 2.77224H9.154C8.17624 3.14034 8.38329 6.87117 9.31888 10.9126C10.2506 6.87117 10.4615 3.14801 9.48375 2.77991Z" fill="#F05524"/>
<path fill-rule="evenodd" clip-rule="evenodd" d="M21.4316 2.79908C20.0129 3.31288 17.3289 7.50767 15.519 11.8098C15.7414 12.3351 15.9485 12.8681 16.1402 13.3934C18.0689 18.6925 17.6088 21.2538 16.0904 21.806V21.8098C16.0444 21.8213 15.9945 21.8367 15.9562 21.8482C17.2944 21.5031 18.8741 19.5936 20.3925 15.3911C20.912 13.966 21.3423 12.51 21.6809 11.0314C20.7414 7.02454 20.5037 3.28604 21.4316 2.79908Z" fill="#FD913C"/>
<path fill-rule="evenodd" clip-rule="evenodd" d="M16.083 21.8098H16.0869C17.6014 21.2577 18.0615 18.6886 16.1367 13.3934C15.9373 12.8681 15.7341 12.3351 15.5079 11.8098C15.2855 12.3351 15.0784 12.8681 14.8867 13.3934C12.958 18.6925 13.422 21.2577 14.9365 21.8098C14.9749 21.8251 15.0171 21.8328 15.0554 21.8443C15.0902 21.8569 15.1262 21.8658 15.1628 21.8712H15.1781C15.2726 21.8928 15.3688 21.9057 15.4657 21.9095H15.5884C15.6117 21.9079 15.6348 21.904 15.6574 21.898C15.6842 21.898 15.7034 21.8942 15.7303 21.8942C15.7571 21.8942 15.7801 21.8827 15.8108 21.8788C15.842 21.8778 15.8729 21.8726 15.9028 21.8635C15.9181 21.8635 15.9296 21.8597 15.9411 21.8597C15.991 21.8405 16.037 21.829 16.083 21.8098Z" fill="#F05524"/>
<path fill-rule="evenodd" clip-rule="evenodd" d="M21.915 2.79525C22.8544 3.26304 22.6205 7.00537 21.6772 11.0391C22.017 12.5144 22.446 13.9678 22.9618 15.3911C24.8943 20.694 26.892 22.3581 28.4142 21.8098H28.418C29.9288 21.25 30.3927 18.6963 28.4641 13.3934C26.7118 8.58129 23.5047 3.35506 21.915 2.79525Z" fill="#F13AB1"/>
<path fill-rule="evenodd" clip-rule="evenodd" d="M21.915 2.79525C21.8433 2.76916 21.7685 2.75241 21.6926 2.7454C21.5993 2.7498 21.5074 2.76922 21.4203 2.80291C20.5001 3.28988 20.7301 7.02071 21.6734 11.0391C22.6243 7.0092 22.8544 3.26687 21.915 2.79525Z" fill="#F05524"/>
<path d="M37.5159 6.36364H40.0954L43.55 14.7955H43.6863L47.1409 6.36364H49.7204V18H47.6977V10.0057H47.5898L44.3738 17.9659H42.8625L39.6466 9.98864H39.5386V18H37.5159V6.36364ZM53.2034 21.2727C52.9231 21.2727 52.6636 21.25 52.425 21.2045C52.1901 21.1629 52.0026 21.1136 51.8625 21.0568L52.3398 19.4545C52.639 19.5417 52.906 19.5833 53.1409 19.5795C53.3757 19.5758 53.5822 19.5019 53.7602 19.358C53.942 19.2178 54.0954 18.983 54.2204 18.6534L54.3966 18.1818L51.2318 9.27273H53.4136L55.425 15.8636H55.5159L57.5329 9.27273H59.7204L56.2261 19.0568C56.0632 19.5189 55.8473 19.9148 55.5784 20.2443C55.3095 20.5777 54.9799 20.8314 54.5898 21.0057C54.2034 21.1837 53.7413 21.2727 53.2034 21.2727ZM63.2006 12.8864V18H61.1437V9.27273H63.1096V10.7557H63.2119C63.4127 10.267 63.7327 9.87879 64.1721 9.59091C64.6153 9.30303 65.1627 9.15909 65.8142 9.15909C66.4165 9.15909 66.9411 9.28788 67.3881 9.54545C67.8388 9.80303 68.1873 10.1761 68.4335 10.6648C68.6835 11.1534 68.8066 11.7462 68.8028 12.4432V18H66.746V12.7614C66.746 12.178 66.5945 11.7216 66.2915 11.392C65.9922 11.0625 65.5774 10.8977 65.0471 10.8977C64.6873 10.8977 64.3672 10.9773 64.0869 11.1364C63.8104 11.2917 63.5926 11.517 63.4335 11.8125C63.2782 12.108 63.2006 12.4659 63.2006 12.8864ZM75.2517 9.27273V10.8636H70.2346V9.27273H75.2517ZM71.4733 7.18182H73.5301V15.375C73.5301 15.6515 73.5718 15.8636 73.6551 16.0114C73.7422 16.1553 73.8559 16.2538 73.996 16.3068C74.1362 16.3598 74.2915 16.3864 74.4619 16.3864C74.5907 16.3864 74.7081 16.3769 74.8142 16.358C74.924 16.339 75.0074 16.322 75.0642 16.3068L75.4108 17.9148C75.3009 17.9527 75.1437 17.9943 74.9392 18.0398C74.7384 18.0852 74.4922 18.1117 74.2006 18.1193C73.6854 18.1345 73.2214 18.0568 72.8085 17.8864C72.3956 17.7121 72.068 17.4432 71.8256 17.0795C71.5869 16.7159 71.4695 16.2614 71.4733 15.7159V7.18182ZM76.9719 18V9.27273H78.9662V10.7273H79.0571C79.2162 10.2235 79.4889 9.83523 79.8753 9.5625C80.2654 9.28598 80.7105 9.14773 81.2105 9.14773C81.3241 9.14773 81.451 9.15341 81.5912 9.16477C81.7351 9.17235 81.8544 9.18561 81.9491 9.20455V11.0966C81.862 11.0663 81.7238 11.0398 81.5344 11.017C81.3488 10.9905 81.1688 10.9773 80.9946 10.9773C80.6196 10.9773 80.2825 11.0587 79.9832 11.2216C79.6878 11.3807 79.4548 11.6023 79.2844 11.8864C79.1139 12.1705 79.0287 12.4981 79.0287 12.8693V18H76.9719ZM85.6707 18.1761C85.1177 18.1761 84.6196 18.0777 84.1764 17.8807C83.737 17.6799 83.3885 17.3845 83.1309 16.9943C82.8772 16.6042 82.7503 16.1231 82.7503 15.5511C82.7503 15.0587 82.8412 14.6515 83.023 14.3295C83.2048 14.0076 83.4529 13.75 83.7673 13.5568C84.0817 13.3636 84.4359 13.2178 84.8298 13.1193C85.2275 13.017 85.6385 12.9432 86.0628 12.8977C86.5741 12.8447 86.9889 12.7973 87.3071 12.7557C87.6253 12.7102 87.8563 12.642 88.0003 12.5511C88.148 12.4564 88.2219 12.3106 88.2219 12.1136V12.0795C88.2219 11.6515 88.095 11.3201 87.8412 11.0852C87.5874 10.8504 87.2219 10.733 86.7446 10.733C86.2408 10.733 85.8412 10.8428 85.5457 11.0625C85.2541 11.2822 85.0571 11.5417 84.9548 11.8409L83.0344 11.5682C83.1859 11.0379 83.4359 10.5947 83.7844 10.2386C84.1328 9.87879 84.559 9.60985 85.0628 9.43182C85.5666 9.25 86.1234 9.15909 86.7332 9.15909C87.1537 9.15909 87.5722 9.20833 87.9889 9.30682C88.4056 9.4053 88.7863 9.56818 89.1309 9.79545C89.4756 10.0189 89.7522 10.3239 89.9605 10.7102C90.1726 11.0966 90.2787 11.5795 90.2787 12.1591V18H88.3014V16.8011H88.2332C88.1082 17.0436 87.9321 17.2708 87.7048 17.483C87.4813 17.6913 87.1991 17.8598 86.8582 17.9886C86.5211 18.1136 86.1253 18.1761 85.6707 18.1761ZM86.2048 16.6648C86.6177 16.6648 86.9756 16.5833 87.2787 16.4205C87.5817 16.2538 87.8147 16.0341 87.9775 15.7614C88.1442 15.4886 88.2275 15.1913 88.2275 14.8693V13.8409C88.1631 13.8939 88.0533 13.9432 87.898 13.9886C87.7465 14.0341 87.576 14.0739 87.3866 14.108C87.1972 14.142 87.0097 14.1723 86.8241 14.1989C86.6385 14.2254 86.4775 14.2481 86.3412 14.267C86.0344 14.3087 85.7597 14.3769 85.5173 14.4716C85.2749 14.5663 85.0836 14.6989 84.9434 14.8693C84.8033 15.036 84.7332 15.2519 84.7332 15.517C84.7332 15.8958 84.8715 16.1818 85.148 16.375C85.4245 16.5682 85.7768 16.6648 86.2048 16.6648Z" fill="black"/>
</svg>
