<svg width="93" height="31" viewBox="0 0 93 31" fill="none" xmlns="http://www.w3.org/2000/svg">
<path d="M26.6863 1.51456C27.6863 -0.405445 24.4463 0.134555 24.4463 0.134555C23.2863 0.134555 22.7663 1.53456 22.5263 1.93456L19.0263 8.83456C18.3663 9.97456 16.1863 14.8546 15.4663 15.9346C15.4063 14.8346 15.4863 12.6346 15.5063 12.1146C15.6463 10.0346 15.7863 8.45456 16.0063 6.55456C16.1663 5.07456 16.4863 3.41456 16.1863 1.93456C15.9863 1.01456 15.6863 0.954556 14.3663 0.814556C12.9863 0.674556 12.0463 2.67456 11.5863 3.61456C9.90626 7.09455 8.02626 10.4946 6.52626 14.0546C6.08626 15.0946 5.54626 16.1346 5.08626 17.1546C4.54626 18.3946 4.04626 19.6146 3.46626 20.8346C2.84626 22.1146 0.906259 26.3146 0.366259 27.6346C-0.233741 29.0746 -0.35374 30.2346 2.04626 30.1746C2.42626 30.1746 3.26626 30.2546 4.30626 29.1346C5.12626 28.2546 5.28626 27.4346 5.76626 26.2146C7.48626 21.8946 8.70626 19.0346 10.5863 14.7546C10.7663 14.3346 11.1863 13.1146 11.6063 12.1746C11.5863 13.5146 11.3663 15.1146 11.2663 16.1746C10.9463 20.0546 10.7263 23.7946 10.3863 27.6346C10.3463 28.1546 10.2063 28.7746 10.4463 29.2546C10.6863 29.7346 11.2863 29.8546 11.7663 29.9146C13.6863 30.1546 13.8863 29.1946 14.4863 27.8746C15.0263 26.6946 15.3463 25.7346 15.8263 24.5346C17.3063 20.8346 18.8663 17.1746 20.5863 13.5746C21.0263 12.6546 21.4663 11.7546 21.9463 10.8546C22.8263 9.19456 23.5463 7.63456 24.5063 5.79456C25.2263 4.47456 25.9263 2.97456 26.6863 1.51456ZM92.5863 11.9346C92.3663 9.71456 89.3263 10.8346 87.5063 11.1746C86.8263 11.2946 84.7263 11.6946 82.3063 12.1546C82.2063 9.65456 82.2463 10.1546 82.2263 8.63456C82.1663 6.43456 82.0463 4.71456 81.9263 2.77456C81.8463 1.55456 81.6663 -0.145445 79.4663 0.174555C76.9063 0.534555 76.4863 1.81456 75.8063 3.35456C74.0263 7.37456 74.0863 7.39456 72.0663 11.8746C71.9063 12.2146 71.1663 14.0146 71.0463 14.3746C70.9663 14.3946 70.8063 14.4346 70.6063 14.4946C69.7863 14.6746 68.7863 14.8946 67.6863 15.1346L67.7063 15.0346C67.9663 12.9946 68.2863 10.9546 68.5663 8.91455C68.8263 7.05455 69.1063 4.01456 69.3263 2.15456C69.5663 0.154556 67.2463 0.194555 67.2463 0.194555C65.8263 0.114555 65.2863 0.534555 64.3863 1.69456C62.8463 3.69456 60.9863 5.85456 59.3463 8.05456C56.3663 12.0346 54.1863 15.0346 51.4863 19.0346C50.7063 20.1946 49.5063 21.9546 48.4663 23.3346C47.7663 21.9546 47.1663 20.4346 46.5863 19.0346C45.7463 17.0346 45.1263 15.7946 44.7263 14.4746C44.3663 13.3146 44.8063 13.1546 45.6663 12.4946C48.1463 10.6146 50.9463 9.31456 53.4863 7.51455C55.2863 6.23455 57.4463 4.81456 59.2063 3.49456C59.2063 3.49456 60.2263 2.89456 60.7863 2.13456C61.4863 1.17456 59.5063 0.174555 59.5063 0.174555C58.3863 -0.00544457 57.7663 0.254556 56.9863 0.614556C56.1863 0.974556 55.1463 1.79456 54.4663 2.33456C52.9663 3.49456 51.0663 4.87456 49.5863 6.03456C47.7663 7.45456 46.5263 8.33455 44.5263 9.51455L49.6063 1.91456C51.2663 -0.225444 46.8663 -0.825445 45.1863 1.43456C43.6263 3.45456 42.5663 5.23456 41.3463 7.07456C38.4063 11.4546 35.9863 16.0546 33.5663 20.8746C32.6463 22.7146 31.7463 24.6346 30.9063 26.5346C30.5063 27.4546 29.3263 29.5746 30.9463 29.7946C34.4063 30.2346 34.9663 28.5946 35.7463 26.6146C37.0263 23.3546 37.4463 22.7546 38.2663 20.7346C39.0663 18.7746 39.6463 17.6546 40.5463 15.9746C40.5663 15.9546 40.8263 15.5346 40.8263 15.5346C40.9863 15.8746 42.0463 19.3946 42.1863 19.7946C42.9063 21.6946 44.1663 26.1346 44.8863 28.1546C45.4063 29.8346 45.5463 30.3146 47.8063 30.2546C48.9263 30.2346 49.4063 29.7946 50.1463 28.3946C50.8863 26.9946 54.0863 21.0346 54.0863 21.0346C55.0463 20.8746 56.4263 20.6346 57.3263 20.4746C57.4863 20.4546 57.8463 20.3746 58.3463 20.2746C58.6863 20.2346 58.9663 20.1746 59.1863 20.1146C59.2063 20.1146 59.2063 20.1146 59.2263 20.0946C60.1063 19.9146 61.2263 19.6946 62.4463 19.4546C62.2263 20.5546 61.5463 22.9746 61.4063 23.5946C61.4063 23.5946 59.9263 29.3546 61.8463 29.6546C63.0463 29.8346 63.6663 29.6346 63.6663 29.6346C65.9063 29.3746 65.9463 26.3546 65.9463 26.3546L67.1663 18.5346C68.0463 18.3546 68.9263 18.1746 69.7863 18.0146L67.1463 26.9346C66.7663 28.1946 66.4863 29.8146 68.7463 29.8146C70.5863 29.9146 70.7063 28.7546 70.7063 28.7546C70.7463 28.5746 72.2063 23.8746 72.5663 22.1946C72.8063 21.1146 73.6663 18.3346 74.0063 17.2146C74.9663 17.0346 75.6863 16.8946 76.0263 16.8346C76.4263 16.7746 77.2063 16.6346 78.2263 16.4746C78.2063 17.5146 78.2263 18.9546 78.2463 19.1546C78.4663 22.3146 78.2263 25.5946 78.8863 28.6946C78.9863 29.1946 79.1863 29.8346 79.8263 29.8346C80.5863 29.8346 80.8263 29.7546 81.6263 29.6946C83.9463 29.4946 83.5263 27.1546 83.3863 25.6746C83.2263 24.0346 83.0663 22.6546 82.8463 21.0146C82.6663 19.6746 82.5463 17.9146 82.5263 15.7946V15.7546C86.3263 15.1146 90.4263 14.4146 91.0263 14.3146C91.9863 14.0546 92.7863 14.1346 92.5863 11.9346ZM62.8863 16.1346C62.8863 16.1546 62.8663 16.1546 62.8663 16.1746C60.2063 16.7546 57.7063 17.3146 56.3063 17.6346C57.7063 15.2946 63.8663 6.77456 64.8063 5.77456C64.2863 8.41456 63.4463 13.3146 62.8863 16.1346ZM78.2463 12.7746V12.9146C76.9663 13.1546 75.7663 13.3946 74.8063 13.5746C76.0263 10.4146 77.3063 6.53456 78.0663 4.57456C78.0063 6.03456 78.3063 11.3346 78.2463 12.7746ZM40.9463 3.35456C41.3463 2.61456 42.2463 1.15456 41.1263 0.594555C40.4663 0.274555 39.5863 0.0745556 38.9063 0.414556C38.3463 0.714556 37.9263 1.29456 37.6463 1.83456L33.3663 8.57456C32.6663 9.53456 32.0063 10.7346 30.5863 10.8946C29.6463 10.9946 28.9663 10.5946 28.9863 9.75456C29.0063 8.89456 29.5063 7.75455 29.8863 7.01455C31.0063 4.89455 31.1463 4.17456 32.2263 2.07456C33.2663 0.0545553 29.8663 -0.405444 29.0263 1.05456C28.4263 2.09456 27.2663 4.05455 27.0063 4.71456C26.5263 5.91456 22.9263 11.6346 24.4863 13.8946C26.4863 16.4546 31.8063 12.4146 29.0863 17.0746C26.8863 20.8146 25.5063 22.9546 23.5863 26.4146C23.1663 27.1546 22.6463 27.8946 22.5063 28.7746C22.3063 30.0146 24.0063 29.9946 24.7463 29.9546C26.0463 29.8546 26.6663 29.2546 27.1863 28.0746C27.4663 27.4546 27.8463 26.6946 28.1263 26.0746C30.6463 20.5746 33.3263 15.7946 36.6463 10.4746C38.2263 7.95456 39.6263 5.79456 40.9463 3.35456Z" fill="#FC2779"/>
</svg>
