<svg width="98" height="25" viewBox="0 0 98 25" fill="none" xmlns="http://www.w3.org/2000/svg">
<path d="M81.0088 24.14C90.3671 24.14 97.9816 18.7249 97.9816 12.07C97.9816 5.41114 90.3671 0 81.0088 0C71.6486 0 64.0359 5.41114 64.0359 12.07C64.0359 18.7249 71.6486 24.14 81.0088 24.14ZM81.0088 7.76604C84.3438 7.76604 87.0599 9.69672 87.0599 12.0687C87.0599 14.4407 84.342 16.3687 81.0069 16.3687C77.6699 16.3687 74.9576 14.4407 74.9576 12.0674C74.9576 9.69277 77.6718 7.76341 81.0069 7.76341L81.0088 7.76604ZM16.9729 24.14C26.3312 24.14 33.9457 18.7249 33.9457 12.07C33.9457 5.41114 26.3312 0 16.9729 0C7.61642 0 0 5.41114 0 12.07C0 18.7249 7.61642 24.14 16.9729 24.14ZM16.9729 7.76604C20.3098 7.76604 23.024 9.69672 23.024 12.0687C23.024 14.4407 20.3098 16.3687 16.9729 16.3687C13.6378 16.3687 10.9255 14.4407 10.9255 12.0674C10.9255 9.69277 13.6396 7.76341 16.9729 7.76341V7.76604ZM48.9815 7.49417L43.7707 0.157606H31.5699L42.9657 16.2072V23.7631H54.9992V16.2072L66.395 0.157606H54.1886L48.9834 7.49417H48.9815Z" fill="#EE2E24"/>
</svg>
