<svg width="63" height="50" viewBox="0 0 63 50" fill="none" xmlns="http://www.w3.org/2000/svg">
<path fill-rule="evenodd" clip-rule="evenodd" d="M33.8635 20.0547C33.2217 20.5008 32.3778 20.5682 31.7244 20.2778C31.7244 20.2778 31.5455 20.2104 31.3803 20.0316C31.2372 19.8643 27.624 16.0343 27.624 16.0343L27.6114 16.0238C28.7288 16.2132 29.9536 15.7113 30.5838 14.7959C31.2131 13.9247 31.1899 12.6852 30.5954 11.814C29.882 10.8649 28.491 10.5524 27.3263 10.6976C25.3061 10.9659 23.8562 12.6515 23.4048 14.4161C22.9407 16.4257 23.2732 18.3239 23.9993 20.1105C24.1644 20.4903 24.3907 20.8807 24.6642 21.2153C22.5367 20.3451 20.6586 18.7374 19.6727 16.5814C18.5784 14.2593 18.6026 11.3237 19.8978 8.96676C20.9205 7.14753 22.7272 5.46193 24.961 4.74645C27.3031 3.84262 30.4523 4.03199 32.7345 5.2378C35.5039 6.53304 37.5967 9.76012 37.6082 12.641C37.7029 15.6219 36.3004 18.3239 33.8635 20.0547Z" fill="#273785"/>
<path fill-rule="evenodd" clip-rule="evenodd" d="M26.09 21.3121C25.0568 20.262 24.2245 18.9005 24.8547 17.4821C25.4134 16.3994 25.9122 15.2936 26.15 14.0436C26.2447 15.3493 27.0896 16.5109 27.4926 17.7609C27.6472 18.3649 27.6599 18.9899 27.4095 19.6149C27.1369 20.2957 26.6971 20.8765 26.1742 21.4015L26.09 21.3121Z" fill="#E21C2A"/>
<path fill-rule="evenodd" clip-rule="evenodd" d="M11.9623 29.0688C11.9623 29.1288 11.9528 29.1772 11.9318 29.2182C11.9107 29.2561 11.8644 29.2887 11.7866 29.315C11.7108 29.3424 11.5993 29.3613 11.452 29.3718C11.3068 29.3823 11.1069 29.3876 10.8533 29.3876C10.6408 29.3876 10.4692 29.3823 10.3451 29.3718C10.2178 29.3613 10.1168 29.3392 10.0442 29.3118C9.97158 29.2824 9.91896 29.2445 9.88845 29.2014C9.85688 29.1551 9.83162 29.1014 9.81058 29.0393L8.93201 26.7466C8.82469 26.4867 8.72158 26.2573 8.62057 26.0564C8.51641 25.8565 8.40484 25.6881 8.28069 25.5534C8.15548 25.4177 8.01345 25.3177 7.85246 25.2472C7.68937 25.1799 7.50313 25.1441 7.28954 25.1441H6.66769V29.0551C6.66769 29.1067 6.64981 29.1551 6.61824 29.1961C6.58457 29.2393 6.52986 29.274 6.45515 29.2992C6.37729 29.3255 6.2763 29.3476 6.14898 29.3634C6.02377 29.3803 5.86065 29.3876 5.66389 29.3876C5.4724 29.3876 5.31143 29.3803 5.18096 29.3634C5.05154 29.3476 4.94842 29.3255 4.87266 29.2992C4.79691 29.274 4.74325 29.2393 4.71484 29.1961C4.68328 29.1551 4.66748 29.1067 4.66748 29.0551V19.7369C4.66748 19.5044 4.72534 19.336 4.83898 19.234C4.95367 19.1309 5.09362 19.0793 5.26197 19.0793H7.80616C8.065 19.0793 8.27756 19.0846 8.44381 19.0951C8.61216 19.1067 8.76261 19.1204 8.90045 19.133C9.29502 19.193 9.64959 19.2929 9.9684 19.4371C10.2851 19.5802 10.5524 19.7643 10.7723 19.9937C10.9932 20.2241 11.1616 20.4977 11.2784 20.8112C11.3952 21.1258 11.452 21.4878 11.452 21.8939C11.452 22.238 11.4099 22.5516 11.3279 22.8335C11.2447 23.1176 11.1195 23.3691 10.9596 23.5911C10.7965 23.8131 10.5966 24.0046 10.3577 24.1698C10.122 24.3329 9.8495 24.4655 9.54647 24.5654C9.69378 24.6412 9.83163 24.7306 9.96105 24.8358C10.0884 24.9411 10.2104 25.0684 10.3241 25.2199C10.4377 25.3714 10.5471 25.5419 10.6481 25.7344C10.7491 25.9291 10.848 26.1458 10.9438 26.3889L11.7708 28.4112C11.8487 28.6111 11.8981 28.7605 11.9244 28.8521C11.9497 28.9447 11.9623 29.0172 11.9623 29.0688ZM9.3855 22.1075C9.3855 21.7698 9.31291 21.4857 9.16455 21.2521C9.01935 21.0195 8.7784 20.8544 8.44381 20.7597C8.3428 20.7334 8.2281 20.7113 8.09869 20.6976C7.96927 20.6818 7.79038 20.6734 7.56206 20.6734H6.66769V23.5827H7.68411C7.96925 23.5827 8.21547 23.548 8.42801 23.4743C8.64055 23.4038 8.81943 23.3038 8.96043 23.1744C9.10247 23.044 9.20872 22.8904 9.27922 22.7115C9.35182 22.5295 9.3855 22.3295 9.3855 22.1075Z" fill="#E21C2A"/>
<path fill-rule="evenodd" clip-rule="evenodd" d="M19.6892 25.3283C19.6892 25.5692 19.6376 25.7513 19.5335 25.867C19.4304 25.9838 19.2872 26.0406 19.1063 26.0406H14.9796C14.9796 26.3436 15.0133 26.6172 15.0806 26.8603C15.1511 27.1065 15.2595 27.3148 15.4078 27.4884C15.5583 27.6589 15.7498 27.7914 15.9855 27.8809C16.2223 27.9703 16.5042 28.0166 16.8346 28.0166C17.1681 28.0166 17.4617 27.9893 17.7132 27.9398C17.9668 27.8882 18.1877 27.8346 18.3718 27.7725C18.556 27.7125 18.7086 27.6557 18.8306 27.6073C18.9527 27.5557 19.0516 27.5316 19.1263 27.5316C19.1736 27.5316 19.2126 27.54 19.241 27.5589C19.2715 27.5779 19.2978 27.6105 19.3188 27.6589C19.3367 27.7052 19.3525 27.7725 19.3599 27.8619C19.3672 27.9482 19.3704 28.0566 19.3704 28.1892C19.3704 28.306 19.3672 28.4059 19.362 28.4869C19.3578 28.568 19.3493 28.6385 19.3388 28.6974C19.3314 28.7553 19.3157 28.8036 19.2946 28.8436C19.2746 28.8846 19.2483 28.9225 19.2147 28.9583C19.181 28.9962 19.0926 29.0467 18.9453 29.1098C18.7969 29.1719 18.6107 29.234 18.3824 29.2961C18.1541 29.3561 17.8952 29.4097 17.6017 29.4528C17.306 29.4991 16.9924 29.5212 16.6578 29.5212C16.056 29.5212 15.5268 29.4423 15.0733 29.2824C14.6219 29.1256 14.2431 28.8847 13.9379 28.5627C13.6339 28.2407 13.4087 27.8325 13.2582 27.3421C13.1099 26.8497 13.0352 26.2731 13.0352 25.6124C13.0352 24.9853 13.112 24.416 13.2708 23.9131C13.4266 23.407 13.6549 22.9798 13.9527 22.6273C14.2536 22.2759 14.6166 22.0075 15.0448 21.8234C15.4731 21.6372 15.955 21.5446 16.4916 21.5446C17.0598 21.5446 17.5448 21.6319 17.9468 21.8076C18.3487 21.9802 18.6812 22.2243 18.9369 22.5326C19.1968 22.8409 19.3862 23.2071 19.5082 23.6322C19.6292 24.0541 19.6892 24.5139 19.6892 25.0095V25.3283ZM17.8353 24.7569C17.851 24.1972 17.7448 23.7563 17.5133 23.4364C17.2829 23.1176 16.9272 22.9577 16.4453 22.9577C16.2012 22.9577 15.9918 23.004 15.8119 23.0987C15.6309 23.1934 15.4826 23.3228 15.3637 23.4827C15.2437 23.6447 15.1543 23.8341 15.089 24.054C15.0259 24.2729 14.9901 24.5086 14.9796 24.7569H17.8353Z" fill="#E21C2A"/>
<path fill-rule="evenodd" clip-rule="evenodd" d="M22.8123 29.0688C22.8123 29.1225 22.8218 29.1698 22.7902 29.2098C22.7597 29.2477 22.7071 29.2824 22.6345 29.3066C22.5587 29.334 22.463 29.3529 22.3409 29.3666C22.2199 29.3803 22.0663 29.3876 21.8769 29.3876C21.6896 29.3876 21.5349 29.3803 21.4161 29.3666C21.2929 29.3529 21.1951 29.334 21.1225 29.3066C21.0467 29.2824 20.9952 29.2466 20.9668 29.2098C20.9363 29.1688 20.9194 29.1225 20.9194 29.0688C20.9194 26.2595 20.9194 23.4501 20.9194 20.6397C21.3992 21.0585 21.9295 21.4257 22.8123 21.4394V29.0688Z" fill="#E21C2A"/>
<path fill-rule="evenodd" clip-rule="evenodd" d="M27.1717 29.0688C27.1717 29.1225 27.1591 29.1698 27.1276 29.2098C27.097 29.2477 27.0444 29.2824 26.9718 29.3066C26.8971 29.334 26.8014 29.3529 26.6793 29.3666C26.5573 29.3803 26.4047 29.3876 26.2153 29.3876C26.028 29.3876 25.8723 29.3803 25.7534 29.3666C25.6313 29.3529 25.5335 29.334 25.4599 29.3066C25.3851 29.2824 25.3336 29.2467 25.3052 29.2098C25.2736 29.1688 25.2578 29.1225 25.2578 29.0688C25.2578 26.7172 25.2578 24.3656 25.2578 22.0129C25.8965 22.3191 26.5341 22.2833 27.1717 22.0129V29.0688Z" fill="#E21C2A"/>
<path fill-rule="evenodd" clip-rule="evenodd" d="M35.1136 29.093C35.1136 29.1687 35.0873 29.2256 35.0357 29.2687C34.9863 29.3098 34.9063 29.3392 34.7969 29.3581C34.6874 29.3771 34.5275 29.3876 34.315 29.3876C34.0866 29.3876 33.9204 29.3771 33.8162 29.3581C33.7131 29.3392 33.6405 29.3098 33.5963 29.2687C33.5553 29.2256 33.5311 29.1687 33.5311 29.093V28.5301C33.2544 28.8415 32.9356 29.0846 32.5799 29.2613C32.2222 29.4339 31.8255 29.5212 31.3899 29.5212C31.029 29.5212 30.6997 29.4718 30.3987 29.375C30.0978 29.2771 29.8358 29.1309 29.6159 28.9394C29.3949 28.7468 29.2245 28.5059 29.1024 28.2218C28.9804 27.9346 28.9204 27.6021 28.9204 27.2233C28.9204 26.8087 28.9983 26.452 29.1519 26.149C29.3066 25.8428 29.538 25.5934 29.8442 25.3935C30.1504 25.1957 30.5313 25.0494 30.988 24.9547C31.4446 24.86 31.9728 24.8116 32.5747 24.8116H33.2365V24.3834C33.2365 24.1624 33.2154 23.9667 33.1712 23.8015C33.1291 23.6342 33.0576 23.4964 32.9587 23.3849C32.8598 23.2744 32.7272 23.1934 32.5641 23.1387C32.3979 23.085 32.1959 23.0608 31.9528 23.0608C31.6329 23.0608 31.3478 23.0955 31.0963 23.1713C30.848 23.2449 30.6249 23.326 30.4324 23.4175C30.2409 23.5069 30.0799 23.5879 29.9505 23.6616C29.82 23.7374 29.7169 23.7721 29.6338 23.7721C29.5791 23.7721 29.5307 23.7563 29.4865 23.7184C29.4444 23.6805 29.4086 23.629 29.3802 23.5585C29.3539 23.4912 29.3308 23.407 29.315 23.307C29.2992 23.2039 29.2939 23.0934 29.2939 22.9714C29.2939 22.8093 29.3044 22.6789 29.3307 22.5842C29.356 22.4895 29.4055 22.4032 29.4759 22.3274C29.5454 22.2485 29.6695 22.1643 29.8463 22.0728C30.0252 21.9802 30.2325 21.8939 30.4713 21.8161C30.7081 21.734 30.969 21.6719 31.2489 21.6203C31.5298 21.5688 31.8202 21.5446 32.118 21.5446C32.6504 21.5446 33.106 21.5993 33.4827 21.7077C33.8604 21.8161 34.1698 21.9833 34.4139 22.2085C34.6569 22.4326 34.8337 22.722 34.9452 23.0766C35.0568 23.4291 35.1136 23.851 35.1136 24.335V29.093ZM33.2365 26.0648H32.5073C32.199 26.0648 31.9339 26.089 31.7161 26.1353C31.4983 26.1837 31.3225 26.2542 31.1847 26.3489C31.0469 26.4467 30.948 26.5604 30.8838 26.6951C30.8217 26.8308 30.7901 26.9844 30.7901 27.158C30.7901 27.4558 30.8785 27.6883 31.0606 27.8567C31.2394 28.0271 31.4877 28.1102 31.8065 28.1102C32.077 28.1102 32.3232 28.0397 32.5484 27.8967C32.7746 27.7536 33.0029 27.5452 33.2365 27.2685V26.0648Z" fill="#E21C2A"/>
<path fill-rule="evenodd" clip-rule="evenodd" d="M43.4056 29.0688C43.4056 29.1225 43.3909 29.1688 43.3625 29.2098C43.3309 29.2477 43.2793 29.2824 43.2088 29.3066C43.1394 29.3339 43.0405 29.3529 42.9163 29.3666C42.7911 29.3802 42.6386 29.3876 42.4565 29.3876C42.2703 29.3876 42.1146 29.3802 41.9904 29.3666C41.8652 29.3529 41.7673 29.3339 41.6968 29.3066C41.6274 29.2824 41.5758 29.2477 41.5443 29.2098C41.5159 29.1688 41.5001 29.1225 41.5001 29.0688V25.0336C41.5001 24.6896 41.4769 24.4213 41.4275 24.2245C41.378 24.0288 41.3107 23.8615 41.217 23.7205C41.1265 23.5827 41.0098 23.4743 40.8646 23.3964C40.7225 23.3207 40.5531 23.2828 40.3595 23.2828C40.1175 23.2828 39.8713 23.3744 39.623 23.5585C39.3768 23.7458 39.1169 24.013 38.8475 24.3676V29.0688C38.8475 29.1225 38.8338 29.1688 38.8033 29.2098C38.7717 29.2477 38.7202 29.2824 38.6476 29.3066C38.5718 29.3339 38.4761 29.3529 38.354 29.3666C38.233 29.3802 38.0794 29.3876 37.89 29.3876C37.7038 29.3876 37.548 29.3802 37.4292 29.3666C37.3071 29.3529 37.2082 29.3339 37.1356 29.3066C37.0598 29.2824 37.0083 29.2477 36.9799 29.2098C36.9494 29.1688 36.9336 29.1225 36.9336 29.0688V21.997C36.9336 21.9455 36.9462 21.8971 36.9725 21.8592C36.9978 21.8182 37.042 21.7856 37.1093 21.7582C37.1745 21.7319 37.2598 21.713 37.3639 21.6993C37.4681 21.6856 37.5975 21.6803 37.7553 21.6803C37.9163 21.6803 38.051 21.6856 38.1573 21.6993C38.2636 21.713 38.3467 21.7319 38.4035 21.7582C38.4635 21.7856 38.5045 21.8182 38.5287 21.8592C38.554 21.8971 38.5676 21.9455 38.5676 21.997V22.8146C38.9433 22.3927 39.3241 22.0728 39.7114 21.8613C40.0975 21.6509 40.5015 21.5446 40.9214 21.5446C41.3833 21.5446 41.7726 21.6235 42.0893 21.7834C42.405 21.9423 42.6617 22.157 42.8564 22.4295C43.051 22.701 43.1909 23.0198 43.2762 23.3849C43.3646 23.751 43.4056 24.1888 43.4056 24.7012V29.0688Z" fill="#E21C2A"/>
<path fill-rule="evenodd" clip-rule="evenodd" d="M49.7262 27.943C49.7262 28.0808 49.721 28.1976 49.7136 28.2892C49.7052 28.3817 49.6947 28.4596 49.6852 28.5227C49.6715 28.5869 49.6557 28.6385 49.6378 28.6763C49.6199 28.7174 49.581 28.7679 49.521 28.8279C49.459 28.8878 49.3548 28.9636 49.2075 29.0499C49.0623 29.1362 48.894 29.2151 48.7067 29.2824C48.5204 29.3529 48.3152 29.4076 48.0943 29.4508C47.8744 29.4939 47.6492 29.5128 47.4156 29.5128C46.8948 29.5128 46.4329 29.4287 46.0278 29.2614C45.6258 29.0909 45.2892 28.8415 45.0145 28.5112C44.742 28.1808 44.5347 27.7778 44.3969 27.3012C44.2569 26.8256 44.1875 26.2816 44.1875 25.6692C44.1875 24.96 44.2727 24.3487 44.4411 23.8321C44.6126 23.3175 44.8483 22.8904 45.1513 22.5516C45.4554 22.2138 45.8153 21.9613 46.2309 21.7993C46.6454 21.6341 47.1021 21.553 47.5966 21.553C47.8018 21.553 47.9985 21.572 48.1932 21.6098C48.391 21.6446 48.572 21.6961 48.7403 21.7582C48.9118 21.8235 49.0623 21.8939 49.197 21.9728C49.3317 22.0539 49.4253 22.1212 49.4821 22.178C49.5368 22.238 49.5779 22.2864 49.5989 22.3274C49.6221 22.3653 49.641 22.4158 49.6536 22.481C49.6663 22.5431 49.6768 22.6221 49.6852 22.7136C49.6926 22.8062 49.6947 22.9198 49.6947 23.0524C49.6947 23.3586 49.6694 23.5743 49.6199 23.6995C49.5684 23.8216 49.5032 23.8836 49.4221 23.8836C49.3348 23.8836 49.2433 23.8479 49.1475 23.7721C49.0518 23.6995 48.9381 23.6185 48.8056 23.529C48.673 23.4364 48.5172 23.3554 48.3363 23.2828C48.1521 23.2071 47.9344 23.1713 47.6829 23.1713C47.1842 23.1713 46.8064 23.3691 46.5412 23.77C46.2803 24.1677 46.1477 24.7548 46.1477 25.5261C46.1477 25.9049 46.1793 26.2405 46.2466 26.533C46.3108 26.8224 46.4097 27.0665 46.5392 27.2611C46.6665 27.4579 46.8296 27.6042 47.0242 27.702C47.2189 27.7999 47.4472 27.8483 47.7039 27.8483C47.968 27.8483 48.1932 27.8072 48.3858 27.7262C48.5751 27.6452 48.7403 27.5537 48.8803 27.4526C49.0234 27.3527 49.1423 27.2611 49.2391 27.1801C49.3348 27.096 49.4179 27.0549 49.4821 27.0549C49.5284 27.0549 49.5653 27.0686 49.5968 27.096C49.6273 27.1233 49.6515 27.1717 49.6694 27.2422C49.6873 27.3127 49.6999 27.4042 49.7104 27.5158C49.721 27.6263 49.7262 27.7694 49.7262 27.943Z" fill="#E21C2A"/>
<path fill-rule="evenodd" clip-rule="evenodd" d="M57.3684 25.3283C57.3684 25.5692 57.3168 25.7513 57.2137 25.867C57.1096 25.9838 56.9665 26.0406 56.7855 26.0406H52.6599C52.6599 26.3436 52.6935 26.6172 52.7609 26.8603C52.8303 27.1065 52.9397 27.3148 53.087 27.4884C53.2375 27.6589 53.43 27.7914 53.6657 27.8809C53.9014 27.9703 54.1845 28.0166 54.5138 28.0166C54.8484 28.0166 55.1409 27.9893 55.3924 27.9398C55.647 27.8882 55.8669 27.8346 56.051 27.7725C56.2352 27.7125 56.3888 27.6557 56.5109 27.6073C56.6319 27.5557 56.7308 27.5316 56.8065 27.5316C56.8528 27.5316 56.8918 27.54 56.9202 27.5589C56.9507 27.5779 56.977 27.6105 56.998 27.6589C57.0159 27.7052 57.0317 27.7725 57.0391 27.8619C57.0475 27.9482 57.0496 28.0566 57.0496 28.1892C57.0496 28.306 57.0475 28.4059 57.0422 28.4869C57.037 28.568 57.0296 28.6385 57.018 28.6974C57.0106 28.7553 56.9959 28.8036 56.9749 28.8436C56.9538 28.8846 56.9286 28.9225 56.8949 28.9583C56.8612 28.9962 56.7729 29.0467 56.6245 29.1098C56.4772 29.1719 56.2899 29.234 56.0616 29.2961C55.8333 29.3561 55.5744 29.4097 55.2819 29.4528C54.9852 29.4991 54.6716 29.5212 54.337 29.5212C53.7352 29.5212 53.206 29.4423 52.7525 29.2824C52.3011 29.1256 51.9233 28.8847 51.6171 28.5627C51.3131 28.2407 51.0879 27.8325 50.9374 27.3421C50.7901 26.8497 50.7144 26.2731 50.7144 25.6124C50.7144 24.9853 50.7922 24.416 50.95 23.9131C51.1058 23.407 51.3341 22.9798 51.6319 22.6273C51.9328 22.2759 52.2958 22.0075 52.724 21.8234C53.1523 21.6372 53.6352 21.5446 54.1719 21.5446C54.739 21.5446 55.224 21.6319 55.626 21.8076C56.0279 21.9802 56.3604 22.2243 56.6171 22.5326C56.876 22.8409 57.0654 23.2071 57.1874 23.6322C57.3095 24.0541 57.3684 24.5139 57.3684 25.0095V25.3283ZM55.5145 24.7569C55.5302 24.1972 55.424 23.7563 55.1935 23.4364C54.9621 23.1176 54.6064 22.9577 54.1245 22.9577C53.8804 22.9577 53.671 23.004 53.4921 23.0987C53.3101 23.1934 53.1628 23.3228 53.0429 23.4827C52.924 23.6447 52.8335 23.8341 52.7682 24.054C52.7061 24.2729 52.6704 24.5086 52.6599 24.7569H55.5145Z" fill="#E21C2A"/>
<path fill-rule="evenodd" clip-rule="evenodd" d="M13.7333 38.4059C13.7333 39.4676 13.5923 40.3788 13.3135 41.1342C13.0347 41.8908 12.6369 42.5084 12.1161 42.9861C11.5953 43.4628 10.965 43.8152 10.2211 44.0383C9.47405 44.2614 8.58914 44.375 7.5601 44.375H4.78863C4.58977 44.375 4.42458 44.3161 4.2899 44.2003C4.15522 44.0835 4.08789 43.8942 4.08789 43.6311V33.5196C4.08789 33.2565 4.15522 33.0661 4.2899 32.9503C4.42458 32.8346 4.58977 32.7757 4.78863 32.7757H7.76528C8.80064 32.7757 9.67921 32.8988 10.3989 33.1397C11.1175 33.3817 11.7278 33.7395 12.2203 34.214C12.7137 34.6885 13.0904 35.2757 13.3471 35.9764C13.6039 36.674 13.7333 37.4842 13.7333 38.4059ZM11.2933 38.4849C11.2933 37.9346 11.228 37.4264 11.0997 36.9518C10.9713 36.4815 10.763 36.0711 10.4778 35.726C10.1958 35.3798 9.83178 35.1073 9.3846 34.9148C8.94058 34.7191 8.35662 34.6212 7.63061 34.6212H6.43952V42.5116H7.66744C8.31349 42.5116 8.85852 42.4263 9.29938 42.2601C9.74341 42.0928 10.1106 41.8382 10.4073 41.5015C10.7051 41.1648 10.925 40.7428 11.0723 40.2409C11.2186 39.739 11.2933 39.1551 11.2933 38.4849Z" fill="#009FE0"/>
<path fill-rule="evenodd" clip-rule="evenodd" d="M18.2649 44.0688C18.2649 44.1298 18.248 44.1825 18.2091 44.2277C18.1702 44.2708 18.1049 44.3108 18.0145 44.3382C17.9208 44.3687 17.8009 44.3897 17.6483 44.4055C17.4947 44.4203 17.3032 44.4297 17.0664 44.4297C16.8328 44.4297 16.6382 44.4203 16.4888 44.4055C16.3362 44.3897 16.2131 44.3687 16.1216 44.3382C16.0279 44.3108 15.9627 44.2708 15.9269 44.2277C15.888 44.1825 15.869 44.1298 15.869 44.0688V36.0922C15.869 36.0312 15.888 35.9796 15.9269 35.9365C15.9627 35.8912 16.0279 35.8512 16.1216 35.8207C16.2131 35.7871 16.3362 35.7618 16.4888 35.7439C16.6382 35.726 16.8328 35.7166 17.0664 35.7166C17.3032 35.7166 17.4947 35.726 17.6483 35.7439C17.8009 35.7618 17.9208 35.7871 18.0145 35.8207C18.1049 35.8512 18.1702 35.8912 18.2091 35.9365C18.248 35.9796 18.2649 36.0312 18.2649 36.0922V44.0688ZM18.4459 33.367C18.4459 33.8226 18.3491 34.1341 18.1512 34.3087C17.9566 34.4834 17.5894 34.5686 17.057 34.5686C16.5182 34.5686 16.1573 34.4865 15.969 34.3182C15.7807 34.1498 15.687 33.85 15.687 33.4123C15.687 32.9598 15.7838 32.6442 15.9795 32.4674C16.171 32.2896 16.5372 32.2012 17.0759 32.2012C17.6083 32.2012 17.9724 32.2864 18.1607 32.4579C18.3522 32.6295 18.4459 32.9325 18.4459 33.367Z" fill="#009FE0"/>
<path fill-rule="evenodd" clip-rule="evenodd" d="M28.4729 36.6309C28.4729 36.916 28.4371 37.1296 28.3656 37.2674C28.2982 37.4053 28.213 37.4726 28.1099 37.4726H27.1135C27.2524 37.6157 27.3502 37.7788 27.4112 37.9619C27.4733 38.1418 27.5028 38.3323 27.5028 38.5311C27.5028 38.9962 27.4176 39.4087 27.2555 39.7727C27.0903 40.1336 26.8536 40.4366 26.5453 40.6849C26.2401 40.9333 25.8666 41.1227 25.4352 41.251C24.9996 41.3794 24.5156 41.4436 23.9832 41.4436C23.7107 41.4436 23.4508 41.4131 23.2046 41.3489C22.9542 41.2879 22.7658 41.2142 22.6332 41.1279C22.5554 41.2079 22.487 41.2994 22.4291 41.4067C22.367 41.5141 22.3376 41.633 22.3376 41.7645C22.3376 41.9392 22.4186 42.0802 22.5817 42.1927C22.7395 42.3032 22.9668 42.3642 23.2603 42.3769L25.3247 42.4474C25.8045 42.4653 26.237 42.5294 26.6126 42.6399C26.9893 42.7504 27.3071 42.9061 27.5638 43.105C27.8205 43.307 28.0152 43.5459 28.152 43.8268C28.2877 44.1088 28.3561 44.4297 28.3561 44.7874C28.3561 45.182 28.2656 45.5524 28.0804 45.9049C27.8984 46.2532 27.6227 46.5562 27.2555 46.8129C26.8862 47.0696 26.4243 47.2717 25.8698 47.4221C25.3142 47.5715 24.6682 47.6452 23.9253 47.6452C23.2046 47.6452 22.588 47.5936 22.0745 47.4863C21.5653 47.3758 21.1465 47.2296 20.8214 47.036C20.4941 46.8466 20.2564 46.6172 20.108 46.351C19.9586 46.0848 19.8828 45.7944 19.8828 45.4766C19.8828 45.2799 19.9091 45.0905 19.9649 44.9126C20.0196 44.7327 20.0975 44.5612 20.2016 44.396C20.3058 44.234 20.4352 44.0751 20.5878 43.9278C20.7404 43.7784 20.9129 43.6343 21.1107 43.4964C20.8382 43.3586 20.6267 43.1723 20.4773 42.9366C20.3279 42.701 20.2542 42.441 20.2542 42.1591C20.2542 41.8076 20.3416 41.4867 20.5099 41.1963C20.6825 40.908 20.9066 40.645 21.1781 40.4125C20.955 40.2041 20.7761 39.9537 20.6435 39.6601C20.5099 39.3666 20.4447 39.0025 20.4447 38.5679C20.4447 38.0997 20.5331 37.6831 20.7077 37.3169C20.8803 36.9497 21.1234 36.6372 21.4359 36.3836C21.7431 36.129 22.1166 35.9364 22.5459 35.8017C22.9773 35.6671 23.4539 35.5997 23.9737 35.5997C24.2399 35.5997 24.4967 35.6155 24.7397 35.6429C24.9838 35.6734 25.2111 35.7165 25.4184 35.7681H28.1099C28.2161 35.7681 28.3045 35.8354 28.3729 35.967C28.4371 36.0985 28.4729 36.3194 28.4729 36.6309ZM25.3994 38.5216C25.3994 38.0902 25.2721 37.7567 25.0196 37.5179C24.766 37.2801 24.4083 37.1601 23.9443 37.1601C23.7107 37.1601 23.5034 37.1969 23.3277 37.2706C23.1488 37.3464 23.0026 37.4484 22.8837 37.5768C22.7658 37.7052 22.6785 37.8546 22.6238 38.0229C22.5649 38.1944 22.5354 38.3722 22.5354 38.5585C22.5354 38.9625 22.6659 39.2834 22.9194 39.5223C23.172 39.758 23.5223 39.8737 23.9737 39.8737C24.2147 39.8737 24.4251 39.8401 24.5998 39.7664C24.7786 39.697 24.9249 39.5959 25.0417 39.4697C25.1617 39.3445 25.25 39.2014 25.3079 39.0362C25.3689 38.8731 25.3994 38.6995 25.3994 38.5216ZM25.9603 44.9042C25.9603 44.6349 25.8466 44.4297 25.6193 44.2866C25.3889 44.1424 25.0775 44.0625 24.6776 44.053L22.9742 44.0078C22.809 44.1204 22.6785 44.2308 22.5817 44.335C22.4807 44.4392 22.4028 44.5402 22.3407 44.6349C22.2829 44.7296 22.2439 44.8211 22.2239 44.9126C22.205 45.0021 22.1945 45.0936 22.1945 45.1915C22.1945 45.4882 22.3544 45.7144 22.6753 45.8712C22.9962 46.0269 23.4476 46.1037 24.0295 46.1037C24.3925 46.1037 24.6976 46.0701 24.9449 46.0027C25.1911 45.9322 25.3889 45.8407 25.5415 45.7271C25.6941 45.6134 25.8014 45.4882 25.8666 45.3472C25.9276 45.2073 25.9603 45.06 25.9603 44.9042Z" fill="#009FE0"/>
<path fill-rule="evenodd" clip-rule="evenodd" d="M32.3703 44.0688C32.3703 44.1298 32.3545 44.1825 32.3156 44.2277C32.2766 44.2708 32.2114 44.3108 32.1209 44.3382C32.0262 44.3687 31.9063 44.3897 31.7537 44.4055C31.6011 44.4203 31.4096 44.4297 31.1729 44.4297C30.9393 44.4297 30.7436 44.4203 30.5942 44.4055C30.4416 44.3897 30.3185 44.3687 30.228 44.3382C30.1344 44.3108 30.0691 44.2708 30.0334 44.2277C29.9944 44.1825 29.9744 44.1298 29.9744 44.0688V36.0922C29.9744 36.0312 29.9944 35.9796 30.0334 35.9365C30.0691 35.8912 30.1344 35.8512 30.228 35.8207C30.3185 35.7871 30.4416 35.7618 30.5942 35.7439C30.7436 35.726 30.9393 35.7166 31.1729 35.7166C31.4096 35.7166 31.6011 35.726 31.7537 35.7439C31.9063 35.7618 32.0262 35.7871 32.1209 35.8207C32.2114 35.8512 32.2766 35.8912 32.3156 35.9365C32.3545 35.9796 32.3703 36.0312 32.3703 36.0922V44.0688ZM32.5523 33.367C32.5523 33.8226 32.4544 34.1341 32.2566 34.3087C32.062 34.4834 31.6948 34.5686 31.1623 34.5686C30.6236 34.5686 30.2638 34.4865 30.0754 34.3182C29.8871 34.1498 29.7935 33.85 29.7935 33.4123C29.7935 32.9598 29.8903 32.6442 30.0849 32.4674C30.2764 32.2896 30.6436 32.2012 31.1824 32.2012C31.7148 32.2012 32.0778 32.2864 32.2661 32.4579C32.4587 32.6295 32.5523 32.9325 32.5523 33.367Z" fill="#009FE0"/>
<path fill-rule="evenodd" clip-rule="evenodd" d="M40.1252 43.2828C40.1252 43.5459 40.1094 43.7447 40.0737 43.8857C40.0379 44.0257 39.9926 44.1235 39.9337 44.1824C39.879 44.2403 39.7948 44.2887 39.6844 44.335C39.5739 44.3782 39.4434 44.4181 39.294 44.4508C39.1446 44.4844 38.9825 44.5097 38.8079 44.5276C38.6353 44.5454 38.4575 44.5549 38.2818 44.5549C37.8041 44.5549 37.3916 44.4971 37.0444 44.3834C36.694 44.2708 36.4089 44.0962 36.1785 43.8605C35.9512 43.6227 35.7818 43.3249 35.6745 42.9672C35.5682 42.6094 35.5124 42.1843 35.5124 41.694V37.5978H34.496C34.3761 37.5978 34.2824 37.5274 34.2203 37.3864C34.1551 37.2464 34.1235 37.0139 34.1235 36.6824C34.1235 36.512 34.133 36.3647 34.1488 36.2458C34.1656 36.1258 34.1877 36.0311 34.2203 35.9606C34.2498 35.8933 34.2919 35.8449 34.3371 35.8144C34.3866 35.7839 34.4413 35.7681 34.5065 35.7681H35.5124V33.9846C35.5124 33.9268 35.5293 33.871 35.565 33.8258C35.6008 33.7763 35.665 33.7363 35.7565 33.7026C35.847 33.669 35.9701 33.6479 36.1259 33.6322C36.2816 33.6174 36.4731 33.608 36.7004 33.608C36.9381 33.608 37.1317 33.6174 37.2885 33.6322C37.4411 33.6479 37.5642 33.669 37.6515 33.7026C37.7431 33.7363 37.8041 33.7763 37.843 33.8258C37.882 33.871 37.8988 33.9268 37.8988 33.9846V35.7681H39.7454C39.8075 35.7681 39.8622 35.7839 39.9116 35.8144C39.96 35.8449 39.999 35.8933 40.0316 35.9606C40.0611 36.0311 40.0863 36.1258 40.1031 36.2458C40.1189 36.3647 40.1252 36.512 40.1252 36.6824C40.1252 37.0139 40.0926 37.2464 40.0316 37.3864C39.9664 37.5274 39.8748 37.5978 39.7559 37.5978H37.8988V41.3552C37.8988 41.7898 37.9735 42.117 38.1198 42.3338C38.265 42.5537 38.5249 42.661 38.8984 42.661C39.0247 42.661 39.1383 42.6526 39.2425 42.6305C39.3435 42.6094 39.4339 42.5873 39.5118 42.56C39.5897 42.5326 39.6581 42.5084 39.7138 42.4874C39.7654 42.4653 39.8138 42.4558 39.859 42.4558C39.898 42.4558 39.9337 42.4653 39.9695 42.4874C40.0021 42.5084 40.0316 42.5515 40.0505 42.6126C40.0673 42.6768 40.0863 42.762 40.1031 42.8693C40.1189 42.9766 40.1252 43.1145 40.1252 43.2828Z" fill="#009FE0"/>
<path fill-rule="evenodd" clip-rule="evenodd" d="M48.8946 44.0962C48.8946 44.1825 48.862 44.2467 48.7968 44.2951C48.7347 44.3414 48.6347 44.375 48.4979 44.3961C48.3612 44.4181 48.1602 44.4297 47.894 44.4297C47.6088 44.4297 47.4005 44.4181 47.2711 44.3961C47.1406 44.375 47.0501 44.3414 46.9954 44.2951C46.9428 44.2467 46.9133 44.1825 46.9133 44.0962V43.4596C46.5661 43.8121 46.1673 44.0867 45.7233 44.2866C45.274 44.4813 44.7785 44.5791 44.2324 44.5791C43.781 44.5791 43.3696 44.5244 42.9929 44.4139C42.6162 44.3045 42.2879 44.1393 42.0122 43.9215C41.7366 43.7048 41.5219 43.4323 41.3694 43.1114C41.2168 42.7873 41.1421 42.4106 41.1421 41.9823C41.1421 41.5141 41.2399 41.1101 41.4314 40.767C41.6261 40.4219 41.9144 40.14 42.2984 39.9138C42.6804 39.6907 43.1581 39.5255 43.7294 39.4182C44.3007 39.3108 44.9626 39.2561 45.7159 39.2561H46.544V38.7732C46.544 38.5217 46.5177 38.3018 46.463 38.1145C46.4104 37.9251 46.3199 37.7694 46.1968 37.6431C46.0737 37.5179 45.9074 37.4263 45.7033 37.3653C45.496 37.3043 45.2425 37.277 44.9373 37.277C44.5375 37.277 44.1808 37.3169 43.8651 37.4022C43.5537 37.4842 43.2749 37.5768 43.035 37.6799C42.794 37.7809 42.5931 37.8735 42.431 37.9556C42.2679 38.0419 42.1385 38.0808 42.0343 38.0808C41.967 38.0808 41.9049 38.0629 41.8502 38.0198C41.7976 37.9777 41.7523 37.9188 41.7166 37.8399C41.684 37.7631 41.6545 37.6684 41.6356 37.5547C41.6166 37.439 41.6093 37.3138 41.6093 37.1759C41.6093 36.9918 41.6229 36.8456 41.6545 36.7382C41.6871 36.6309 41.7492 36.5331 41.8365 36.4478C41.9249 36.3584 42.0806 36.2637 42.3016 36.1595C42.5257 36.0554 42.7846 35.9575 43.0834 35.8691C43.379 35.7776 43.7063 35.7071 44.0566 35.6492C44.4081 35.5903 44.7711 35.5629 45.1446 35.5629C45.8106 35.5629 46.382 35.624 46.8523 35.7471C47.3258 35.8691 47.713 36.0585 48.0181 36.3131C48.3222 36.5667 48.5442 36.894 48.6831 37.2948C48.8231 37.6926 48.8946 38.1702 48.8946 38.7174V44.0962ZM46.544 40.6724H45.6318C45.2456 40.6724 44.9142 40.6997 44.6417 40.7523C44.3691 40.8071 44.1482 40.887 43.9767 40.9943C43.8041 41.1038 43.681 41.2321 43.6 41.3857C43.5221 41.5383 43.4832 41.713 43.4832 41.9087C43.4832 42.2454 43.5926 42.5084 43.821 42.6978C44.044 42.8904 44.3555 42.9861 44.7553 42.9861C45.093 42.9861 45.4014 42.9061 45.6833 42.7441C45.9664 42.5821 46.2515 42.3464 46.544 42.0339V40.6724Z" fill="#009FE0"/>
<path fill-rule="evenodd" clip-rule="evenodd" d="M53.6756 44.0688C53.6756 44.1298 53.6598 44.1824 53.6209 44.2277C53.5819 44.2708 53.5167 44.3108 53.4262 44.3382C53.3315 44.3687 53.2116 44.3897 53.059 44.4055C52.9064 44.4202 52.7149 44.4297 52.4782 44.4297C52.2446 44.4297 52.0489 44.4202 51.9006 44.4055C51.748 44.3897 51.6238 44.3687 51.5334 44.3382C51.4397 44.3108 51.3745 44.2708 51.3387 44.2277C51.2998 44.1824 51.2798 44.1298 51.2798 44.0688V32.2832C51.2798 32.2222 51.2998 32.1707 51.3387 32.1212C51.3745 32.0728 51.4397 32.0328 51.5334 32.0023C51.6238 31.9686 51.748 31.9434 51.9006 31.9255C52.0489 31.9076 52.2446 31.8981 52.4782 31.8981C52.7149 31.8981 52.9064 31.9076 53.059 31.9255C53.2116 31.9434 53.3315 31.9686 53.4262 32.0023C53.5167 32.0328 53.5819 32.0728 53.6209 32.1212C53.6598 32.1707 53.6756 32.2222 53.6756 32.2832V44.0688Z" fill="#009FE0"/>
</svg>
