<svg width="155" height="46" viewBox="0 0 155 46" fill="none" xmlns="http://www.w3.org/2000/svg">
<path d="M38.103 22.8416C36.9697 21.6301 36.1099 20.0278 36.7743 18.3863C37.3605 17.1357 37.9076 15.8461 38.1812 14.361C38.2984 15.8851 39.1973 17.253 39.6272 18.699C39.7835 19.4025 39.8226 20.145 39.549 20.8485C39.2755 21.6301 38.8065 22.3336 38.2203 22.9198L38.103 22.8416Z" fill="#DC0000"/>
<path d="M43.9652 22.1381C43.7698 22.06 43.6135 21.9037 43.4572 21.7473C43.3009 21.5519 39.8617 17.0576 39.8617 17.0576C39.5881 16.7059 39.7835 16.3932 40.2134 16.4714C41.2296 16.6668 41.9721 16.1978 42.5974 15.1817C43.1836 14.2828 43.1836 12.9931 42.5974 12.0943C41.933 11.1563 40.6043 10.8046 39.4318 10.9609C37.4387 11.2345 35.9927 13.0322 35.5237 15.0254C35.0547 17.2921 35.4064 19.4415 36.149 21.4738C36.3053 21.9037 36.5398 22.2945 36.8134 22.6853C37.0869 23.0761 36.8134 23.4278 36.3835 23.2715C33.9995 22.2163 31.9282 20.2622 30.8339 17.6829C29.6224 14.869 29.6615 11.3126 31.1075 8.45971C32.2409 6.27116 34.234 4.23894 36.7352 3.34007C39.3536 2.24579 42.8319 2.48028 45.3722 3.92629C48.4596 5.48954 50.8044 9.39766 50.8044 12.915C50.9217 16.5104 49.3584 19.7933 46.6228 21.8646C45.8411 22.4508 44.7859 22.529 43.9652 22.1381Z" fill="white"/>
<path d="M46.3879 21.5519C45.6845 22.06 44.7856 22.1381 44.0822 21.8255C44.0822 21.8255 43.8868 21.7473 43.7304 21.5519C43.5741 21.3565 40.1349 16.8622 40.1349 16.8622C41.3465 17.0967 42.2063 16.5104 42.8706 15.4162C43.535 14.4001 43.535 12.9541 42.8706 11.9379C42.1281 10.8437 40.6039 10.4529 39.3533 10.6483C37.1648 10.9609 35.6015 12.915 35.1326 14.9863C34.6245 17.3312 34.9762 19.5588 35.7579 21.6301C35.9533 22.06 36.1877 22.529 36.4613 22.9198C34.1555 21.9037 32.1624 20.0278 31.0681 17.5266C29.8957 14.7909 29.9348 11.3908 31.3026 8.61604C32.3969 6.50565 34.3509 4.51251 36.7349 3.69181C39.2752 2.63661 42.6362 2.8711 45.0983 4.27802C48.0684 5.80219 50.3352 9.55399 50.3352 12.915C50.5306 16.3541 49.0064 19.5197 46.3879 21.5519Z" fill="#003380"/>
<path d="M30.2085 36.7936V19.6369C31.1855 21.2002 32.4752 22.4899 33.9603 23.4278V36.7936H30.2085Z" fill="#DC0000"/>
<path d="M9.61268 31.2832V36.7936H5.78271V20.4577C7.38505 20.3795 8.98738 20.3404 10.5897 20.3404C14.3806 20.3404 16.5301 21.9037 16.5301 25.1474C16.5301 26.398 16.1392 27.4532 15.3185 28.313C14.6932 29.0164 13.9116 29.4854 12.9737 29.7199C13.3254 30.1889 13.599 30.5406 13.7944 30.8533L17.937 36.7545H13.2472L9.61268 31.2832ZM10.2771 23.7014C10.0035 23.7014 9.769 23.7014 9.57359 23.7405V27.375C9.769 27.375 9.96441 27.375 10.1989 27.375C11.4104 27.375 12.5828 26.867 12.5828 25.46C12.5828 24.3267 11.9575 23.7014 10.2771 23.7014Z" fill="#DC0000"/>
<path d="M28.2937 31.205L28.2546 31.5958H21.4154C21.5327 33.12 22.3534 33.8234 24.0339 33.8234C25.4408 33.8234 26.4178 33.4717 27.6684 32.8855L28.0592 36.1292C26.5351 36.7545 25.2454 37.0281 23.5649 37.0281C19.6177 37.0281 17.5854 34.8786 17.5854 30.7751C17.5854 28.8992 18.0544 27.3359 19.0705 26.1244C20.0866 24.8738 21.4936 24.2876 23.2522 24.2876C24.8936 24.2876 26.2224 24.8347 27.1604 25.929C27.9811 26.9451 28.3719 28.2348 28.3719 29.7981C28.3719 30.267 28.3328 30.736 28.2937 31.205ZM24.2683 27.7658C24.0339 27.4532 23.6821 27.2969 23.1741 27.2969C22.3143 27.2969 21.7671 27.844 21.5327 28.6647H24.6201C24.581 28.2739 24.4247 28.0003 24.2683 27.7658Z" fill="#DC0000"/>
<path d="M40.057 24.5221H36.3052V36.7936H40.057V24.5221Z" fill="#DC0000"/>
<path d="M48.2249 35.8947C48.0685 36.0511 47.8341 36.2074 47.6386 36.3637C46.9352 36.7936 46.1145 37.0281 45.2156 37.0281C44.1213 37.0281 43.2225 36.7545 42.5581 36.0901C41.8937 35.4648 41.5811 34.605 41.5811 33.5499C41.5811 32.0648 42.2845 30.8532 43.5742 30.0325C44.7075 29.3291 46.2317 28.9774 47.9904 28.9383V28.7819C47.9904 27.9222 47.5605 27.4141 46.2708 27.4141C44.7857 27.4141 43.8478 27.8831 42.5972 28.5865L42.2454 25.0692C43.7696 24.5221 45.0984 24.2094 46.7398 24.2094C48.4984 24.2094 49.8663 24.5612 50.687 25.3819C51.4295 26.1244 51.7813 27.2187 51.7813 28.6256V33.3544C51.7813 34.4878 51.8203 35.6212 51.8594 36.7545H48.2249V36.2855C48.2249 36.1683 48.2249 36.0511 48.2249 35.8947ZM47.9904 31.7521C45.8018 31.8303 45.1765 32.4165 45.1765 33.0809C45.1765 33.5889 45.3719 33.8234 46.0363 33.8234C46.5834 33.8234 47.0524 33.5889 47.4042 33.12C47.795 32.7682 47.9904 32.2993 47.9904 31.7521Z" fill="#DC0000"/>
<path d="M57.6043 25.7727C58.1123 24.7957 59.3238 24.2876 60.848 24.2876C63.3492 24.2876 64.5998 25.7336 64.5998 28.3911V36.8327H60.848V29.0946C60.848 27.9612 60.4572 27.6486 59.9101 27.6486C59.3629 27.6486 58.8939 27.9222 58.425 28.5475C57.9951 29.1728 57.7606 29.9544 57.7606 30.8533V36.7936H54.0088V24.5221H57.6043V24.9911C57.6433 25.2646 57.6433 25.4991 57.6043 25.7727Z" fill="#DC0000"/>
<path d="M71.9865 36.989C68.352 36.989 66.5151 34.9177 66.5151 31.0096C66.5151 29.0555 67.0232 27.4532 68.0393 26.2417C69.1336 24.9129 70.7359 24.2876 72.7291 24.2876C73.7452 24.2876 74.5659 24.4439 75.5038 24.7175L75.113 28.2348C74.3314 27.9612 73.5498 27.6486 72.7291 27.6486C70.9313 27.6486 70.4233 29.1337 70.4233 30.6969C70.4233 32.7292 71.1658 33.5108 72.6118 33.5108C73.7452 33.5108 74.2532 33.2763 75.1912 32.7682L75.5038 36.2855C74.2923 36.7936 73.3153 36.989 71.9865 36.989Z" fill="#DC0000"/>
<path d="M87.3845 31.205L87.3455 31.5958H80.5062C80.6235 33.12 81.4442 33.8234 83.1247 33.8234C84.5316 33.8234 85.5086 33.4717 86.7592 32.8855L87.15 36.1292C85.6259 36.7545 84.3362 37.0281 82.6557 37.0281C78.7085 37.0281 76.6763 34.8786 76.6763 30.7751C76.6763 28.8992 77.1452 27.3359 78.1614 26.1244C79.1775 24.8738 80.5844 24.2876 82.343 24.2876C83.9845 24.2876 85.3132 24.8347 86.2512 25.929C87.0719 26.9451 87.4627 28.2348 87.4627 29.7981C87.5018 30.267 87.4627 30.736 87.3845 31.205ZM83.3592 27.7658C83.1247 27.4532 82.7729 27.2969 82.2649 27.2969C81.4051 27.2969 80.858 27.844 80.6235 28.6647H83.7109C83.6718 28.2739 83.5546 28.0003 83.3592 27.7658Z" fill="#DC0000"/>
<path d="M108.879 38.3959C109.192 38.6695 109.543 38.8258 109.856 38.9431C110.208 39.0603 110.599 39.1385 110.989 39.1385C111.302 39.1385 111.654 39.0994 111.966 38.9821C112.24 38.8649 112.435 38.6695 112.435 38.3568C112.435 38.0442 112.201 37.8488 111.927 37.7315C111.615 37.6143 111.224 37.5752 110.95 37.5752H109.153C108.918 37.5752 108.723 37.458 108.566 37.3017C108.41 37.1453 108.332 36.9499 108.332 36.7154V33.159V33.0809C107.707 32.5728 107.277 32.0257 106.964 31.4004C106.651 30.7751 106.495 30.0716 106.495 29.2118C106.495 28.313 106.73 27.4923 107.159 26.7888C107.316 26.5152 107.472 26.2807 107.668 26.0463C107.863 25.8118 108.097 25.6164 108.332 25.421C109.153 24.7957 110.169 24.4439 111.263 24.4439C111.458 24.4439 111.654 24.4439 111.849 24.483C112.045 24.5221 112.24 24.5221 112.435 24.6003L112.514 24.6393H112.553L112.67 24.5612L112.709 24.5221C113.061 24.3267 113.373 24.1704 113.686 24.0531C114.038 23.9359 114.39 23.8968 114.78 23.8968H114.819H114.858H115.21C115.367 23.8968 115.523 23.9359 115.64 24.014C115.679 24.0531 115.718 24.0531 115.757 24.0922C115.953 24.2485 116.07 24.483 116.07 24.7566V26.5152C116.07 26.5934 116.07 26.6325 116.07 26.6716C116.07 26.7106 116.031 26.7888 116.031 26.8279C115.953 27.0233 115.796 27.1796 115.601 27.2578C115.757 27.5704 115.875 27.8831 115.914 28.1957C115.992 28.5474 116.031 28.8992 116.031 29.2509V29.29C116.031 29.6417 115.992 29.9935 115.914 30.3452C115.836 30.6578 115.757 31.0096 115.601 31.2831C114.937 32.7682 113.569 33.8234 111.888 34.0188V34.3315C112.162 34.3706 112.435 34.4096 112.709 34.4487C113.022 34.5269 113.295 34.605 113.608 34.7223C115.054 35.3085 116.07 36.5591 116.07 38.435C116.07 39.2557 115.875 39.9592 115.523 40.5063C115.367 40.7408 115.21 40.9753 115.054 41.1707C114.116 42.1868 112.67 42.6558 111.146 42.6558C110.481 42.6558 109.739 42.5385 109.035 42.304C108.918 42.265 108.801 42.2259 108.684 42.1868C108.097 41.9523 107.55 41.6787 107.12 41.327L106.808 41.0535C106.769 41.0144 106.73 40.9753 106.691 40.9362C106.651 40.8971 106.612 40.858 106.612 40.7799C106.495 40.5454 106.495 40.2327 106.612 39.9592L107.433 38.4741L107.472 38.3959L107.55 38.3178C107.668 38.2005 107.824 38.1224 107.98 38.0833H108.097H108.215C108.371 38.0833 108.566 38.1614 108.684 38.2787L108.762 38.3178C108.684 38.2787 108.801 38.3568 108.879 38.3959ZM111.224 30.5406C111.576 30.5406 111.888 30.3843 112.123 30.1498C112.357 29.9153 112.475 29.5636 112.475 29.2118C112.475 28.821 112.357 28.5084 112.123 28.2348C111.927 28.0003 111.615 27.844 111.224 27.844C110.872 27.844 110.56 28.0003 110.325 28.2348C110.091 28.4693 109.973 28.821 109.973 29.1727C109.973 29.5245 110.091 29.8762 110.325 30.1107C110.56 30.3843 110.872 30.5406 111.224 30.5406Z" fill="#19AEFF"/>
<path d="M137.213 28.1566L137.174 28.1176C136.978 27.844 136.626 27.6486 136.236 27.6486C135.923 27.6486 135.649 27.6877 135.376 27.7658C135.102 27.844 134.868 27.9222 134.594 28.0785L134.282 28.2739C134.086 28.3911 133.852 28.3911 133.656 28.3521C133.461 28.2739 133.265 28.1566 133.148 27.9612L132.328 26.4761L132.288 26.4371V26.398C132.249 26.3198 132.249 26.2026 132.249 26.0853V26.0072V25.929V25.8899V25.8118L132.288 25.7336L132.328 25.6554C132.406 25.4991 132.523 25.3819 132.64 25.3037L132.718 25.2646C132.796 25.2255 132.875 25.1865 132.914 25.1474L132.992 25.1083C133.5 24.8347 134.008 24.6003 134.555 24.483C135.102 24.3267 135.649 24.2485 136.236 24.2485C137.564 24.2485 138.737 24.7566 139.558 25.6164C140.417 26.4762 140.925 27.6877 140.925 29.0164V36.52C140.925 36.7545 140.847 36.9499 140.691 37.1062C140.535 37.2626 140.339 37.3407 140.105 37.3407H139.831H138.815C138.698 37.3407 138.581 37.3017 138.463 37.2626H138.424C138.385 37.2235 138.307 37.2235 138.268 37.1844C138.19 37.2235 138.151 37.2235 138.072 37.2626C137.994 37.3017 137.877 37.3407 137.799 37.3798C137.33 37.5361 136.783 37.6143 136.314 37.6143C134.985 37.6143 133.813 37.1062 132.953 36.2465C132.797 36.0901 132.679 35.9729 132.562 35.8166C131.937 34.9959 131.546 33.9798 131.546 32.8464C131.546 31.4786 132.054 30.267 132.914 29.4463C133.774 28.5865 134.946 28.0785 136.275 28.0785C136.509 28.0785 136.744 28.1176 136.978 28.1566C137.017 28.1176 137.135 28.1176 137.213 28.1566ZM136.236 34.1361C136.626 34.1361 136.9 33.9797 137.135 33.7453C137.33 33.5108 137.447 33.159 137.447 32.8073C137.447 32.4556 137.33 32.1429 137.095 31.8694C136.861 31.6349 136.587 31.4786 136.236 31.4786C135.845 31.4786 135.532 31.6349 135.337 31.8694C135.102 32.1039 134.985 32.4556 134.985 32.8073C134.985 33.159 135.102 33.5108 135.337 33.7453C135.571 33.9797 135.884 34.1361 136.236 34.1361Z" fill="#19AEFF"/>
<path d="M127.912 32.8073V27.6486H128.068V27.4532H130.061C130.178 27.4532 130.296 27.4141 130.374 27.3359L130.413 27.2969C130.491 27.2187 130.569 27.1015 130.569 26.9451V25.3037C130.569 25.1865 130.53 25.0302 130.413 24.952C130.335 24.8738 130.218 24.7957 130.061 24.7957H127.912V22.0991C127.912 21.9818 127.873 21.8255 127.755 21.7473C127.677 21.6692 127.56 21.591 127.404 21.591H125.606C125.489 21.591 125.332 21.6301 125.254 21.7473C125.176 21.8255 125.098 21.9427 125.098 22.0991V22.4117V24.6393V24.8347H124.942H124.043C123.925 24.8347 123.769 24.8738 123.691 24.9911C123.613 25.0692 123.535 25.2256 123.535 25.3428V26.9842C123.535 27.1015 123.574 27.2578 123.691 27.3359C123.769 27.4141 123.886 27.4923 124.043 27.4923H124.16H125.137V27.6877C125.137 28.821 125.137 29.9935 125.137 31.1268V32.8464C125.137 34.3315 125.84 35.6602 126.974 36.481C127.208 36.6373 127.443 36.7545 127.677 36.8718C127.912 36.989 128.185 37.0672 128.459 37.1453C128.576 37.1844 128.732 37.2235 128.889 37.2235H128.967C129.123 37.2626 129.319 37.2626 129.475 37.2626H130.061C130.178 37.2626 130.335 37.2235 130.413 37.1063C130.491 37.0281 130.569 36.8718 130.569 36.7545V35.0349C130.569 34.9177 130.53 34.7614 130.413 34.6832C130.335 34.6051 130.218 34.5269 130.061 34.5269H129.475C129.006 34.5269 128.615 34.3315 128.342 34.0188C128.068 33.6671 127.912 33.2372 127.912 32.8073Z" fill="#19AEFF"/>
<path d="M128.264 27.8049V32.8073C128.264 33.159 128.381 33.5108 128.615 33.7453C128.85 33.9797 129.163 34.1361 129.514 34.1361H130.1C130.335 34.1361 130.53 34.2533 130.687 34.3706C130.843 34.5269 130.921 34.7223 130.921 34.9568V36.6764C130.921 36.9108 130.843 37.1062 130.687 37.2626C130.53 37.4189 130.335 37.4971 130.1 37.4971H129.514C129.319 37.4971 129.163 37.4971 128.967 37.458H128.889C128.733 37.4189 128.576 37.4189 128.42 37.3798C128.107 37.3016 127.834 37.2235 127.56 37.1062C127.287 36.989 127.013 36.8327 126.779 36.6764C125.528 35.8166 124.785 34.3706 124.785 32.7682V31.0487C124.785 29.9544 124.785 28.8601 124.785 27.7658H124.16H124.043C123.808 27.7658 123.613 27.6877 123.457 27.5313C123.3 27.375 123.222 27.1796 123.222 26.9451V25.3037C123.222 25.0692 123.3 24.8347 123.457 24.6784C123.613 24.5221 123.808 24.4439 124.043 24.4439H124.746V22.568V22.0991C124.746 21.8646 124.824 21.6301 124.981 21.5128C125.137 21.3565 125.333 21.2784 125.567 21.2784H127.365C127.599 21.2784 127.795 21.3956 127.951 21.5128C128.107 21.6692 128.185 21.8646 128.185 22.0991V24.4439H130.022C130.257 24.4439 130.452 24.5221 130.609 24.6784C130.765 24.8347 130.843 25.0301 130.843 25.2646V26.906C130.843 27.1405 130.765 27.375 130.609 27.4923L130.53 27.5704C130.374 27.6877 130.218 27.7658 130.022 27.7658L128.264 27.8049Z" fill="#19AEFF"/>
<path d="M147.57 34.4878H146.984C146.515 34.4878 146.124 34.2924 145.811 33.9797C145.538 33.6671 145.342 33.2372 145.342 32.8073V20.5358C145.342 20.4186 145.303 20.2622 145.186 20.1841C145.108 20.1059 144.99 20.0277 144.834 20.0277H143.036C142.919 20.0277 142.763 20.0668 142.685 20.1841C142.606 20.2622 142.528 20.4186 142.528 20.5358V32.8073C142.528 34.2924 143.232 35.6602 144.404 36.4419C144.639 36.5982 144.873 36.7154 145.108 36.8327C145.381 36.9499 145.616 37.0281 145.928 37.1062C146.046 37.1453 146.202 37.1453 146.358 37.1844H146.436C146.593 37.1844 146.788 37.2235 146.945 37.2235H147.531C147.648 37.2235 147.804 37.1844 147.882 37.0672C147.961 36.989 148.039 36.8327 148.039 36.7154V34.9959C148.039 34.8786 148 34.7223 147.882 34.6441C147.843 34.5269 147.726 34.4878 147.57 34.4878Z" fill="#19AEFF"/>
<path d="M147.569 34.1361C147.803 34.1361 147.999 34.2533 148.155 34.4097C148.311 34.566 148.39 34.7614 148.39 34.9959V36.7154C148.39 36.9499 148.311 37.1844 148.155 37.3017C147.999 37.458 147.803 37.5362 147.569 37.5362H146.983C146.787 37.5362 146.631 37.5361 146.436 37.4971H146.357C146.201 37.4971 146.045 37.458 145.928 37.4189C145.615 37.3407 145.341 37.2626 145.068 37.1453C144.794 37.0281 144.521 36.8718 144.286 36.7154C143.036 35.8557 142.254 34.4096 142.254 32.7682V20.4967C142.254 20.2622 142.332 20.0278 142.488 19.9105C142.645 19.7542 142.84 19.676 143.075 19.676H144.872C145.107 19.676 145.302 19.7542 145.459 19.9105C145.615 20.0668 145.693 20.2622 145.693 20.4967V32.7682C145.693 33.12 145.81 33.4717 146.045 33.7062C146.279 33.9407 146.592 34.097 146.944 34.097H147.569" fill="#19AEFF"/>
<path d="M122.792 34.4878H122.206C121.737 34.4878 121.346 34.2924 121.033 33.9797C120.76 33.6671 120.564 33.2372 120.564 32.8073V25.3037C120.564 25.1865 120.525 25.0301 120.408 24.952C120.33 24.8738 120.213 24.7957 120.056 24.7957H118.259C118.141 24.7957 117.985 24.8347 117.907 24.952C117.829 25.0301 117.75 25.1865 117.75 25.3037V32.8073C117.75 34.2924 118.454 35.6602 119.626 36.4419C119.861 36.5982 120.095 36.7154 120.33 36.8327C120.603 36.9499 120.838 37.0281 121.151 37.1062C121.268 37.1453 121.424 37.1453 121.58 37.1844H121.659C121.815 37.1844 122.01 37.2235 122.167 37.2235H122.753C122.87 37.2235 123.026 37.1844 123.105 37.0672C123.183 36.989 123.261 36.8718 123.261 36.7154V34.9959C123.261 34.8786 123.222 34.7223 123.105 34.6441C123.066 34.5269 122.948 34.4878 122.792 34.4878Z" fill="#19AEFF"/>
<path d="M122.792 34.1361C123.026 34.1361 123.222 34.2533 123.378 34.4096C123.534 34.566 123.612 34.7614 123.612 34.9959V36.7154C123.612 36.9499 123.534 37.1453 123.378 37.3017C123.222 37.458 123.026 37.5361 122.792 37.5361H122.205C122.01 37.5361 121.854 37.5361 121.658 37.4971H121.58C121.424 37.4971 121.267 37.458 121.15 37.4189C120.838 37.3407 120.564 37.2626 120.29 37.1453C120.017 37.0281 119.743 36.8718 119.509 36.7154C118.258 35.8556 117.477 34.4096 117.477 32.7682V25.2646C117.477 25.0301 117.555 24.7957 117.711 24.6393C117.867 24.483 118.063 24.4048 118.297 24.4048H120.095C120.329 24.4048 120.525 24.483 120.681 24.6393C120.838 24.7957 120.916 24.9911 120.916 25.2256V32.7291C120.916 33.0809 121.033 33.4326 121.267 33.6671C121.502 33.9016 121.815 34.0579 122.166 34.0579H122.792" fill="#19AEFF"/>
<path d="M105.87 34.4878H105.283C104.814 34.4878 104.424 34.2924 104.111 33.9797C103.837 33.6671 103.642 33.2372 103.642 32.8073V25.3037C103.642 25.1865 103.603 25.0301 103.486 24.952C103.407 24.8738 103.29 24.7957 103.134 24.7957H101.336C101.219 24.7957 101.063 24.8347 100.984 24.952C100.906 25.0301 100.828 25.1865 100.828 25.3037V32.8073C100.828 34.2924 101.532 35.6602 102.704 36.4419C102.939 36.5982 103.173 36.7154 103.407 36.8327C103.681 36.9499 103.916 37.0281 104.228 37.1062C104.385 37.1453 104.502 37.1453 104.658 37.1844H104.736C104.893 37.1844 105.088 37.2235 105.244 37.2235H105.831C105.948 37.2235 106.104 37.1844 106.182 37.0672C106.26 36.989 106.339 36.8718 106.339 36.7154V34.9959C106.339 34.8786 106.299 34.7223 106.182 34.6441C106.143 34.5269 106.026 34.4878 105.87 34.4878Z" fill="#19AEFF"/>
<path d="M105.87 34.1361C106.104 34.1361 106.3 34.2533 106.456 34.3706C106.612 34.5269 106.69 34.7223 106.69 34.9568V36.6764C106.69 36.9108 106.612 37.1062 106.456 37.2626C106.3 37.4189 106.104 37.4971 105.87 37.4971H105.284C105.088 37.4971 104.932 37.4971 104.736 37.458H104.658C104.502 37.458 104.346 37.4189 104.228 37.3798C103.916 37.3016 103.642 37.2235 103.369 37.1063C103.095 36.989 102.821 36.8327 102.587 36.6764C101.336 35.8166 100.555 34.3706 100.555 32.7291V25.2256C100.555 24.9911 100.633 24.7566 100.789 24.6003C100.946 24.4439 101.141 24.3658 101.375 24.3658H103.173C103.408 24.3658 103.603 24.4439 103.759 24.6003C103.916 24.7566 103.994 24.952 103.994 25.1865V32.6901C103.994 33.0418 104.111 33.3935 104.346 33.628C104.58 33.8625 104.893 34.0188 105.244 34.0188H105.87" fill="#19AEFF"/>
<path d="M101.375 22.6071H103.173C103.29 22.6071 103.447 22.568 103.525 22.4508C103.603 22.3726 103.681 22.2554 103.681 22.0991V20.4967C103.681 20.3795 103.642 20.2232 103.525 20.145C103.447 20.0668 103.329 19.9887 103.173 19.9887H101.375C101.258 19.9887 101.102 20.0278 101.024 20.145C100.945 20.2232 100.867 20.3795 100.867 20.4967V22.0991C100.867 22.2554 100.906 22.3726 101.024 22.4508C101.141 22.529 101.258 22.6071 101.375 22.6071Z" fill="#19AEFF"/>
<path d="M101.375 22.9588C101.141 22.9588 100.946 22.8807 100.789 22.7244C100.633 22.568 100.555 22.3726 100.555 22.1381V20.5358C100.555 20.3013 100.633 20.0668 100.789 19.9496C100.946 19.7933 101.141 19.7151 101.375 19.7151H103.173C103.408 19.7151 103.603 19.7933 103.759 19.9496C103.916 20.1059 103.994 20.3013 103.994 20.5358V22.1381C103.994 22.3726 103.916 22.568 103.759 22.7244C103.603 22.8807 103.408 22.9588 103.173 22.9588H101.375Z" fill="#19AEFF"/>
<path d="M118.298 22.6071H120.095C120.213 22.6071 120.369 22.568 120.447 22.4508C120.525 22.3726 120.603 22.2163 120.603 22.0991V20.4967C120.603 20.3795 120.564 20.2232 120.447 20.145C120.369 20.0668 120.252 19.9887 120.095 19.9887H118.298C118.18 19.9887 118.024 20.0278 117.946 20.145C117.868 20.2232 117.79 20.3404 117.79 20.4967V22.0991C117.79 22.2554 117.829 22.3726 117.946 22.4508C118.063 22.529 118.18 22.6071 118.298 22.6071Z" fill="#19AEFF"/>
<path d="M118.297 22.9588C118.063 22.9588 117.867 22.8807 117.711 22.7244C117.555 22.568 117.477 22.3726 117.477 22.1381V20.5358C117.477 20.3013 117.555 20.0668 117.711 19.9496C117.867 19.7933 118.063 19.7151 118.297 19.7151H120.095C120.329 19.7151 120.525 19.7933 120.681 19.9496C120.838 20.1059 120.916 20.3013 120.916 20.5358V22.1381C120.916 22.3726 120.838 22.568 120.681 22.7244C120.525 22.8807 120.329 22.9588 120.095 22.9588H118.297Z" fill="#19AEFF"/>
<path d="M95.787 24.3658V21.0048V20.5358C95.787 20.3013 95.8652 20.0668 96.0215 19.9496C96.1779 19.7933 96.3733 19.7151 96.6077 19.7151H98.4055C98.6009 19.7151 98.7572 19.7933 98.9135 19.8714L98.9917 19.9496C99.148 20.1059 99.2262 20.3013 99.2262 20.5749V23.3497V32.8855C99.2262 34.2533 98.7181 35.4648 97.8584 36.2855C96.9986 37.1453 95.8261 37.6534 94.4974 37.6534C93.1686 37.6534 91.9962 37.1453 91.1755 36.2855C90.3157 35.4258 89.8076 34.2533 89.8076 32.8855V29.0555C89.8076 27.7268 90.3157 26.5543 91.1755 25.6945C92.0352 24.8347 93.2077 24.2876 94.4974 24.2876C94.7709 24.2876 95.0054 24.2876 95.279 24.3267C95.4353 24.2876 95.6307 24.2876 95.787 24.3658ZM95.8261 32.8073V28.9773C95.8261 28.5865 95.7089 28.2739 95.4744 28.0394C95.2399 27.8049 94.9273 27.6486 94.5755 27.6486C94.2238 27.6486 93.9111 27.8049 93.6767 28.0394C93.4422 28.2739 93.3249 28.6256 93.3249 28.9773V32.8073C93.3249 33.159 93.4422 33.5108 93.6767 33.7453C93.9111 33.9797 94.1847 34.1361 94.5364 34.1361C94.9273 34.1361 95.2399 33.9797 95.4744 33.7453C95.6698 33.5108 95.8261 33.159 95.8261 32.8073Z" fill="#19AEFF"/>
<path d="M95.9433 24.6003C95.9433 23.6623 95.9433 21.591 95.9433 20.8094V20.5358C95.9433 20.145 96.2559 19.8714 96.6077 19.8714H98.4054C98.7571 19.8714 99.0698 20.1841 99.0698 20.5358V23.3106V32.8464C99.0698 35.5039 97.0767 37.458 94.4973 37.458C91.957 37.458 89.9639 35.4258 89.9639 32.8464V29.0164C89.9639 26.4762 91.9961 24.4049 94.4973 24.4049C95.0444 24.3658 95.5134 24.4439 95.9433 24.6003ZM118.298 22.7634C117.946 22.7634 117.633 22.4508 117.633 22.0991V20.4967C117.633 20.1059 117.946 19.8324 118.298 19.8324H120.095C120.447 19.8324 120.76 20.145 120.76 20.4967V22.0991C120.76 22.4899 120.447 22.7634 120.095 22.7634H118.298ZM101.376 22.7634C101.024 22.7634 100.711 22.4508 100.711 22.0991V20.4967C100.711 20.1059 101.024 19.8324 101.376 19.8324H103.173C103.525 19.8324 103.838 20.145 103.838 20.4967V22.0991C103.838 22.4899 103.525 22.7634 103.173 22.7634H101.376ZM105.87 34.2924C106.222 34.2924 106.534 34.6051 106.534 34.9568V36.6764C106.534 37.0672 106.222 37.3407 105.87 37.3407H105.284C104.932 37.3407 104.58 37.3017 104.229 37.2235C102.157 36.7545 100.711 34.9177 100.711 32.7292V25.2256C100.711 24.8348 101.024 24.5612 101.376 24.5612H103.173C103.525 24.5612 103.838 24.8738 103.838 25.2256V32.7292C103.838 33.5499 104.463 34.2533 105.284 34.2533H105.87V34.2924ZM122.792 34.2924C123.144 34.2924 123.456 34.6051 123.456 34.9568V36.6764C123.456 37.0672 123.144 37.3407 122.792 37.3407H122.206C121.854 37.3407 121.502 37.3017 121.151 37.2235C119.079 36.7545 117.594 34.9177 117.594 32.7292V25.2256C117.594 24.8348 117.907 24.5612 118.259 24.5612H120.056C120.408 24.5612 120.721 24.8738 120.721 25.2256V32.7292C120.721 33.5499 121.346 34.2533 122.167 34.2533H122.792V34.2924ZM147.57 34.2924C147.921 34.2924 148.234 34.6051 148.234 34.9568V36.6764C148.234 37.0672 147.921 37.3407 147.57 37.3407H146.983C146.632 37.3407 146.28 37.3017 145.928 37.2235C143.857 36.7545 142.372 34.9177 142.372 32.7292V20.4577C142.372 20.0668 142.684 19.7933 143.036 19.7933H144.834C145.186 19.7933 145.498 20.1059 145.498 20.4577V32.7292C145.498 33.5499 146.124 34.2533 146.944 34.2533H147.57V34.2924ZM128.107 27.6486C128.107 29.3682 128.107 31.0877 128.107 32.8073C128.107 33.628 128.693 34.3315 129.514 34.3315H130.1C130.452 34.3315 130.765 34.6441 130.765 34.9959V36.7154C130.765 37.1063 130.452 37.3798 130.1 37.3798H129.514C129.162 37.3798 128.811 37.3407 128.459 37.2626C126.388 36.7936 124.942 34.9568 124.942 32.7682C124.942 31.0487 124.942 29.3291 124.942 27.6095C124.668 27.6095 124.316 27.6095 124.16 27.6095H124.043C123.691 27.6095 123.378 27.2969 123.378 26.9451V25.3037C123.378 24.9129 123.691 24.6393 124.043 24.6393C124.355 24.6393 124.629 24.6393 124.942 24.6393C124.942 24.0531 124.942 22.9589 124.942 22.4117V22.1381C124.942 21.7473 125.254 21.4738 125.606 21.4738H127.404C127.755 21.4738 128.068 21.7864 128.068 22.1381C128.068 22.9589 128.068 23.8186 128.068 24.6393C128.732 24.6393 129.397 24.6393 130.061 24.6393C130.413 24.6393 130.726 24.952 130.726 25.3037V26.9451C130.726 27.336 130.413 27.6095 130.061 27.6095C130.1 27.6095 128.732 27.6095 128.107 27.6486ZM137.526 28.4302C137.33 27.8831 136.861 27.4532 136.236 27.4532C135.572 27.4532 135.064 27.5704 134.516 27.9222L134.204 28.1176C133.891 28.313 133.461 28.1957 133.305 27.844L132.484 26.3589C132.445 26.2417 132.406 26.1244 132.406 26.0072C132.406 25.8899 132.406 25.9681 132.445 25.8118C132.484 25.6555 132.601 25.4991 132.758 25.421C132.836 25.3819 132.953 25.3037 133.07 25.2646L133.149 25.2256C134.165 24.6784 135.181 24.3658 136.314 24.3658C138.854 24.3658 140.848 26.398 140.848 28.9774V36.481C140.848 36.8718 140.535 37.1453 140.183 37.1453H139.91H138.894C138.659 37.1453 138.503 37.0672 138.307 36.9499C137.721 37.2626 136.979 37.3798 136.314 37.3798C133.774 37.3798 131.742 35.3867 131.742 32.7682C131.742 30.1107 133.735 28.1567 136.314 28.1567C136.705 28.1957 137.135 28.2739 137.526 28.4302ZM108.762 38.5523C109.426 39.0994 110.13 39.3339 110.99 39.3339C111.615 39.3339 112.631 39.1776 112.631 38.3568C112.631 37.5361 111.576 37.3798 110.99 37.3798H109.153C108.801 37.3798 108.488 37.0672 108.488 36.7154V33.12C108.488 33.0809 108.488 32.9636 108.449 32.9246C107.238 31.9085 106.652 30.8142 106.652 29.1728C106.652 26.5543 108.723 24.6003 111.224 24.6003C111.615 24.6003 111.928 24.6393 112.318 24.7175C112.396 24.7566 112.436 24.7566 112.514 24.7566C112.592 24.7175 112.67 24.6784 112.709 24.6393C113.374 24.2485 113.921 24.014 114.741 24.014H114.78H114.82H115.171C115.523 24.014 115.836 24.3267 115.836 24.6784V26.398C115.836 26.7497 115.601 27.0233 115.249 27.0624L115.289 27.1405L115.328 27.2187C115.64 27.844 115.757 28.4693 115.757 29.1728C115.757 31.6349 113.999 33.5499 111.615 33.7453C111.615 33.9407 111.615 34.1752 111.615 34.4097C113.882 34.5269 115.757 35.8557 115.757 38.3568C115.757 41.0925 113.452 42.3822 110.99 42.3822C109.739 42.3822 108.098 41.9132 107.121 41.0925L106.808 40.819C106.573 40.6236 106.495 40.2328 106.652 39.9592L107.472 38.4741C107.55 38.3178 107.746 38.1615 107.941 38.1224C108.137 38.0833 108.332 38.1224 108.488 38.2396C108.527 38.3569 108.684 38.4741 108.762 38.5523ZM95.9824 32.8073V28.9774C95.9824 28.1567 95.3962 27.4532 94.5755 27.4532C93.7157 27.4532 93.1685 28.1176 93.1685 28.9774V32.8073C93.1685 33.5889 93.7548 34.3315 94.5755 34.3315C95.3962 34.2924 95.9824 33.628 95.9824 32.8073ZM136.236 34.2924C137.096 34.2924 137.643 33.628 137.643 32.7682C137.643 31.9866 137.057 31.2441 136.236 31.2441C135.376 31.2441 134.79 31.9085 134.79 32.7682C134.79 33.628 135.415 34.2924 136.236 34.2924ZM111.224 30.736C112.045 30.736 112.631 30.0326 112.631 29.2118C112.631 28.3521 112.084 27.6877 111.224 27.6877C110.364 27.6877 109.817 28.3521 109.817 29.2118C109.778 30.0326 110.403 30.736 111.224 30.736Z" fill="#19AEFF"/>
</svg>
