<svg width="40" height="40" viewBox="0 0 40 40" fill="none" xmlns="http://www.w3.org/2000/svg">
<path fill-rule="evenodd" clip-rule="evenodd" d="M3.88818 18.9385V21.2455L3.95426 21.4715C3.96595 21.5319 3.97414 21.6365 3.98058 21.7016L4.14509 22.8826C4.24473 23.4144 4.35091 23.88 4.4987 24.3918C5.26002 27.0291 6.81483 29.6225 8.67809 31.3129C18.9337 40.6169 33.8084 32.7679 33.7734 20.1879C33.7508 11.9899 27.4286 5.29252 19.4809 4.95135C17.1596 4.8518 15.111 5.29419 13.1979 6.07467C12.3168 6.43401 11.4927 6.8943 10.7676 7.3669C10.3512 7.63815 10.0511 7.86745 9.68927 8.14905C8.04694 9.4273 6.62076 11.1267 5.54973 13.1874C5.13195 13.9916 4.77568 14.9049 4.49761 15.8549C4.1994 16.8736 4.09224 17.5196 3.97809 18.5336C3.96911 18.613 3.95983 18.6927 3.94246 18.7701C3.93788 18.7908 3.95066 19.0106 3.90807 18.8834C3.9051 18.8744 3.89657 18.9209 3.88818 18.9385ZM28.6577 12.6876C28.1342 12.5691 27.529 13.1258 26.9952 13.5179L22.6113 16.7707C20.6627 18.2293 18.7684 19.6521 16.8445 21.1432C15.529 22.1628 14.9099 21.4265 13.484 20.4757C12.4712 19.8003 11.4597 19.1404 10.4535 18.4368C10.0483 18.1533 9.40432 17.6169 8.76506 17.6194C7.90935 17.6225 7.72563 18.4994 8.10342 19.1818L12.2891 25.1994C12.7463 25.8101 14.0925 27.5467 14.5763 27.9821C15.0106 28.3722 15.7813 28.627 16.5492 28.4184C17.4261 28.1801 17.9591 27.3912 18.5836 26.6681C18.7827 26.4374 18.9672 26.1932 19.1624 25.9634C19.5534 25.5036 19.894 25.0406 20.3073 24.5406C20.6954 24.0713 21.0388 23.6051 21.4066 23.1367L23.5981 20.2587C25.1921 18.1373 26.9485 15.7852 28.4373 13.6113C28.6515 13.2984 28.8464 13.1317 28.6577 12.6876Z" fill="#16A2B3"/>
</svg>
