<svg width="93" height="24" viewBox="0 0 93 24" fill="none" xmlns="http://www.w3.org/2000/svg">
<path fill-rule="evenodd" clip-rule="evenodd" d="M3.46631 12.2905V13.3979L3.49803 13.5063C3.50364 13.5353 3.50757 13.5855 3.51066 13.6168L3.58962 14.1836C3.63745 14.4389 3.68842 14.6624 3.75936 14.9081C4.12479 16.174 4.8711 17.4188 5.76546 18.2302C10.6881 22.6961 17.828 18.9286 17.8112 12.8902C17.8004 8.95518 14.7657 5.74042 10.9508 5.57666C9.8366 5.52887 8.85325 5.74122 7.93499 6.11585C7.51204 6.28833 7.11647 6.50927 6.76842 6.73612C6.56855 6.86632 6.42452 6.97639 6.25083 7.11155C5.46251 7.72511 4.77795 8.54081 4.26385 9.52994C4.06332 9.91598 3.89231 10.3544 3.75883 10.8103C3.61569 11.2993 3.56425 11.6094 3.50946 12.0961C3.50515 12.1342 3.5007 12.1725 3.49236 12.2097C3.49016 12.2196 3.4963 12.3251 3.47585 12.264C3.47443 12.2597 3.47034 12.282 3.46631 12.2905ZM15.3557 9.29008C15.1044 9.23316 14.8139 9.50041 14.5577 9.6886L12.4534 11.2499C11.5181 11.9501 10.6088 12.633 9.68533 13.3487C9.05392 13.8381 8.75674 13.4847 8.07231 13.0283C7.58613 12.7042 7.10063 12.3874 6.61768 12.0497C6.42318 11.9136 6.11405 11.6561 5.80721 11.6573C5.39647 11.6588 5.30828 12.0797 5.48962 12.4073L7.49875 15.2957C7.71821 15.5889 8.36439 16.4224 8.5966 16.6314C8.80506 16.8187 9.17499 16.9409 9.54358 16.8408C9.96452 16.7265 10.2204 16.3478 10.5201 16.0007C10.6157 15.8899 10.7043 15.7728 10.7979 15.6624C10.9856 15.4418 11.1491 15.2195 11.3475 14.9795C11.5338 14.7542 11.6986 14.5305 11.8751 14.3056L12.9271 12.9242C13.6922 11.9059 14.5353 10.7769 15.2499 9.73343C15.3527 9.58323 15.4463 9.50323 15.3557 9.29008Z" fill="#16A2B3"/>
<path fill-rule="evenodd" clip-rule="evenodd" d="M38.2866 5.51934C35.343 5.71276 35.4193 8.31478 35.4193 10.5494C35.4193 11.4324 35.4193 12.3153 35.4193 13.1983C35.4193 14.6248 35.2839 16.9443 35.6809 18.1958C36.1384 19.6372 37.1309 20.2897 38.9839 20.172C40.6411 20.0666 41.407 19.1639 41.6992 17.6337C41.8973 16.5956 41.8274 13.7063 41.8274 12.4899C41.8274 11.0106 41.965 8.80404 41.5579 7.4839C41.1211 6.06766 40.0769 5.40189 38.2866 5.51934ZM30.2894 13.6785C30.4691 13.6181 31.4789 13.5758 31.6522 13.6912C31.7477 13.7961 31.7026 18.7121 31.6999 19.5124C31.6976 20.2109 31.8289 20.0797 33.1322 20.0797C34.2175 20.0797 34.1811 20.2367 34.1811 19.1428V6.32981C34.1813 6.00189 34.2443 5.67276 33.9015 5.62068C33.7192 5.59303 32.0948 5.59384 31.9372 5.62739C31.6291 5.69303 31.7001 6.07411 31.7003 6.39129C31.7004 6.99746 31.7316 10.7099 31.6976 11.06C31.6846 11.1948 31.687 11.175 31.6189 11.2301C31.475 11.3192 30.4648 11.2897 30.298 11.2277C30.1983 10.9328 30.2546 7.24592 30.255 6.36055C30.2552 6.08041 30.3238 5.69451 30.0149 5.62699C29.8709 5.59558 28.2153 5.59464 28.0503 5.62189C27.7093 5.6784 27.7726 5.99894 27.7729 6.32981V19.1121C27.7729 20.2934 27.5595 20.0795 29.7746 20.0804C30.1917 20.0807 30.2538 19.9822 30.2554 19.5753C30.2584 18.7756 30.2048 14.0423 30.2894 13.6785ZM64.2715 5.63894C63.986 5.73853 64.0616 6.13343 64.0616 6.4529V13.7219C64.0616 16.2522 63.711 19.3197 66.0428 20.0262C67.0842 20.3418 68.484 20.2428 69.3716 19.5549C70.1871 18.9227 70.4212 17.5193 70.4608 16.4946C70.513 15.1396 70.4689 13.7 70.4689 12.3358L70.4694 6.11357C70.4685 5.46122 70.1767 5.61156 68.8975 5.61156C67.8812 5.61156 67.9887 5.51813 67.9887 6.76095V15.0463C67.9887 15.6752 68.0344 16.5167 67.9509 17.1215C67.8153 18.105 66.9733 17.8534 66.7733 17.6328C66.4601 17.2871 66.5427 16.3188 66.5427 15.7855V6.4529C66.5427 6.13572 66.6158 5.70901 66.329 5.6329C66.1666 5.58981 64.4035 5.5929 64.2715 5.63894ZM43.2843 5.63384C42.9741 5.72095 43.0658 6.20484 43.0658 6.69934V18.4036C43.0658 20.258 42.9137 20.0797 44.0066 20.0797C45.6996 20.0797 45.5467 20.2648 45.5467 18.9889L45.5466 15.7238C45.546 14.9526 45.7338 15.413 46.9371 15.174C49.5458 14.6554 49.4717 12.0679 49.4729 9.87183C49.4744 7.08699 48.4777 5.6188 45.8856 5.61156C45.4546 5.61035 43.547 5.55988 43.2843 5.63384ZM53.422 5.50954C50.8603 5.75733 50.7122 7.93035 50.7122 10.4262C50.7122 11.6993 50.7122 12.9725 50.7122 14.2455C50.7122 16.1814 50.3968 19.2565 52.5854 19.9902C53.5685 20.3197 54.9565 20.2565 55.7573 19.7423C56.5128 19.2573 56.9035 18.4407 57.054 17.2228C57.1055 16.8055 57.1713 15.7941 57.1103 15.3995C57.0596 15.0705 56.7685 15.1175 56.4521 15.118C54.3789 15.121 54.6434 14.9631 54.6391 16.1243C54.6371 16.6552 54.6822 17.471 54.3173 17.7173C54.0513 17.8968 53.3474 17.9961 53.2279 17.0997C53.1475 16.4953 53.1926 10.7369 53.1933 9.50229C53.1934 8.97317 53.1509 8.16149 53.5309 7.93733C53.866 7.73961 54.4844 7.74431 54.6004 8.54995C54.6571 8.9435 54.5906 10.1777 54.6705 10.3897C54.7632 10.6356 55.165 10.5724 55.4354 10.5724C55.7537 10.5724 56.0721 10.5721 56.3905 10.5724C57.1915 10.5728 57.1376 10.5993 57.1173 9.40981C57.0734 6.84135 56.1889 5.24189 53.422 5.50954ZM23.2556 5.52082C21.982 5.61974 21.1929 6.22619 20.7804 7.13196C20.3452 8.08753 20.3493 9.62967 20.7209 10.638C21.3663 12.3887 23.3303 13.9725 24.0914 15.4302C24.4306 16.08 24.569 17.5545 23.9169 17.7824C23.5879 17.8975 23.3102 17.7893 23.1491 17.6046C22.7656 17.1646 23.0889 16.1328 22.7391 15.9803C22.6103 15.924 20.913 15.9184 20.7376 15.962C20.4352 16.0375 20.449 16.3659 20.462 16.7095C20.5408 18.7971 21.6796 20.3832 24.1161 20.1671C25.3612 20.0567 26.1477 19.4138 26.5362 18.523C26.9528 17.5682 26.9525 16.0385 26.5827 15.0348C25.9315 13.2679 23.9871 11.7066 23.2107 10.2435C22.9379 9.72901 22.8698 9.18632 22.9742 8.5227C23.1148 7.62981 23.9341 7.8086 24.1462 8.07666C24.2965 8.26659 24.3548 8.56109 24.3737 8.85478C24.3933 9.15693 24.3189 9.6082 24.5487 9.70592C24.6887 9.76551 26.3608 9.77585 26.5562 9.73115C27.0307 9.6227 26.8124 8.46055 26.7389 8.10041C26.3977 6.42712 25.2196 5.36806 23.2556 5.52082ZM80.7105 5.52229C79.42 5.62807 78.6697 6.2388 78.2461 7.14578C77.8185 8.06122 77.8286 9.65921 78.1865 10.6251C78.8369 12.3815 80.873 14.0671 81.5526 15.4219C81.8344 15.9836 81.9014 16.4208 81.804 17.1375C81.6771 18.0734 80.8443 17.8732 80.6392 17.6285C80.2452 17.1584 80.5329 16.1401 80.242 15.9932C80.1064 15.9246 78.4616 15.9148 78.2431 15.954C77.7354 16.0451 77.9567 17.1945 78.0282 17.5614C78.1379 18.1235 78.3404 18.6224 78.6192 19.0016C79.1818 19.7669 80.1263 20.2714 81.5204 20.1724C82.7546 20.0847 83.5894 19.4536 83.9843 18.5808C84.4242 17.6087 84.4274 16.1047 84.0634 15.0673C83.4493 13.3168 81.4905 11.7438 80.6979 10.2697C80.4156 9.74458 80.3371 9.22525 80.4432 8.53706C80.5834 7.62954 81.3728 7.80766 81.6071 8.0678C82.011 8.51612 81.6953 9.52672 82.0095 9.69907C82.1412 9.77142 83.7936 9.77719 84.0102 9.73545C84.3372 9.67236 84.323 9.32417 84.3122 9.00941C84.2834 8.1635 84.0866 7.30216 83.603 6.65733C83.0396 5.90605 82.0623 5.41142 80.7105 5.52229ZM71.7081 6.1141V19.574C71.7081 19.965 71.7579 20.0797 72.1628 20.0797H76.5372C76.9436 20.0797 77.0005 19.9646 77.0005 19.574V18.2188C77.0005 17.5961 76.7297 17.7224 75.8287 17.7224C75.478 17.7224 74.4638 17.778 74.2244 17.6703L74.1816 17.3263C74.1601 16.9725 74.1781 14.1744 74.2157 13.683C74.5175 13.551 76.1216 13.6685 76.6611 13.6286C76.9677 13.6059 77.0005 13.4303 77.0005 13.1367V11.7506C77.0005 11.4324 76.955 11.2954 76.6315 11.276L74.5643 11.2748C74.2413 11.2748 74.1891 11.2835 74.1891 10.8575C74.1891 10.0576 74.1565 8.76364 74.2172 8.01974C74.5303 7.89209 76.1236 8.00511 76.6619 7.96565C76.973 7.94283 77.0004 7.76565 77.0004 7.46941L77.0005 6.1141C77.0005 5.70041 76.9258 5.61156 76.5065 5.61156H72.1976C71.7819 5.61156 71.7081 5.70914 71.7081 6.1141ZM60.8788 17.6753C60.7898 17.3485 60.8385 13.4922 60.8385 12.8287V6.73021C60.8385 5.46632 61.0313 5.61156 59.471 5.61156C59.1475 5.61156 58.522 5.51585 58.3989 5.78095C58.3124 5.9674 58.3589 17.3192 58.3588 19.2352C58.3588 20.3234 58.1787 20.0797 61.1961 20.0797C61.6068 20.0797 62.0176 20.0797 62.4283 20.0797C62.7448 20.0797 63.3929 20.1769 63.507 19.9141C63.5742 19.7592 63.5466 18.9446 63.5466 18.7116C63.5466 18.3314 63.6497 17.8059 63.285 17.7358C62.7113 17.6258 61.3416 17.8392 60.8788 17.6753ZM38.4295 7.88834C38.0269 7.98189 37.9473 8.34297 37.9165 8.79786C37.8573 9.67464 37.9003 12.1066 37.9003 13.075C37.9003 14.0196 37.9003 14.9642 37.9003 15.9087C37.9001 16.6969 37.7597 18.078 38.8446 17.7995C39.5026 17.6305 39.3455 16.2106 39.3455 15.4776V9.77934C39.3455 9.00968 39.4893 7.64216 38.4295 7.88834ZM45.5467 8.30095V12.613C45.5467 12.7624 45.5263 12.8628 45.6059 12.9568C45.7589 13.0651 46.1362 13.0205 46.3199 12.9564C46.5689 12.8693 46.6717 12.7537 46.7785 12.5512C47.0665 12.0059 46.992 10.5687 46.992 9.84095C46.9921 9.0631 47.0083 7.96216 46.0995 7.87263C45.5926 7.82256 45.5467 7.83974 45.5467 8.30095Z" fill="#1C1C1A"/>
<path fill-rule="evenodd" clip-rule="evenodd" d="M90.3382 13.6196V13.0214C90.2861 12.9187 90.2732 12.7616 90.2255 12.6337C89.5723 10.8823 86.1814 11.0212 86.1466 13.2899C86.1168 15.2435 88.5051 15.5671 89.6187 14.7887C90.2204 14.3681 90.2094 13.8683 90.3382 13.6196ZM89.3904 7.90055C89.3842 7.90551 89.3741 7.9043 89.3709 7.9141C89.3544 7.96417 86.4739 8.97504 86.2473 9.09665C86.2469 9.93021 86.134 9.80202 86.703 9.80162L90.0927 9.80283C90.2745 9.78417 90.2527 9.76538 90.2341 9.26686L87.2859 9.25813C87.4906 9.13263 87.7794 9.0584 88.0174 8.969C88.2736 8.8729 88.507 8.78712 88.7599 8.69357C88.9374 8.62806 90.1877 8.21786 90.2184 8.10726L90.2372 7.66645L87.3439 6.598L90.2157 6.58149L90.2376 6.01088L86.2594 6.00619C86.239 6.12001 86.2374 6.48605 86.2458 6.60686C86.2603 6.80927 86.4301 6.80444 86.6206 6.87504C86.9917 7.01263 89.2433 7.80363 89.3904 7.90055ZM87.97 11.9852C87.127 12.0795 86.4666 12.6052 86.6387 13.5748C86.9203 15.1608 90.1823 15.0405 89.8455 13.0455C89.7106 12.2463 88.8833 11.8832 87.97 11.9852ZM90.3382 18.7133V18.2352C90.2725 18.0564 90.2704 17.8626 90.1771 17.6404C89.9555 17.1129 89.4308 16.7576 88.8192 16.6674L88.8325 17.2273C89.5033 17.3761 90.0012 17.8228 89.8369 18.6428C89.7065 19.2937 89.099 19.5795 88.3367 19.6056C86.7301 19.6607 86.3497 18.5095 86.75 17.7424C86.8876 17.4788 87.1345 17.3424 87.5117 17.2652L87.5151 16.7173C86.7509 16.7793 86.2751 17.2957 86.1661 18.0251C85.8889 19.8801 87.629 20.4724 89.0851 20.0779C90.2085 19.7737 90.2151 18.9828 90.3382 18.7133Z" fill="#1C1C1A"/>
<path fill-rule="evenodd" clip-rule="evenodd" d="M84.5726 20.1831H85.3113L85.319 19.4393L84.5708 19.4357L84.5726 20.1831Z" fill="#1C1C1A"/>
</svg>
