<svg width="32" height="33" viewBox="0 0 32 33" fill="none" xmlns="http://www.w3.org/2000/svg">
<g clip-path="url(#clip0_65_82)">
<path d="M7.6831 28.3095C7.96683 28.7932 8.27675 28.9714 8.84421 28.9714H19.4224C19.9906 28.9714 20.2998 28.8186 20.6613 28.3603L28.6597 18.1766C28.8402 17.9476 28.6339 17.5659 28.3502 17.5659H15.5268C14.9593 17.5659 14.6494 17.3877 14.3656 16.904L7.91525 5.90555C7.76048 5.65079 7.34779 5.70198 7.24421 5.95634L2.26485 17.8456C2.03271 18.3805 2.08429 18.7369 2.36802 19.2206L7.6831 28.3095Z" fill="#FF2241"/>
<path d="M20.9967 15.1727C21.2804 15.6564 21.5903 15.8346 22.1578 15.8346H28.3498C28.6598 15.8346 28.8919 15.4528 28.7371 15.1727L22.8288 5.0913C22.5447 4.60718 22.2351 4.429 21.6677 4.429H9.85023C9.5407 4.429 9.30856 4.81075 9.46332 5.0913L12.534 10.3357C12.8177 10.8191 13.1268 10.9977 13.6951 10.9977H18.5713L20.9967 15.1727Z" fill="#FF2241"/>
</g>
<defs>
<clipPath id="clip0_65_82">
<rect width="32" height="33" fill="white"/>
</clipPath>
</defs>
</svg>
