<svg width="129" height="33" viewBox="0 0 129 33" fill="none" xmlns="http://www.w3.org/2000/svg">
<path d="M38.4123 10.9465C35.7544 10.9465 34.1548 12.2449 34.1548 14.3834C34.1548 16.0386 35.0579 17.1838 37.9738 18.2025L38.9282 18.5334C40.7345 19.1699 41.2762 19.7044 41.2762 20.5953C41.2762 21.7159 40.296 22.4032 38.6444 22.4032C37.3028 22.4032 36.2448 21.9961 35.2385 21.0536C34.8258 20.6465 34.2841 20.6465 33.8714 21.0536L33.8452 21.0794C33.5099 21.41 33.5099 22.0719 33.8452 22.4032C35.2127 23.7017 36.7091 24.2362 38.6444 24.2362C41.5599 24.2362 43.3405 22.8866 43.3405 20.5699C43.3405 18.7624 42.4373 17.7441 39.625 16.7509L38.696 16.4199C36.7869 15.733 36.219 15.1981 36.219 14.3072C36.219 13.3905 37.0706 12.7794 38.4123 12.7794C39.5218 12.7794 40.3988 13.1616 41.3278 13.9763C41.7405 14.358 42.3079 14.3326 42.721 13.9251L42.7468 13.8997C43.0821 13.5687 43.0821 12.9068 42.721 12.6013C41.4567 11.4556 40.1667 10.9465 38.4123 10.9465Z" fill="#1D1D1B"/>
<path d="M63.1817 10.9465C61.5821 10.9465 60.0852 11.379 58.6404 12.8306C58.3051 13.187 58.3051 13.8743 58.6404 14.2052L58.6924 14.2564C59.0793 14.6382 59.6471 14.6382 60.0337 14.2306C61.0916 13.1104 62.1237 12.7794 63.1817 12.7794C65.065 12.7794 66.2003 13.8235 66.2003 15.5544V16.1909H62.846C59.5952 16.1909 57.686 17.6425 57.686 20.1628C57.686 22.5302 59.5178 24.2362 62.0983 24.2362C63.9301 24.2362 65.3491 23.5231 66.2265 22.3778V22.9378C66.2265 23.4469 66.6646 23.8798 67.2071 23.8798H67.2583C67.7741 23.8798 68.213 23.4469 68.213 22.9124V15.5544C68.213 12.6778 66.3297 10.9465 63.1817 10.9465ZM66.2003 18.737V18.7878V19.0425C66.2003 20.9775 64.8075 22.4028 62.5622 22.4028C60.8079 22.4028 59.7503 21.614 59.7503 20.1628C59.7503 18.7624 60.8852 17.9481 62.846 17.9481H66.2003V18.737Z" fill="#1D1D1B"/>
<path d="M115.12 10.9465C112.411 10.9465 110.296 12.5251 110.296 13.5687C110.296 13.8235 110.373 14.0782 110.553 14.2564L110.605 14.3072C110.786 14.4854 110.992 14.5616 111.25 14.5616C111.689 14.5616 111.998 14.2306 112.411 13.8235C112.927 13.3144 113.753 12.7794 115.12 12.7794C117.004 12.7794 118.139 13.8235 118.139 15.5544V16.1909H114.785C111.534 16.1909 109.625 17.6425 109.625 20.1628C109.625 22.5302 111.457 24.2362 114.037 24.2362C115.869 24.2362 117.288 23.5231 118.165 22.3778V22.9378C118.165 23.4469 118.603 23.8798 119.146 23.8798H119.197C119.713 23.8798 120.152 23.4469 120.152 22.9124V15.5544C120.152 12.6778 118.268 10.9465 115.12 10.9465ZM118.139 18.737V18.7878V19.0425C118.139 20.9775 116.746 22.4028 114.501 22.4028C112.747 22.4028 111.689 21.614 111.689 20.1628C111.689 18.7624 112.824 17.9481 114.785 17.9481H118.139V18.737Z" fill="#1D1D1B"/>
<path d="M94.7117 20.5445V5.44729C94.7117 4.91277 94.2728 4.48023 93.7307 4.48023H93.6791C93.1375 4.48023 92.699 4.91277 92.699 5.44729V12.754C91.7954 11.583 90.4541 10.9465 88.674 10.9465C85.2422 10.9465 83.3589 13.3905 83.3589 17.5913C83.3589 21.7921 85.2422 24.2362 88.674 24.2362C90.5831 24.2362 92.0021 23.4981 92.8795 22.1485C93.2406 23.2175 94.0918 24.058 94.918 24.058C95.4597 24.058 95.9244 23.6759 95.9244 23.1159C95.9244 22.0977 94.7117 22.2501 94.7117 20.5445ZM92.699 18.6858C92.4406 21.0282 91.2541 22.4032 89.0867 22.4032C86.6355 22.4032 85.4228 20.6207 85.4228 17.5913C85.4228 14.5616 86.6355 12.7794 89.0867 12.7794C91.2799 12.7794 92.4668 14.2052 92.699 16.5985V18.6858Z" fill="#1D1D1B"/>
<path d="M76.4181 10.9465C74.6375 10.9465 73.2701 11.6084 72.3673 12.8052V12.2449C72.3673 11.7358 71.9288 11.3028 71.4125 11.3028H71.3609C70.8193 11.3028 70.3804 11.7358 70.3804 12.2449V27.9786C70.3804 28.5132 70.8193 28.9461 71.3609 28.9461H71.4125C71.9542 28.9461 72.3927 28.5132 72.3927 27.9786V22.4028C73.2958 23.5997 74.6375 24.2358 76.4181 24.2358C79.8494 24.2358 81.7331 21.7921 81.7331 17.5913C81.7331 13.3905 79.8494 10.9465 76.4181 10.9465ZM76.0054 22.4028C73.5538 22.4028 72.3415 20.6211 72.3415 17.6933V17.4894C72.3415 14.5616 73.5538 12.7798 76.0054 12.7798C78.405 12.7798 79.6689 14.5616 79.6689 17.5913C79.6689 20.6211 78.405 22.4028 76.0054 22.4028Z" fill="#1D1D1B"/>
<path d="M107.612 21.3848C107.199 21.0031 106.631 20.9519 106.167 21.3083C105.16 22.0718 104.257 22.4027 102.967 22.4027C100.49 22.4027 99.1487 20.8499 98.994 18.2531H106.915C107.663 18.2531 108.205 17.7186 108.205 16.9801C108.205 13.2122 106.373 10.9468 102.555 10.9468C98.8396 10.9468 96.9043 13.4158 96.9043 17.5912C96.9043 21.7666 98.994 24.2364 102.967 24.2364C104.851 24.2364 106.167 23.7777 107.56 22.6575C107.947 22.3523 107.973 21.7408 107.637 21.4102L107.612 21.3848ZM102.555 12.7793C104.851 12.7793 106.012 14.1289 106.141 16.4968H99.0198C99.2777 14.1543 100.439 12.7793 102.555 12.7793Z" fill="#1D1D1B"/>
<path d="M47.2105 22.9121V16.624C47.2105 14.2308 48.4232 12.7796 50.6934 12.7796C52.887 12.7796 53.8414 14.0014 53.8414 16.4458V22.9121C53.8414 23.447 54.2799 23.8796 54.822 23.8796H54.8735C55.4156 23.8796 55.8541 23.447 55.8541 22.9121V16.3946C55.8541 12.7034 54.4093 10.9466 51.1585 10.9466C49.3779 10.9466 48.0362 11.6085 47.1847 12.805V12.245C47.1847 11.7359 46.7462 11.303 46.2303 11.303H46.1787C45.6366 11.303 45.1978 11.7359 45.1978 12.245V22.9121C45.1978 23.447 45.6366 23.8796 46.1787 23.8796H46.2303C46.772 23.8796 47.2105 23.447 47.2105 22.9121Z" fill="#1D1D1B"/>
<path d="M124.538 24.058C125.08 24.058 125.544 23.6759 125.544 23.1159C125.544 22.0977 124.332 22.2501 124.332 20.5445V5.4473C124.332 4.91277 123.893 4.48023 123.351 4.48023H123.299C122.758 4.48023 122.319 4.91277 122.319 5.4473V21.0794C122.319 22.5814 123.428 24.058 124.538 24.058Z" fill="#1D1D1B"/>
<path d="M7.6831 28.3095C7.96683 28.7932 8.27675 28.9714 8.84421 28.9714H19.4224C19.9906 28.9714 20.2998 28.8186 20.6613 28.3603L28.6597 18.1766C28.8402 17.9476 28.6339 17.5659 28.3502 17.5659H15.5268C14.9593 17.5659 14.6494 17.3877 14.3656 16.904L7.91525 5.90555C7.76048 5.65079 7.34779 5.70198 7.24421 5.95634L2.26485 17.8456C2.03271 18.3805 2.08429 18.7369 2.36802 19.2206L7.6831 28.3095Z" fill="#FF2241"/>
<path d="M20.9967 15.1727C21.2804 15.6564 21.5903 15.8346 22.1578 15.8346H28.3498C28.6598 15.8346 28.8919 15.4528 28.7371 15.1727L22.8288 5.0913C22.5447 4.60718 22.2351 4.429 21.6677 4.429H9.85023C9.5407 4.429 9.30856 4.81075 9.46332 5.0913L12.534 10.3357C12.8177 10.8191 13.1268 10.9977 13.6951 10.9977H18.5713L20.9967 15.1727Z" fill="#FF2241"/>
</svg>
