<svg width="87" height="50" viewBox="0 0 87 50" fill="none" xmlns="http://www.w3.org/2000/svg">
<path d="M0 0V3.97H3.73V13.64H8.92V3.97H12.65V0H0ZM16.83 0L11.56 13.64H16.82L19.68 5.38L22.56 13.63H27.81L22.56 0H16.83ZM26.73 0V3.97H30.45V13.64H35.64V3.97H39.37V0H26.73ZM43.55 0L38.27 13.64H43.54L46.41 5.39L49.28 13.64H54.54L49.28 0H43.55ZM0 34.11C0 24.89 4.98 20.46 13.68 20.46C18.96 20.46 22.42 22.33 24.21 24.66C24.56 25.12 24.69 25.51 24.69 25.94C24.69 27.07 23.64 28 22.33 28C21.72 28 21.11 27.77 20.54 27.22C18.75 25.47 16.87 24.5 13.68 24.5C7.87 24.5 5.24 27.69 5.24 34.11C5.24 40.92 7.86 43.68 13.68 43.68C16.91 43.68 18.66 43.02 20.76 41.11C21.46 40.49 22.03 40.26 22.64 40.26C23.95 40.26 25 41.19 25 42.36C25 42.79 24.84 43.2 24.56 43.53C22.46 46.02 18.36 47.73 13.68 47.73C4.98 47.73 0 43.64 0 34.11ZM41 43.4C42.17 43.36 43.14 44.28 43.18 45.45C43.18 45.49 43.18 45.52 43.18 45.56C43.18 46.81 42.28 47.73 41 47.73H29.49C28.2 47.73 27.27 46.77 27.27 45.49V22.78C27.27 21.5 28.28 20.46 29.53 20.46C30.78 20.46 31.78 21.5 31.78 22.78V43.4H41ZM52.27 45.32C52.27 46.65 51.25 47.73 50 47.73C48.75 47.73 47.73 46.65 47.73 45.32V29.68C47.73 28.35 48.75 27.27 50 27.27C51.26 27.27 52.27 28.35 52.27 29.68V45.32ZM84 50C83.37 50 82.78 49.75 82.34 49.31L79.17 46.13L78.25 46.69C78.06 46.81 77.87 46.92 77.67 47.02L77.59 47.06C76.19 47.78 74.68 48.28 73.12 48.53C72.42 48.64 71.7 48.7 70.99 48.7C69.8 48.7 68.62 48.55 67.47 48.27C65.7 47.8 64.04 47.01 62.56 45.93C61.08 44.86 59.83 43.5 58.88 41.94C58.63 41.54 58.4 41.13 58.19 40.7C57.63 39.52 57.23 38.26 57.02 36.97L57 36.84L56.97 36.69L56.94 36.46C56.86 35.84 56.81 35.22 56.81 34.59C56.81 33.42 56.96 32.26 57.25 31.13C57.72 29.36 58.53 27.7 59.63 26.23C60.73 24.76 62.1 23.51 63.68 22.56C64.29 22.18 64.94 21.84 65.62 21.56C66.69 21.12 67.81 20.8 68.96 20.62C70.86 20.33 72.8 20.44 74.66 20.94L74.7 20.95C74.85 20.99 74.99 21.03 75.12 21.07L75.17 21.08C78.12 22.02 80.68 23.89 82.46 26.41C82.68 26.72 82.86 27 83.01 27.27C83.74 28.47 84.28 29.76 84.62 31.1C84.76 31.64 84.87 32.21 84.94 32.82C85.14 34.56 85.03 36.32 84.63 38.03C84.29 39.39 83.75 40.69 83.03 41.89L82.48 42.8L85.66 45.99C86.59 46.92 86.59 48.39 85.66 49.32C85.22 49.75 84.62 50 84 50ZM71.11 24.32C70.59 24.32 70.08 24.36 69.56 24.44C68.18 24.65 66.86 25.13 65.67 25.84L65.64 25.86C64.46 26.62 63.51 27.5 62.73 28.55C61.92 29.61 61.33 30.83 61.01 32.12C60.65 33.41 60.57 34.77 60.79 36.09C61 37.49 61.46 38.72 62.18 39.87C62.86 40.99 63.79 41.99 64.86 42.76C67.76 44.93 71.59 45.41 74.94 44.02C76.66 43.3 78.14 42.12 79.23 40.6C80 39.58 80.56 38.38 80.89 37.05C81.21 35.7 81.28 34.35 81.09 33.03C80.65 30.3 79.24 27.92 77.11 26.32C75.38 25.02 73.28 24.32 71.11 24.32Z" fill="black"/>
<path d="M53.7199 22.46C54.8199 23.56 54.8199 25.35 53.7199 26.45C52.6199 27.55 50.8299 27.55 49.7299 26.45L46.2799 22.99C45.2099 21.86 45.2599 20.08 46.3899 19.01C47.4799 17.98 49.1799 17.98 50.2699 19.01L53.7199 22.46Z" fill="#FF1744"/>
</svg>
